M48
; DRILL file {KiCad 5.1.10-88a1d61d58~88~ubuntu18.04.1} date Mon Jun 14 13:50:39 2021
; FORMAT={-:-/ absolute / metric / decimal}
; #@! TF.CreationDate,2021-06-14T13:50:39-04:00
; #@! TF.GenerationSoftware,Kicad,Pcbnew,5.1.10-88a1d61d58~88~ubuntu18.04.1
; #@! TF.FileFunction,Plated,1,2,PTH
FMAT,2
METRIC
T1C0.300
T2C1.000
%
G90
G05
T1
X173.482Y-131.572
X184.912Y-108.458
X190.246Y-125.73
X190.246Y-129.032
X200.914Y-104.394
X201.93Y-115.316
X207.772Y-115.316
T2
X155.575Y-99.06
X158.115Y-99.06
X159.829Y-122.618
X160.655Y-99.06
X161.036Y-138.684
X163.195Y-99.06
X163.576Y-138.684
X165.735Y-99.06
X166.116Y-138.684
X168.275Y-99.06
X170.815Y-99.06
X172.466Y-138.684
X173.355Y-99.06
X175.006Y-138.684
X175.895Y-99.06
X177.546Y-138.684
X178.435Y-99.06
X180.086Y-138.684
X180.975Y-99.06
X182.626Y-138.684
X183.515Y-99.06
X185.166Y-138.684
X186.055Y-99.06
X188.595Y-99.06
X191.135Y-99.06
X193.675Y-99.06
X196.215Y-99.06
X198.755Y-99.06
X215.646Y-104.394
X215.646Y-106.934
X215.646Y-109.474
X215.646Y-112.014
X215.646Y-114.554
X215.646Y-117.094
T0
M30
