%FSLAX45Y45*%
G04 Gerber Fmt 4.5, Leading zero omitted, Abs format (unit mm)*
G04 Created by KiCad (PCBNEW 5.1.10-88a1d61d58~88~ubuntu18.04.1) date 2021-06-14 13:50:45*
%MOMM*%
%LPD*%
G01*
G04 APERTURE LIST*
%TA.AperFunction,Profile*%
%ADD10C,0.150000*%
%TD*%
%ADD11C,0.200000*%
%ADD12C,0.300000*%
G04 APERTURE END LIST*
D10*
X15118080Y-14989810D02*
G75*
G02*
X14605000Y-14476730I0J513080D01*
G01*
X22611080Y-14458950D02*
G75*
G02*
X22089110Y-14980920I-521970J0D01*
G01*
X22095410Y-9387866D02*
G75*
G02*
X22613620Y-9900920I5131J-513054D01*
G01*
X14605000Y-9398000D02*
X22105620Y-9387840D01*
X14608810Y-14479270D02*
X14605000Y-9398000D01*
X22091650Y-14980920D02*
X15119350Y-14989810D01*
X22616160Y-9903460D02*
X22613620Y-14461490D01*
D11*
D12*
X14883928Y-15463024D02*
X14883928Y-15163024D01*
X14955357Y-15163024D01*
X14998214Y-15177310D01*
X15026786Y-15205881D01*
X15041071Y-15234453D01*
X15055357Y-15291596D01*
X15055357Y-15334453D01*
X15041071Y-15391596D01*
X15026786Y-15420167D01*
X14998214Y-15448739D01*
X14955357Y-15463024D01*
X14883928Y-15463024D01*
X15183928Y-15463024D02*
X15183928Y-15263024D01*
X15183928Y-15320167D02*
X15198214Y-15291596D01*
X15212500Y-15277310D01*
X15241071Y-15263024D01*
X15269643Y-15263024D01*
X15369643Y-15463024D02*
X15369643Y-15263024D01*
X15369643Y-15163024D02*
X15355357Y-15177310D01*
X15369643Y-15191596D01*
X15383928Y-15177310D01*
X15369643Y-15163024D01*
X15369643Y-15191596D01*
X15555357Y-15463024D02*
X15526786Y-15448739D01*
X15512500Y-15420167D01*
X15512500Y-15163024D01*
X15712500Y-15463024D02*
X15683928Y-15448739D01*
X15669643Y-15420167D01*
X15669643Y-15163024D01*
X16055357Y-15463024D02*
X16055357Y-15163024D01*
X16155357Y-15377310D01*
X16255357Y-15163024D01*
X16255357Y-15463024D01*
X16526786Y-15463024D02*
X16526786Y-15305881D01*
X16512500Y-15277310D01*
X16483928Y-15263024D01*
X16426786Y-15263024D01*
X16398214Y-15277310D01*
X16526786Y-15448739D02*
X16498214Y-15463024D01*
X16426786Y-15463024D01*
X16398214Y-15448739D01*
X16383928Y-15420167D01*
X16383928Y-15391596D01*
X16398214Y-15363024D01*
X16426786Y-15348739D01*
X16498214Y-15348739D01*
X16526786Y-15334453D01*
X16669643Y-15263024D02*
X16669643Y-15563024D01*
X16669643Y-15277310D02*
X16698214Y-15263024D01*
X16755357Y-15263024D01*
X16783928Y-15277310D01*
X16798214Y-15291596D01*
X16812500Y-15320167D01*
X16812500Y-15405881D01*
X16798214Y-15434453D01*
X16783928Y-15448739D01*
X16755357Y-15463024D01*
X16698214Y-15463024D01*
X16669643Y-15448739D01*
X16941071Y-15434453D02*
X16955357Y-15448739D01*
X16941071Y-15463024D01*
X16926786Y-15448739D01*
X16941071Y-15434453D01*
X16941071Y-15463024D01*
X16941071Y-15277310D02*
X16955357Y-15291596D01*
X16941071Y-15305881D01*
X16926786Y-15291596D01*
X16941071Y-15277310D01*
X16941071Y-15305881D01*
M02*
