%FSLAX45Y45*%
G04 Gerber Fmt 4.5, Leading zero omitted, Abs format (unit mm)*
G04 Created by KiCad (PCBNEW 5.1.10-88a1d61d58~88~ubuntu18.04.1) date 2021-06-14 13:50:45*
%MOMM*%
%LPD*%
G01*
G04 APERTURE LIST*
%TA.AperFunction,Profile*%
%ADD10C,0.150000*%
%TD*%
%ADD11C,0.200000*%
%ADD12C,0.300000*%
G04 APERTURE END LIST*
D10*
X15118080Y-14989810D02*
G75*
G02*
X14605000Y-14476730I0J513080D01*
G01*
X22611080Y-14458950D02*
G75*
G02*
X22089110Y-14980920I-521970J0D01*
G01*
X22095410Y-9387866D02*
G75*
G02*
X22613620Y-9900920I5131J-513054D01*
G01*
X14605000Y-9398000D02*
X22105620Y-9387840D01*
X14608810Y-14479270D02*
X14605000Y-9398000D01*
X22091650Y-14980920D02*
X15119350Y-14989810D01*
X22616160Y-9903460D02*
X22613620Y-14461490D01*
D11*
X17333200Y-13142200D02*
X17363200Y-13172200D01*
X17363200Y-13142200D02*
X17333200Y-13172200D01*
X18476200Y-10830800D02*
X18506200Y-10860800D01*
X18506200Y-10830800D02*
X18476200Y-10860800D01*
X19009600Y-12558000D02*
X19039600Y-12588000D01*
X19039600Y-12558000D02*
X19009600Y-12588000D01*
X19009600Y-12888199D02*
X19039600Y-12918199D01*
X19039600Y-12888199D02*
X19009600Y-12918199D01*
X20076400Y-10424400D02*
X20106400Y-10454400D01*
X20106400Y-10424400D02*
X20076400Y-10454400D01*
X20178000Y-11516600D02*
X20208000Y-11546600D01*
X20208000Y-11516600D02*
X20178000Y-11546600D01*
X20762200Y-11516600D02*
X20792200Y-11546600D01*
X20792200Y-11516600D02*
X20762200Y-11546600D01*
X15607500Y-9906000D02*
G75*
G03*
X15607500Y-9906000I-50000J0D01*
G01*
X15861500Y-9906000D02*
G75*
G03*
X15861500Y-9906000I-50000J0D01*
G01*
X16032950Y-12261850D02*
G75*
G03*
X16032950Y-12261850I-50000J0D01*
G01*
X16115500Y-9906000D02*
G75*
G03*
X16115500Y-9906000I-50000J0D01*
G01*
X16153600Y-13868400D02*
G75*
G03*
X16153600Y-13868400I-50000J0D01*
G01*
X16369500Y-9906000D02*
G75*
G03*
X16369500Y-9906000I-50000J0D01*
G01*
X16407600Y-13868400D02*
G75*
G03*
X16407600Y-13868400I-50000J0D01*
G01*
X16623500Y-9906000D02*
G75*
G03*
X16623500Y-9906000I-50000J0D01*
G01*
X16661600Y-13868400D02*
G75*
G03*
X16661600Y-13868400I-50000J0D01*
G01*
X16877500Y-9906000D02*
G75*
G03*
X16877500Y-9906000I-50000J0D01*
G01*
X17131500Y-9906000D02*
G75*
G03*
X17131500Y-9906000I-50000J0D01*
G01*
X17296600Y-13868400D02*
G75*
G03*
X17296600Y-13868400I-50000J0D01*
G01*
X17385500Y-9906000D02*
G75*
G03*
X17385500Y-9906000I-50000J0D01*
G01*
X17550600Y-13868400D02*
G75*
G03*
X17550600Y-13868400I-50000J0D01*
G01*
X17639500Y-9906000D02*
G75*
G03*
X17639500Y-9906000I-50000J0D01*
G01*
X17804600Y-13868400D02*
G75*
G03*
X17804600Y-13868400I-50000J0D01*
G01*
X17893500Y-9906000D02*
G75*
G03*
X17893500Y-9906000I-50000J0D01*
G01*
X18058600Y-13868400D02*
G75*
G03*
X18058600Y-13868400I-50000J0D01*
G01*
X18147500Y-9906000D02*
G75*
G03*
X18147500Y-9906000I-50000J0D01*
G01*
X18312600Y-13868400D02*
G75*
G03*
X18312600Y-13868400I-50000J0D01*
G01*
X18401500Y-9906000D02*
G75*
G03*
X18401500Y-9906000I-50000J0D01*
G01*
X18566600Y-13868400D02*
G75*
G03*
X18566600Y-13868400I-50000J0D01*
G01*
X18655500Y-9906000D02*
G75*
G03*
X18655500Y-9906000I-50000J0D01*
G01*
X18909500Y-9906000D02*
G75*
G03*
X18909500Y-9906000I-50000J0D01*
G01*
X19163500Y-9906000D02*
G75*
G03*
X19163500Y-9906000I-50000J0D01*
G01*
X19417500Y-9906000D02*
G75*
G03*
X19417500Y-9906000I-50000J0D01*
G01*
X19671500Y-9906000D02*
G75*
G03*
X19671500Y-9906000I-50000J0D01*
G01*
X19925500Y-9906000D02*
G75*
G03*
X19925500Y-9906000I-50000J0D01*
G01*
X21614600Y-10439400D02*
G75*
G03*
X21614600Y-10439400I-50000J0D01*
G01*
X21614600Y-10693400D02*
G75*
G03*
X21614600Y-10693400I-50000J0D01*
G01*
X21614600Y-10947400D02*
G75*
G03*
X21614600Y-10947400I-50000J0D01*
G01*
X21614600Y-11201400D02*
G75*
G03*
X21614600Y-11201400I-50000J0D01*
G01*
X21614600Y-11455400D02*
G75*
G03*
X21614600Y-11455400I-50000J0D01*
G01*
X21614600Y-11709400D02*
G75*
G03*
X21614600Y-11709400I-50000J0D01*
G01*
D12*
X14883928Y-15463024D02*
X14883928Y-15163024D01*
X14955357Y-15163024D01*
X14998214Y-15177310D01*
X15026786Y-15205881D01*
X15041071Y-15234453D01*
X15055357Y-15291596D01*
X15055357Y-15334453D01*
X15041071Y-15391596D01*
X15026786Y-15420167D01*
X14998214Y-15448739D01*
X14955357Y-15463024D01*
X14883928Y-15463024D01*
X15183928Y-15463024D02*
X15183928Y-15263024D01*
X15183928Y-15320167D02*
X15198214Y-15291596D01*
X15212500Y-15277310D01*
X15241071Y-15263024D01*
X15269643Y-15263024D01*
X15369643Y-15463024D02*
X15369643Y-15263024D01*
X15369643Y-15163024D02*
X15355357Y-15177310D01*
X15369643Y-15191596D01*
X15383928Y-15177310D01*
X15369643Y-15163024D01*
X15369643Y-15191596D01*
X15555357Y-15463024D02*
X15526786Y-15448739D01*
X15512500Y-15420167D01*
X15512500Y-15163024D01*
X15712500Y-15463024D02*
X15683928Y-15448739D01*
X15669643Y-15420167D01*
X15669643Y-15163024D01*
X16055357Y-15463024D02*
X16055357Y-15163024D01*
X16155357Y-15377310D01*
X16255357Y-15163024D01*
X16255357Y-15463024D01*
X16526786Y-15463024D02*
X16526786Y-15305881D01*
X16512500Y-15277310D01*
X16483928Y-15263024D01*
X16426786Y-15263024D01*
X16398214Y-15277310D01*
X16526786Y-15448739D02*
X16498214Y-15463024D01*
X16426786Y-15463024D01*
X16398214Y-15448739D01*
X16383928Y-15420167D01*
X16383928Y-15391596D01*
X16398214Y-15363024D01*
X16426786Y-15348739D01*
X16498214Y-15348739D01*
X16526786Y-15334453D01*
X16669643Y-15263024D02*
X16669643Y-15563024D01*
X16669643Y-15277310D02*
X16698214Y-15263024D01*
X16755357Y-15263024D01*
X16783928Y-15277310D01*
X16798214Y-15291596D01*
X16812500Y-15320167D01*
X16812500Y-15405881D01*
X16798214Y-15434453D01*
X16783928Y-15448739D01*
X16755357Y-15463024D01*
X16698214Y-15463024D01*
X16669643Y-15448739D01*
X16941071Y-15434453D02*
X16955357Y-15448739D01*
X16941071Y-15463024D01*
X16926786Y-15448739D01*
X16941071Y-15434453D01*
X16941071Y-15463024D01*
X16941071Y-15277310D02*
X16955357Y-15291596D01*
X16941071Y-15305881D01*
X16926786Y-15291596D01*
X16941071Y-15277310D01*
X16941071Y-15305881D01*
X14567500Y-15942310D02*
X14597500Y-15972310D01*
X14597500Y-15942310D02*
X14567500Y-15972310D01*
X14941071Y-15793024D02*
X14969643Y-15793024D01*
X14998214Y-15807310D01*
X15012500Y-15821596D01*
X15026786Y-15850167D01*
X15041071Y-15907310D01*
X15041071Y-15978739D01*
X15026786Y-16035881D01*
X15012500Y-16064453D01*
X14998214Y-16078739D01*
X14969643Y-16093024D01*
X14941071Y-16093024D01*
X14912500Y-16078739D01*
X14898214Y-16064453D01*
X14883928Y-16035881D01*
X14869643Y-15978739D01*
X14869643Y-15907310D01*
X14883928Y-15850167D01*
X14898214Y-15821596D01*
X14912500Y-15807310D01*
X14941071Y-15793024D01*
X15169643Y-16064453D02*
X15183928Y-16078739D01*
X15169643Y-16093024D01*
X15155357Y-16078739D01*
X15169643Y-16064453D01*
X15169643Y-16093024D01*
X15283928Y-15793024D02*
X15469643Y-15793024D01*
X15369643Y-15907310D01*
X15412500Y-15907310D01*
X15441071Y-15921596D01*
X15455357Y-15935881D01*
X15469643Y-15964453D01*
X15469643Y-16035881D01*
X15455357Y-16064453D01*
X15441071Y-16078739D01*
X15412500Y-16093024D01*
X15326786Y-16093024D01*
X15298214Y-16078739D01*
X15283928Y-16064453D01*
X15655357Y-15793024D02*
X15683928Y-15793024D01*
X15712500Y-15807310D01*
X15726786Y-15821596D01*
X15741071Y-15850167D01*
X15755357Y-15907310D01*
X15755357Y-15978739D01*
X15741071Y-16035881D01*
X15726786Y-16064453D01*
X15712500Y-16078739D01*
X15683928Y-16093024D01*
X15655357Y-16093024D01*
X15626786Y-16078739D01*
X15612500Y-16064453D01*
X15598214Y-16035881D01*
X15583928Y-15978739D01*
X15583928Y-15907310D01*
X15598214Y-15850167D01*
X15612500Y-15821596D01*
X15626786Y-15807310D01*
X15655357Y-15793024D01*
X15941071Y-15793024D02*
X15969643Y-15793024D01*
X15998214Y-15807310D01*
X16012500Y-15821596D01*
X16026786Y-15850167D01*
X16041071Y-15907310D01*
X16041071Y-15978739D01*
X16026786Y-16035881D01*
X16012500Y-16064453D01*
X15998214Y-16078739D01*
X15969643Y-16093024D01*
X15941071Y-16093024D01*
X15912500Y-16078739D01*
X15898214Y-16064453D01*
X15883928Y-16035881D01*
X15869643Y-15978739D01*
X15869643Y-15907310D01*
X15883928Y-15850167D01*
X15898214Y-15821596D01*
X15912500Y-15807310D01*
X15941071Y-15793024D01*
X16169643Y-16093024D02*
X16169643Y-15893024D01*
X16169643Y-15921596D02*
X16183928Y-15907310D01*
X16212500Y-15893024D01*
X16255357Y-15893024D01*
X16283928Y-15907310D01*
X16298214Y-15935881D01*
X16298214Y-16093024D01*
X16298214Y-15935881D02*
X16312500Y-15907310D01*
X16341071Y-15893024D01*
X16383928Y-15893024D01*
X16412500Y-15907310D01*
X16426786Y-15935881D01*
X16426786Y-16093024D01*
X16569643Y-16093024D02*
X16569643Y-15893024D01*
X16569643Y-15921596D02*
X16583928Y-15907310D01*
X16612500Y-15893024D01*
X16655357Y-15893024D01*
X16683928Y-15907310D01*
X16698214Y-15935881D01*
X16698214Y-16093024D01*
X16698214Y-15935881D02*
X16712500Y-15907310D01*
X16741071Y-15893024D01*
X16783928Y-15893024D01*
X16812500Y-15907310D01*
X16826786Y-15935881D01*
X16826786Y-16093024D01*
X17412500Y-15778739D02*
X17155357Y-16164453D01*
X17798214Y-15793024D02*
X17826786Y-15793024D01*
X17855357Y-15807310D01*
X17869643Y-15821596D01*
X17883928Y-15850167D01*
X17898214Y-15907310D01*
X17898214Y-15978739D01*
X17883928Y-16035881D01*
X17869643Y-16064453D01*
X17855357Y-16078739D01*
X17826786Y-16093024D01*
X17798214Y-16093024D01*
X17769643Y-16078739D01*
X17755357Y-16064453D01*
X17741071Y-16035881D01*
X17726786Y-15978739D01*
X17726786Y-15907310D01*
X17741071Y-15850167D01*
X17755357Y-15821596D01*
X17769643Y-15807310D01*
X17798214Y-15793024D01*
X18026786Y-16064453D02*
X18041071Y-16078739D01*
X18026786Y-16093024D01*
X18012500Y-16078739D01*
X18026786Y-16064453D01*
X18026786Y-16093024D01*
X18226786Y-15793024D02*
X18255357Y-15793024D01*
X18283928Y-15807310D01*
X18298214Y-15821596D01*
X18312500Y-15850167D01*
X18326786Y-15907310D01*
X18326786Y-15978739D01*
X18312500Y-16035881D01*
X18298214Y-16064453D01*
X18283928Y-16078739D01*
X18255357Y-16093024D01*
X18226786Y-16093024D01*
X18198214Y-16078739D01*
X18183928Y-16064453D01*
X18169643Y-16035881D01*
X18155357Y-15978739D01*
X18155357Y-15907310D01*
X18169643Y-15850167D01*
X18183928Y-15821596D01*
X18198214Y-15807310D01*
X18226786Y-15793024D01*
X18612500Y-16093024D02*
X18441071Y-16093024D01*
X18526786Y-16093024D02*
X18526786Y-15793024D01*
X18498214Y-15835881D01*
X18469643Y-15864453D01*
X18441071Y-15878739D01*
X18898214Y-16093024D02*
X18726786Y-16093024D01*
X18812500Y-16093024D02*
X18812500Y-15793024D01*
X18783928Y-15835881D01*
X18755357Y-15864453D01*
X18726786Y-15878739D01*
X19069643Y-15921596D02*
X19041071Y-15907310D01*
X19026786Y-15893024D01*
X19012500Y-15864453D01*
X19012500Y-15850167D01*
X19026786Y-15821596D01*
X19041071Y-15807310D01*
X19069643Y-15793024D01*
X19126786Y-15793024D01*
X19155357Y-15807310D01*
X19169643Y-15821596D01*
X19183928Y-15850167D01*
X19183928Y-15864453D01*
X19169643Y-15893024D01*
X19155357Y-15907310D01*
X19126786Y-15921596D01*
X19069643Y-15921596D01*
X19041071Y-15935881D01*
X19026786Y-15950167D01*
X19012500Y-15978739D01*
X19012500Y-16035881D01*
X19026786Y-16064453D01*
X19041071Y-16078739D01*
X19069643Y-16093024D01*
X19126786Y-16093024D01*
X19155357Y-16078739D01*
X19169643Y-16064453D01*
X19183928Y-16035881D01*
X19183928Y-15978739D01*
X19169643Y-15950167D01*
X19155357Y-15935881D01*
X19126786Y-15921596D01*
X19298214Y-15793024D02*
X19298214Y-15850167D01*
X19412500Y-15793024D02*
X19412500Y-15850167D01*
X19855357Y-16207310D02*
X19841071Y-16193024D01*
X19812500Y-16150167D01*
X19798214Y-16121596D01*
X19783928Y-16078739D01*
X19769643Y-16007310D01*
X19769643Y-15950167D01*
X19783928Y-15878739D01*
X19798214Y-15835881D01*
X19812500Y-15807310D01*
X19841071Y-15764453D01*
X19855357Y-15750167D01*
X19941071Y-15793024D02*
X20141071Y-15793024D01*
X20012500Y-16093024D01*
X20483928Y-16093024D02*
X20483928Y-15793024D01*
X20612500Y-16093024D02*
X20612500Y-15935881D01*
X20598214Y-15907310D01*
X20569643Y-15893024D01*
X20526786Y-15893024D01*
X20498214Y-15907310D01*
X20483928Y-15921596D01*
X20798214Y-16093024D02*
X20769643Y-16078739D01*
X20755357Y-16064453D01*
X20741071Y-16035881D01*
X20741071Y-15950167D01*
X20755357Y-15921596D01*
X20769643Y-15907310D01*
X20798214Y-15893024D01*
X20841071Y-15893024D01*
X20869643Y-15907310D01*
X20883928Y-15921596D01*
X20898214Y-15950167D01*
X20898214Y-16035881D01*
X20883928Y-16064453D01*
X20869643Y-16078739D01*
X20841071Y-16093024D01*
X20798214Y-16093024D01*
X21069643Y-16093024D02*
X21041071Y-16078739D01*
X21026786Y-16050167D01*
X21026786Y-15793024D01*
X21298214Y-16078739D02*
X21269643Y-16093024D01*
X21212500Y-16093024D01*
X21183928Y-16078739D01*
X21169643Y-16050167D01*
X21169643Y-15935881D01*
X21183928Y-15907310D01*
X21212500Y-15893024D01*
X21269643Y-15893024D01*
X21298214Y-15907310D01*
X21312500Y-15935881D01*
X21312500Y-15964453D01*
X21169643Y-15993024D01*
X21426786Y-16078739D02*
X21455357Y-16093024D01*
X21512500Y-16093024D01*
X21541071Y-16078739D01*
X21555357Y-16050167D01*
X21555357Y-16035881D01*
X21541071Y-16007310D01*
X21512500Y-15993024D01*
X21469643Y-15993024D01*
X21441071Y-15978739D01*
X21426786Y-15950167D01*
X21426786Y-15935881D01*
X21441071Y-15907310D01*
X21469643Y-15893024D01*
X21512500Y-15893024D01*
X21541071Y-15907310D01*
X21655357Y-16207310D02*
X21669643Y-16193024D01*
X21698214Y-16150167D01*
X21712500Y-16121596D01*
X21726786Y-16078739D01*
X21741071Y-16007310D01*
X21741071Y-15950167D01*
X21726786Y-15878739D01*
X21712500Y-15835881D01*
X21698214Y-15807310D01*
X21669643Y-15764453D01*
X21655357Y-15750167D01*
X14597500Y-16353310D02*
G75*
G03*
X14597500Y-16353310I-50000J0D01*
G01*
X15041071Y-16489024D02*
X14869643Y-16489024D01*
X14955357Y-16489024D02*
X14955357Y-16189024D01*
X14926786Y-16231881D01*
X14898214Y-16260453D01*
X14869643Y-16274739D01*
X15169643Y-16460453D02*
X15183928Y-16474739D01*
X15169643Y-16489024D01*
X15155357Y-16474739D01*
X15169643Y-16460453D01*
X15169643Y-16489024D01*
X15369643Y-16189024D02*
X15398214Y-16189024D01*
X15426786Y-16203310D01*
X15441071Y-16217596D01*
X15455357Y-16246167D01*
X15469643Y-16303310D01*
X15469643Y-16374739D01*
X15455357Y-16431881D01*
X15441071Y-16460453D01*
X15426786Y-16474739D01*
X15398214Y-16489024D01*
X15369643Y-16489024D01*
X15341071Y-16474739D01*
X15326786Y-16460453D01*
X15312500Y-16431881D01*
X15298214Y-16374739D01*
X15298214Y-16303310D01*
X15312500Y-16246167D01*
X15326786Y-16217596D01*
X15341071Y-16203310D01*
X15369643Y-16189024D01*
X15655357Y-16189024D02*
X15683928Y-16189024D01*
X15712500Y-16203310D01*
X15726786Y-16217596D01*
X15741071Y-16246167D01*
X15755357Y-16303310D01*
X15755357Y-16374739D01*
X15741071Y-16431881D01*
X15726786Y-16460453D01*
X15712500Y-16474739D01*
X15683928Y-16489024D01*
X15655357Y-16489024D01*
X15626786Y-16474739D01*
X15612500Y-16460453D01*
X15598214Y-16431881D01*
X15583928Y-16374739D01*
X15583928Y-16303310D01*
X15598214Y-16246167D01*
X15612500Y-16217596D01*
X15626786Y-16203310D01*
X15655357Y-16189024D01*
X15941071Y-16189024D02*
X15969643Y-16189024D01*
X15998214Y-16203310D01*
X16012500Y-16217596D01*
X16026786Y-16246167D01*
X16041071Y-16303310D01*
X16041071Y-16374739D01*
X16026786Y-16431881D01*
X16012500Y-16460453D01*
X15998214Y-16474739D01*
X15969643Y-16489024D01*
X15941071Y-16489024D01*
X15912500Y-16474739D01*
X15898214Y-16460453D01*
X15883928Y-16431881D01*
X15869643Y-16374739D01*
X15869643Y-16303310D01*
X15883928Y-16246167D01*
X15898214Y-16217596D01*
X15912500Y-16203310D01*
X15941071Y-16189024D01*
X16169643Y-16489024D02*
X16169643Y-16289024D01*
X16169643Y-16317596D02*
X16183928Y-16303310D01*
X16212500Y-16289024D01*
X16255357Y-16289024D01*
X16283928Y-16303310D01*
X16298214Y-16331881D01*
X16298214Y-16489024D01*
X16298214Y-16331881D02*
X16312500Y-16303310D01*
X16341071Y-16289024D01*
X16383928Y-16289024D01*
X16412500Y-16303310D01*
X16426786Y-16331881D01*
X16426786Y-16489024D01*
X16569643Y-16489024D02*
X16569643Y-16289024D01*
X16569643Y-16317596D02*
X16583928Y-16303310D01*
X16612500Y-16289024D01*
X16655357Y-16289024D01*
X16683928Y-16303310D01*
X16698214Y-16331881D01*
X16698214Y-16489024D01*
X16698214Y-16331881D02*
X16712500Y-16303310D01*
X16741071Y-16289024D01*
X16783928Y-16289024D01*
X16812500Y-16303310D01*
X16826786Y-16331881D01*
X16826786Y-16489024D01*
X17412500Y-16174739D02*
X17155357Y-16560453D01*
X17798214Y-16189024D02*
X17826786Y-16189024D01*
X17855357Y-16203310D01*
X17869643Y-16217596D01*
X17883928Y-16246167D01*
X17898214Y-16303310D01*
X17898214Y-16374739D01*
X17883928Y-16431881D01*
X17869643Y-16460453D01*
X17855357Y-16474739D01*
X17826786Y-16489024D01*
X17798214Y-16489024D01*
X17769643Y-16474739D01*
X17755357Y-16460453D01*
X17741071Y-16431881D01*
X17726786Y-16374739D01*
X17726786Y-16303310D01*
X17741071Y-16246167D01*
X17755357Y-16217596D01*
X17769643Y-16203310D01*
X17798214Y-16189024D01*
X18026786Y-16460453D02*
X18041071Y-16474739D01*
X18026786Y-16489024D01*
X18012500Y-16474739D01*
X18026786Y-16460453D01*
X18026786Y-16489024D01*
X18226786Y-16189024D02*
X18255357Y-16189024D01*
X18283928Y-16203310D01*
X18298214Y-16217596D01*
X18312500Y-16246167D01*
X18326786Y-16303310D01*
X18326786Y-16374739D01*
X18312500Y-16431881D01*
X18298214Y-16460453D01*
X18283928Y-16474739D01*
X18255357Y-16489024D01*
X18226786Y-16489024D01*
X18198214Y-16474739D01*
X18183928Y-16460453D01*
X18169643Y-16431881D01*
X18155357Y-16374739D01*
X18155357Y-16303310D01*
X18169643Y-16246167D01*
X18183928Y-16217596D01*
X18198214Y-16203310D01*
X18226786Y-16189024D01*
X18426786Y-16189024D02*
X18612500Y-16189024D01*
X18512500Y-16303310D01*
X18555357Y-16303310D01*
X18583928Y-16317596D01*
X18598214Y-16331881D01*
X18612500Y-16360453D01*
X18612500Y-16431881D01*
X18598214Y-16460453D01*
X18583928Y-16474739D01*
X18555357Y-16489024D01*
X18469643Y-16489024D01*
X18441071Y-16474739D01*
X18426786Y-16460453D01*
X18755357Y-16489024D02*
X18812500Y-16489024D01*
X18841071Y-16474739D01*
X18855357Y-16460453D01*
X18883928Y-16417596D01*
X18898214Y-16360453D01*
X18898214Y-16246167D01*
X18883928Y-16217596D01*
X18869643Y-16203310D01*
X18841071Y-16189024D01*
X18783928Y-16189024D01*
X18755357Y-16203310D01*
X18741071Y-16217596D01*
X18726786Y-16246167D01*
X18726786Y-16317596D01*
X18741071Y-16346167D01*
X18755357Y-16360453D01*
X18783928Y-16374739D01*
X18841071Y-16374739D01*
X18869643Y-16360453D01*
X18883928Y-16346167D01*
X18898214Y-16317596D01*
X19155357Y-16289024D02*
X19155357Y-16489024D01*
X19083928Y-16174739D02*
X19012500Y-16389024D01*
X19198214Y-16389024D01*
X19298214Y-16189024D02*
X19298214Y-16246167D01*
X19412500Y-16189024D02*
X19412500Y-16246167D01*
X19855357Y-16603310D02*
X19841071Y-16589024D01*
X19812500Y-16546167D01*
X19798214Y-16517596D01*
X19783928Y-16474739D01*
X19769643Y-16403310D01*
X19769643Y-16346167D01*
X19783928Y-16274739D01*
X19798214Y-16231881D01*
X19812500Y-16203310D01*
X19841071Y-16160453D01*
X19855357Y-16146167D01*
X19941071Y-16189024D02*
X20126786Y-16189024D01*
X20026786Y-16303310D01*
X20069643Y-16303310D01*
X20098214Y-16317596D01*
X20112500Y-16331881D01*
X20126786Y-16360453D01*
X20126786Y-16431881D01*
X20112500Y-16460453D01*
X20098214Y-16474739D01*
X20069643Y-16489024D01*
X19983928Y-16489024D01*
X19955357Y-16474739D01*
X19941071Y-16460453D01*
X20383928Y-16289024D02*
X20383928Y-16489024D01*
X20312500Y-16174739D02*
X20241071Y-16389024D01*
X20426786Y-16389024D01*
X20769643Y-16489024D02*
X20769643Y-16189024D01*
X20898214Y-16489024D02*
X20898214Y-16331881D01*
X20883928Y-16303310D01*
X20855357Y-16289024D01*
X20812500Y-16289024D01*
X20783928Y-16303310D01*
X20769643Y-16317596D01*
X21083928Y-16489024D02*
X21055357Y-16474739D01*
X21041071Y-16460453D01*
X21026786Y-16431881D01*
X21026786Y-16346167D01*
X21041071Y-16317596D01*
X21055357Y-16303310D01*
X21083928Y-16289024D01*
X21126786Y-16289024D01*
X21155357Y-16303310D01*
X21169643Y-16317596D01*
X21183928Y-16346167D01*
X21183928Y-16431881D01*
X21169643Y-16460453D01*
X21155357Y-16474739D01*
X21126786Y-16489024D01*
X21083928Y-16489024D01*
X21355357Y-16489024D02*
X21326786Y-16474739D01*
X21312500Y-16446167D01*
X21312500Y-16189024D01*
X21583928Y-16474739D02*
X21555357Y-16489024D01*
X21498214Y-16489024D01*
X21469643Y-16474739D01*
X21455357Y-16446167D01*
X21455357Y-16331881D01*
X21469643Y-16303310D01*
X21498214Y-16289024D01*
X21555357Y-16289024D01*
X21583928Y-16303310D01*
X21598214Y-16331881D01*
X21598214Y-16360453D01*
X21455357Y-16389024D01*
X21712500Y-16474739D02*
X21741071Y-16489024D01*
X21798214Y-16489024D01*
X21826786Y-16474739D01*
X21841071Y-16446167D01*
X21841071Y-16431881D01*
X21826786Y-16403310D01*
X21798214Y-16389024D01*
X21755357Y-16389024D01*
X21726786Y-16374739D01*
X21712500Y-16346167D01*
X21712500Y-16331881D01*
X21726786Y-16303310D01*
X21755357Y-16289024D01*
X21798214Y-16289024D01*
X21826786Y-16303310D01*
X21941071Y-16603310D02*
X21955357Y-16589024D01*
X21983928Y-16546167D01*
X21998214Y-16517596D01*
X22012500Y-16474739D01*
X22026786Y-16403310D01*
X22026786Y-16346167D01*
X22012500Y-16274739D01*
X21998214Y-16231881D01*
X21983928Y-16203310D01*
X21955357Y-16160453D01*
X21941071Y-16146167D01*
M02*
