%TF.GenerationSoftware,KiCad,Pcbnew,(5.1.9-0-10_14)*%
%TF.CreationDate,2021-04-13T22:01:43-04:00*%
%TF.ProjectId,Xilinx_XC9536XL_EVB,58696c69-6e78-45f5-9843-39353336584c,rev?*%
%TF.SameCoordinates,Original*%
%TF.FileFunction,Legend,Top*%
%TF.FilePolarity,Positive*%
%FSLAX46Y46*%
G04 Gerber Fmt 4.6, Leading zero omitted, Abs format (unit mm)*
G04 Created by KiCad (PCBNEW (5.1.9-0-10_14)) date 2021-04-13 22:01:43*
%MOMM*%
%LPD*%
G01*
G04 APERTURE LIST*
%ADD10C,0.254000*%
%ADD11C,0.203200*%
%ADD12C,0.381000*%
%ADD13C,0.508000*%
%ADD14C,0.190500*%
%ADD15C,0.304800*%
%ADD16C,0.127000*%
%ADD17C,0.152400*%
%ADD18C,0.285750*%
%ADD19C,0.287020*%
%ADD20C,0.271780*%
%ADD21C,0.150000*%
G04 APERTURE END LIST*
D10*
X81280000Y-72390000D02*
X81280000Y-76200000D01*
X83820000Y-71120000D02*
X83820000Y-72390000D01*
X85725000Y-60325000D02*
X85725000Y-70485000D01*
X83820000Y-58420000D02*
X83820000Y-59690000D01*
X81280000Y-54610000D02*
X81280000Y-58420000D01*
X78740000Y-76200000D02*
X78740000Y-54610000D01*
X83820000Y-71120000D02*
G75*
G03*
X85725000Y-70485000I635000J1270000D01*
G01*
X81280000Y-72390000D02*
G75*
G03*
X83820000Y-72390000I1270000J1270000D01*
G01*
X78740000Y-76200000D02*
G75*
G03*
X81280000Y-76200000I1270000J1270000D01*
G01*
X85725000Y-60325000D02*
G75*
G03*
X83820000Y-59690000I-1270000J-635000D01*
G01*
X83820000Y-58420000D02*
G75*
G03*
X81280000Y-58420000I-1270000J-1270000D01*
G01*
X81280000Y-54610000D02*
G75*
G03*
X78740000Y-54610000I-1270000J-1270000D01*
G01*
D11*
X76686228Y-75353333D02*
X78210228Y-74506666D01*
X76686228Y-74506666D02*
X78210228Y-75353333D01*
X78210228Y-74022857D02*
X77194228Y-74022857D01*
X76686228Y-74022857D02*
X76758800Y-74083333D01*
X76831371Y-74022857D01*
X76758800Y-73962380D01*
X76686228Y-74022857D01*
X76831371Y-74022857D01*
X78210228Y-73236666D02*
X78137657Y-73357619D01*
X77992514Y-73418095D01*
X76686228Y-73418095D01*
X78210228Y-72752857D02*
X77194228Y-72752857D01*
X76686228Y-72752857D02*
X76758800Y-72813333D01*
X76831371Y-72752857D01*
X76758800Y-72692380D01*
X76686228Y-72752857D01*
X76831371Y-72752857D01*
X77194228Y-72148095D02*
X78210228Y-72148095D01*
X77339371Y-72148095D02*
X77266800Y-72087619D01*
X77194228Y-71966666D01*
X77194228Y-71785238D01*
X77266800Y-71664285D01*
X77411942Y-71603809D01*
X78210228Y-71603809D01*
X78210228Y-71120000D02*
X77194228Y-70454761D01*
X77194228Y-71120000D02*
X78210228Y-70454761D01*
X76686228Y-69124285D02*
X78210228Y-68277619D01*
X76686228Y-68277619D02*
X78210228Y-69124285D01*
X78065085Y-67068095D02*
X78137657Y-67128571D01*
X78210228Y-67310000D01*
X78210228Y-67430952D01*
X78137657Y-67612380D01*
X77992514Y-67733333D01*
X77847371Y-67793809D01*
X77557085Y-67854285D01*
X77339371Y-67854285D01*
X77049085Y-67793809D01*
X76903942Y-67733333D01*
X76758800Y-67612380D01*
X76686228Y-67430952D01*
X76686228Y-67310000D01*
X76758800Y-67128571D01*
X76831371Y-67068095D01*
X78210228Y-66463333D02*
X78210228Y-66221428D01*
X78137657Y-66100476D01*
X78065085Y-66040000D01*
X77847371Y-65919047D01*
X77557085Y-65858571D01*
X76976514Y-65858571D01*
X76831371Y-65919047D01*
X76758800Y-65979523D01*
X76686228Y-66100476D01*
X76686228Y-66342380D01*
X76758800Y-66463333D01*
X76831371Y-66523809D01*
X76976514Y-66584285D01*
X77339371Y-66584285D01*
X77484514Y-66523809D01*
X77557085Y-66463333D01*
X77629657Y-66342380D01*
X77629657Y-66100476D01*
X77557085Y-65979523D01*
X77484514Y-65919047D01*
X77339371Y-65858571D01*
X76686228Y-64709523D02*
X76686228Y-65314285D01*
X77411942Y-65374761D01*
X77339371Y-65314285D01*
X77266800Y-65193333D01*
X77266800Y-64890952D01*
X77339371Y-64770000D01*
X77411942Y-64709523D01*
X77557085Y-64649047D01*
X77919942Y-64649047D01*
X78065085Y-64709523D01*
X78137657Y-64770000D01*
X78210228Y-64890952D01*
X78210228Y-65193333D01*
X78137657Y-65314285D01*
X78065085Y-65374761D01*
X76686228Y-64225714D02*
X76686228Y-63439523D01*
X77266800Y-63862857D01*
X77266800Y-63681428D01*
X77339371Y-63560476D01*
X77411942Y-63500000D01*
X77557085Y-63439523D01*
X77919942Y-63439523D01*
X78065085Y-63500000D01*
X78137657Y-63560476D01*
X78210228Y-63681428D01*
X78210228Y-64044285D01*
X78137657Y-64165238D01*
X78065085Y-64225714D01*
X76686228Y-62350952D02*
X76686228Y-62592857D01*
X76758800Y-62713809D01*
X76831371Y-62774285D01*
X77049085Y-62895238D01*
X77339371Y-62955714D01*
X77919942Y-62955714D01*
X78065085Y-62895238D01*
X78137657Y-62834761D01*
X78210228Y-62713809D01*
X78210228Y-62471904D01*
X78137657Y-62350952D01*
X78065085Y-62290476D01*
X77919942Y-62230000D01*
X77557085Y-62230000D01*
X77411942Y-62290476D01*
X77339371Y-62350952D01*
X77266800Y-62471904D01*
X77266800Y-62713809D01*
X77339371Y-62834761D01*
X77411942Y-62895238D01*
X77557085Y-62955714D01*
X76686228Y-61806666D02*
X78210228Y-60960000D01*
X76686228Y-60960000D02*
X78210228Y-61806666D01*
X78210228Y-59871428D02*
X78210228Y-60476190D01*
X76686228Y-60476190D01*
X77411942Y-58480476D02*
X77411942Y-58057142D01*
X78210228Y-57875714D02*
X78210228Y-58480476D01*
X76686228Y-58480476D01*
X76686228Y-57875714D01*
X76686228Y-57512857D02*
X78210228Y-57089523D01*
X76686228Y-56666190D01*
X77411942Y-55819523D02*
X77484514Y-55638095D01*
X77557085Y-55577619D01*
X77702228Y-55517142D01*
X77919942Y-55517142D01*
X78065085Y-55577619D01*
X78137657Y-55638095D01*
X78210228Y-55759047D01*
X78210228Y-56242857D01*
X76686228Y-56242857D01*
X76686228Y-55819523D01*
X76758800Y-55698571D01*
X76831371Y-55638095D01*
X76976514Y-55577619D01*
X77121657Y-55577619D01*
X77266800Y-55638095D01*
X77339371Y-55698571D01*
X77411942Y-55819523D01*
X77411942Y-56242857D01*
X79320571Y-71724761D02*
X79248000Y-71664285D01*
X79175428Y-71543333D01*
X79175428Y-71240952D01*
X79248000Y-71120000D01*
X79320571Y-71059523D01*
X79465714Y-70999047D01*
X79610857Y-70999047D01*
X79828571Y-71059523D01*
X80699428Y-71785238D01*
X80699428Y-70999047D01*
X79175428Y-70575714D02*
X79175428Y-69789523D01*
X79756000Y-70212857D01*
X79756000Y-70031428D01*
X79828571Y-69910476D01*
X79901142Y-69850000D01*
X80046285Y-69789523D01*
X80409142Y-69789523D01*
X80554285Y-69850000D01*
X80626857Y-69910476D01*
X80699428Y-70031428D01*
X80699428Y-70394285D01*
X80626857Y-70515238D01*
X80554285Y-70575714D01*
X79901142Y-67854285D02*
X79901142Y-68277619D01*
X80699428Y-68277619D02*
X79175428Y-68277619D01*
X79175428Y-67672857D01*
X80626857Y-66705238D02*
X80699428Y-66826190D01*
X80699428Y-67068095D01*
X80626857Y-67189047D01*
X80481714Y-67249523D01*
X79901142Y-67249523D01*
X79756000Y-67189047D01*
X79683428Y-67068095D01*
X79683428Y-66826190D01*
X79756000Y-66705238D01*
X79901142Y-66644761D01*
X80046285Y-66644761D01*
X80191428Y-67249523D01*
X80699428Y-66100476D02*
X79175428Y-66100476D01*
X79756000Y-66100476D02*
X79683428Y-65979523D01*
X79683428Y-65737619D01*
X79756000Y-65616666D01*
X79828571Y-65556190D01*
X79973714Y-65495714D01*
X80409142Y-65495714D01*
X80554285Y-65556190D01*
X80626857Y-65616666D01*
X80699428Y-65737619D01*
X80699428Y-65979523D01*
X80626857Y-66100476D01*
X80554285Y-64951428D02*
X80626857Y-64890952D01*
X80699428Y-64951428D01*
X80626857Y-65011904D01*
X80554285Y-64951428D01*
X80699428Y-64951428D01*
X79320571Y-63439523D02*
X79248000Y-63379047D01*
X79175428Y-63258095D01*
X79175428Y-62955714D01*
X79248000Y-62834761D01*
X79320571Y-62774285D01*
X79465714Y-62713809D01*
X79610857Y-62713809D01*
X79828571Y-62774285D01*
X80699428Y-63500000D01*
X80699428Y-62713809D01*
X79175428Y-61927619D02*
X79175428Y-61806666D01*
X79248000Y-61685714D01*
X79320571Y-61625238D01*
X79465714Y-61564761D01*
X79756000Y-61504285D01*
X80118857Y-61504285D01*
X80409142Y-61564761D01*
X80554285Y-61625238D01*
X80626857Y-61685714D01*
X80699428Y-61806666D01*
X80699428Y-61927619D01*
X80626857Y-62048571D01*
X80554285Y-62109047D01*
X80409142Y-62169523D01*
X80118857Y-62230000D01*
X79756000Y-62230000D01*
X79465714Y-62169523D01*
X79320571Y-62109047D01*
X79248000Y-62048571D01*
X79175428Y-61927619D01*
X80699428Y-60294761D02*
X80699428Y-61020476D01*
X80699428Y-60657619D02*
X79175428Y-60657619D01*
X79393142Y-60778571D01*
X79538285Y-60899523D01*
X79610857Y-61020476D01*
X80699428Y-59085238D02*
X80699428Y-59810952D01*
X80699428Y-59448095D02*
X79175428Y-59448095D01*
X79393142Y-59569047D01*
X79538285Y-59690000D01*
X79610857Y-59810952D01*
X81664628Y-70273333D02*
X83188628Y-69970952D01*
X82100057Y-69729047D01*
X83188628Y-69487142D01*
X81664628Y-69184761D01*
X83043485Y-68700952D02*
X83116057Y-68640476D01*
X83188628Y-68700952D01*
X83116057Y-68761428D01*
X83043485Y-68700952D01*
X83188628Y-68700952D01*
X82753200Y-68156666D02*
X82753200Y-67551904D01*
X83188628Y-68277619D02*
X81664628Y-67854285D01*
X83188628Y-67430952D01*
X83043485Y-67007619D02*
X83116057Y-66947142D01*
X83188628Y-67007619D01*
X83116057Y-67068095D01*
X83043485Y-67007619D01*
X83188628Y-67007619D01*
X83116057Y-65495714D02*
X83188628Y-65314285D01*
X83188628Y-65011904D01*
X83116057Y-64890952D01*
X83043485Y-64830476D01*
X82898342Y-64770000D01*
X82753200Y-64770000D01*
X82608057Y-64830476D01*
X82535485Y-64890952D01*
X82462914Y-65011904D01*
X82390342Y-65253809D01*
X82317771Y-65374761D01*
X82245200Y-65435238D01*
X82100057Y-65495714D01*
X81954914Y-65495714D01*
X81809771Y-65435238D01*
X81737200Y-65374761D01*
X81664628Y-65253809D01*
X81664628Y-64951428D01*
X81737200Y-64770000D01*
X83188628Y-64225714D02*
X82172628Y-64225714D01*
X82317771Y-64225714D02*
X82245200Y-64165238D01*
X82172628Y-64044285D01*
X82172628Y-63862857D01*
X82245200Y-63741904D01*
X82390342Y-63681428D01*
X83188628Y-63681428D01*
X82390342Y-63681428D02*
X82245200Y-63620952D01*
X82172628Y-63500000D01*
X82172628Y-63318571D01*
X82245200Y-63197619D01*
X82390342Y-63137142D01*
X83188628Y-63137142D01*
X83188628Y-62532380D02*
X82172628Y-62532380D01*
X81664628Y-62532380D02*
X81737200Y-62592857D01*
X81809771Y-62532380D01*
X81737200Y-62471904D01*
X81664628Y-62532380D01*
X81809771Y-62532380D01*
X82172628Y-62109047D02*
X82172628Y-61625238D01*
X81664628Y-61927619D02*
X82970914Y-61927619D01*
X83116057Y-61867142D01*
X83188628Y-61746190D01*
X83188628Y-61625238D01*
X83188628Y-61201904D02*
X81664628Y-61201904D01*
X83188628Y-60657619D02*
X82390342Y-60657619D01*
X82245200Y-60718095D01*
X82172628Y-60839047D01*
X82172628Y-61020476D01*
X82245200Y-61141428D01*
X82317771Y-61201904D01*
D12*
X83820000Y-46990000D02*
X83820000Y-52070000D01*
X62230000Y-60325000D02*
X62230000Y-65405000D01*
X72390000Y-76200000D02*
X72390000Y-81280000D01*
X144780000Y-67310000D02*
X144780000Y-72390000D01*
X90170000Y-35560000D02*
X90170000Y-40640000D01*
D10*
X136525000Y-41910000D02*
X136525000Y-30480000D01*
X149225000Y-41910000D02*
X136525000Y-41910000D01*
X149225000Y-30480000D02*
X149225000Y-41910000D01*
X136525000Y-30480000D02*
X149225000Y-30480000D01*
D11*
X137988523Y-38282638D02*
X138133666Y-38331019D01*
X138375571Y-38331019D01*
X138472333Y-38282638D01*
X138520714Y-38234257D01*
X138569095Y-38137495D01*
X138569095Y-38040733D01*
X138520714Y-37943971D01*
X138472333Y-37895590D01*
X138375571Y-37847209D01*
X138182047Y-37798828D01*
X138085285Y-37750447D01*
X138036904Y-37702066D01*
X137988523Y-37605304D01*
X137988523Y-37508542D01*
X138036904Y-37411780D01*
X138085285Y-37363400D01*
X138182047Y-37315019D01*
X138423952Y-37315019D01*
X138569095Y-37363400D01*
X138907761Y-37315019D02*
X139149666Y-38331019D01*
X139343190Y-37605304D01*
X139536714Y-38331019D01*
X139778619Y-37315019D01*
X140165666Y-38331019D02*
X140165666Y-37315019D01*
X140504333Y-37315019D02*
X141084904Y-37315019D01*
X140794619Y-38331019D02*
X140794619Y-37315019D01*
X142004142Y-38234257D02*
X141955761Y-38282638D01*
X141810619Y-38331019D01*
X141713857Y-38331019D01*
X141568714Y-38282638D01*
X141471952Y-38185876D01*
X141423571Y-38089114D01*
X141375190Y-37895590D01*
X141375190Y-37750447D01*
X141423571Y-37556923D01*
X141471952Y-37460161D01*
X141568714Y-37363400D01*
X141713857Y-37315019D01*
X141810619Y-37315019D01*
X141955761Y-37363400D01*
X142004142Y-37411780D01*
X142439571Y-38331019D02*
X142439571Y-37315019D01*
X142439571Y-37798828D02*
X143020142Y-37798828D01*
X143020142Y-38331019D02*
X143020142Y-37315019D01*
X144278047Y-38331019D02*
X144278047Y-37315019D01*
X144665095Y-37315019D01*
X144761857Y-37363400D01*
X144810238Y-37411780D01*
X144858619Y-37508542D01*
X144858619Y-37653685D01*
X144810238Y-37750447D01*
X144761857Y-37798828D01*
X144665095Y-37847209D01*
X144278047Y-37847209D01*
X145245666Y-38040733D02*
X145729476Y-38040733D01*
X145148904Y-38331019D02*
X145487571Y-37315019D01*
X145826238Y-38331019D01*
X146745476Y-38234257D02*
X146697095Y-38282638D01*
X146551952Y-38331019D01*
X146455190Y-38331019D01*
X146310047Y-38282638D01*
X146213285Y-38185876D01*
X146164904Y-38089114D01*
X146116523Y-37895590D01*
X146116523Y-37750447D01*
X146164904Y-37556923D01*
X146213285Y-37460161D01*
X146310047Y-37363400D01*
X146455190Y-37315019D01*
X146551952Y-37315019D01*
X146697095Y-37363400D01*
X146745476Y-37411780D01*
X147180904Y-38331019D02*
X147180904Y-37315019D01*
X147761476Y-38331019D02*
X147326047Y-37750447D01*
X147761476Y-37315019D02*
X147180904Y-37895590D01*
X138714238Y-40058219D02*
X138714238Y-39042219D01*
X139294809Y-40058219D01*
X139294809Y-39042219D01*
X139778619Y-39042219D02*
X139778619Y-39864695D01*
X139827000Y-39961457D01*
X139875380Y-40009838D01*
X139972142Y-40058219D01*
X140165666Y-40058219D01*
X140262428Y-40009838D01*
X140310809Y-39961457D01*
X140359190Y-39864695D01*
X140359190Y-39042219D01*
X140843000Y-40058219D02*
X140843000Y-39042219D01*
X141181666Y-39767933D01*
X141520333Y-39042219D01*
X141520333Y-40058219D01*
X142342809Y-39526028D02*
X142487952Y-39574409D01*
X142536333Y-39622790D01*
X142584714Y-39719552D01*
X142584714Y-39864695D01*
X142536333Y-39961457D01*
X142487952Y-40009838D01*
X142391190Y-40058219D01*
X142004142Y-40058219D01*
X142004142Y-39042219D01*
X142342809Y-39042219D01*
X142439571Y-39090600D01*
X142487952Y-39138980D01*
X142536333Y-39235742D01*
X142536333Y-39332504D01*
X142487952Y-39429266D01*
X142439571Y-39477647D01*
X142342809Y-39526028D01*
X142004142Y-39526028D01*
X143020142Y-39526028D02*
X143358809Y-39526028D01*
X143503952Y-40058219D02*
X143020142Y-40058219D01*
X143020142Y-39042219D01*
X143503952Y-39042219D01*
X144519952Y-40058219D02*
X144181285Y-39574409D01*
X143939380Y-40058219D02*
X143939380Y-39042219D01*
X144326428Y-39042219D01*
X144423190Y-39090600D01*
X144471571Y-39138980D01*
X144519952Y-39235742D01*
X144519952Y-39380885D01*
X144471571Y-39477647D01*
X144423190Y-39526028D01*
X144326428Y-39574409D01*
X143939380Y-39574409D01*
X144955380Y-40058219D02*
X144955380Y-39042219D01*
X145439190Y-40058219D02*
X145439190Y-39042219D01*
X146019761Y-40058219D01*
X146019761Y-39042219D01*
X147035761Y-39090600D02*
X146939000Y-39042219D01*
X146793857Y-39042219D01*
X146648714Y-39090600D01*
X146551952Y-39187361D01*
X146503571Y-39284123D01*
X146455190Y-39477647D01*
X146455190Y-39622790D01*
X146503571Y-39816314D01*
X146551952Y-39913076D01*
X146648714Y-40009838D01*
X146793857Y-40058219D01*
X146890619Y-40058219D01*
X147035761Y-40009838D01*
X147084142Y-39961457D01*
X147084142Y-39622790D01*
X146890619Y-39622790D01*
X132818716Y-37120285D02*
X131929716Y-37120285D01*
X131929716Y-36733238D01*
X131972050Y-36636476D01*
X132014383Y-36588095D01*
X132099050Y-36539714D01*
X132226050Y-36539714D01*
X132310716Y-36588095D01*
X132353050Y-36636476D01*
X132395383Y-36733238D01*
X132395383Y-37120285D01*
X132226050Y-35668857D02*
X132818716Y-35668857D01*
X131887383Y-35910761D02*
X132522383Y-36152666D01*
X132522383Y-35523714D01*
X132226050Y-34701238D02*
X132818716Y-34701238D01*
X131887383Y-34943142D02*
X132522383Y-35185047D01*
X132522383Y-34556095D01*
X132480050Y-34169047D02*
X132480050Y-33394952D01*
X132776383Y-32959523D02*
X132818716Y-32814380D01*
X132818716Y-32572476D01*
X132776383Y-32475714D01*
X132734050Y-32427333D01*
X132649383Y-32378952D01*
X132564716Y-32378952D01*
X132480050Y-32427333D01*
X132437716Y-32475714D01*
X132395383Y-32572476D01*
X132353050Y-32766000D01*
X132310716Y-32862761D01*
X132268383Y-32911142D01*
X132183716Y-32959523D01*
X132099050Y-32959523D01*
X132014383Y-32911142D01*
X131972050Y-32862761D01*
X131929716Y-32766000D01*
X131929716Y-32524095D01*
X131972050Y-32378952D01*
X132818716Y-31411333D02*
X132818716Y-31991904D01*
X132818716Y-31701619D02*
X131929716Y-31701619D01*
X132056716Y-31798380D01*
X132141383Y-31895142D01*
X132183716Y-31991904D01*
X134355416Y-37023523D02*
X133466416Y-37023523D01*
X133466416Y-36636476D01*
X133508750Y-36539714D01*
X133551083Y-36491333D01*
X133635750Y-36442952D01*
X133762750Y-36442952D01*
X133847416Y-36491333D01*
X133889750Y-36539714D01*
X133932083Y-36636476D01*
X133932083Y-37023523D01*
X134355416Y-35475333D02*
X134355416Y-36055904D01*
X134355416Y-35765619D02*
X133466416Y-35765619D01*
X133593416Y-35862380D01*
X133678083Y-35959142D01*
X133720416Y-36055904D01*
X134016750Y-34265809D02*
X134016750Y-33491714D01*
X134313083Y-33056285D02*
X134355416Y-32911142D01*
X134355416Y-32669238D01*
X134313083Y-32572476D01*
X134270750Y-32524095D01*
X134186083Y-32475714D01*
X134101416Y-32475714D01*
X134016750Y-32524095D01*
X133974416Y-32572476D01*
X133932083Y-32669238D01*
X133889750Y-32862761D01*
X133847416Y-32959523D01*
X133805083Y-33007904D01*
X133720416Y-33056285D01*
X133635750Y-33056285D01*
X133551083Y-33007904D01*
X133508750Y-32959523D01*
X133466416Y-32862761D01*
X133466416Y-32620857D01*
X133508750Y-32475714D01*
X133551083Y-32088666D02*
X133508750Y-32040285D01*
X133466416Y-31943523D01*
X133466416Y-31701619D01*
X133508750Y-31604857D01*
X133551083Y-31556476D01*
X133635750Y-31508095D01*
X133720416Y-31508095D01*
X133847416Y-31556476D01*
X134355416Y-32137047D01*
X134355416Y-31508095D01*
X135892116Y-37120285D02*
X135003116Y-37120285D01*
X135003116Y-36733238D01*
X135045450Y-36636476D01*
X135087783Y-36588095D01*
X135172450Y-36539714D01*
X135299450Y-36539714D01*
X135384116Y-36588095D01*
X135426450Y-36636476D01*
X135468783Y-36733238D01*
X135468783Y-37120285D01*
X135299450Y-35668857D02*
X135892116Y-35668857D01*
X134960783Y-35910761D02*
X135595783Y-36152666D01*
X135595783Y-35523714D01*
X135087783Y-35185047D02*
X135045450Y-35136666D01*
X135003116Y-35039904D01*
X135003116Y-34798000D01*
X135045450Y-34701238D01*
X135087783Y-34652857D01*
X135172450Y-34604476D01*
X135257116Y-34604476D01*
X135384116Y-34652857D01*
X135892116Y-35233428D01*
X135892116Y-34604476D01*
X135553450Y-34169047D02*
X135553450Y-33394952D01*
X135849783Y-32959523D02*
X135892116Y-32814380D01*
X135892116Y-32572476D01*
X135849783Y-32475714D01*
X135807450Y-32427333D01*
X135722783Y-32378952D01*
X135638116Y-32378952D01*
X135553450Y-32427333D01*
X135511116Y-32475714D01*
X135468783Y-32572476D01*
X135426450Y-32766000D01*
X135384116Y-32862761D01*
X135341783Y-32911142D01*
X135257116Y-32959523D01*
X135172450Y-32959523D01*
X135087783Y-32911142D01*
X135045450Y-32862761D01*
X135003116Y-32766000D01*
X135003116Y-32524095D01*
X135045450Y-32378952D01*
X135003116Y-32040285D02*
X135003116Y-31411333D01*
X135341783Y-31750000D01*
X135341783Y-31604857D01*
X135384116Y-31508095D01*
X135426450Y-31459714D01*
X135511116Y-31411333D01*
X135722783Y-31411333D01*
X135807450Y-31459714D01*
X135849783Y-31508095D01*
X135892116Y-31604857D01*
X135892116Y-31895142D01*
X135849783Y-31991904D01*
X135807450Y-32040285D01*
X137428816Y-37120285D02*
X136539816Y-37120285D01*
X136539816Y-36733238D01*
X136582150Y-36636476D01*
X136624483Y-36588095D01*
X136709150Y-36539714D01*
X136836150Y-36539714D01*
X136920816Y-36588095D01*
X136963150Y-36636476D01*
X137005483Y-36733238D01*
X137005483Y-37120285D01*
X136836150Y-35668857D02*
X137428816Y-35668857D01*
X136497483Y-35910761D02*
X137132483Y-36152666D01*
X137132483Y-35523714D01*
X136539816Y-35233428D02*
X136539816Y-34604476D01*
X136878483Y-34943142D01*
X136878483Y-34798000D01*
X136920816Y-34701238D01*
X136963150Y-34652857D01*
X137047816Y-34604476D01*
X137259483Y-34604476D01*
X137344150Y-34652857D01*
X137386483Y-34701238D01*
X137428816Y-34798000D01*
X137428816Y-35088285D01*
X137386483Y-35185047D01*
X137344150Y-35233428D01*
X137090150Y-34169047D02*
X137090150Y-33394952D01*
X137386483Y-32959523D02*
X137428816Y-32814380D01*
X137428816Y-32572476D01*
X137386483Y-32475714D01*
X137344150Y-32427333D01*
X137259483Y-32378952D01*
X137174816Y-32378952D01*
X137090150Y-32427333D01*
X137047816Y-32475714D01*
X137005483Y-32572476D01*
X136963150Y-32766000D01*
X136920816Y-32862761D01*
X136878483Y-32911142D01*
X136793816Y-32959523D01*
X136709150Y-32959523D01*
X136624483Y-32911142D01*
X136582150Y-32862761D01*
X136539816Y-32766000D01*
X136539816Y-32524095D01*
X136582150Y-32378952D01*
X136836150Y-31508095D02*
X137428816Y-31508095D01*
X136497483Y-31750000D02*
X137132483Y-31991904D01*
X137132483Y-31362952D01*
X138965516Y-37120285D02*
X138076516Y-37120285D01*
X138076516Y-36733238D01*
X138118850Y-36636476D01*
X138161183Y-36588095D01*
X138245850Y-36539714D01*
X138372850Y-36539714D01*
X138457516Y-36588095D01*
X138499850Y-36636476D01*
X138542183Y-36733238D01*
X138542183Y-37120285D01*
X138372850Y-35668857D02*
X138965516Y-35668857D01*
X138034183Y-35910761D02*
X138669183Y-36152666D01*
X138669183Y-35523714D01*
X138076516Y-34943142D02*
X138076516Y-34846380D01*
X138118850Y-34749619D01*
X138161183Y-34701238D01*
X138245850Y-34652857D01*
X138415183Y-34604476D01*
X138626850Y-34604476D01*
X138796183Y-34652857D01*
X138880850Y-34701238D01*
X138923183Y-34749619D01*
X138965516Y-34846380D01*
X138965516Y-34943142D01*
X138923183Y-35039904D01*
X138880850Y-35088285D01*
X138796183Y-35136666D01*
X138626850Y-35185047D01*
X138415183Y-35185047D01*
X138245850Y-35136666D01*
X138161183Y-35088285D01*
X138118850Y-35039904D01*
X138076516Y-34943142D01*
X138626850Y-34169047D02*
X138626850Y-33394952D01*
X138923183Y-32959523D02*
X138965516Y-32814380D01*
X138965516Y-32572476D01*
X138923183Y-32475714D01*
X138880850Y-32427333D01*
X138796183Y-32378952D01*
X138711516Y-32378952D01*
X138626850Y-32427333D01*
X138584516Y-32475714D01*
X138542183Y-32572476D01*
X138499850Y-32766000D01*
X138457516Y-32862761D01*
X138415183Y-32911142D01*
X138330516Y-32959523D01*
X138245850Y-32959523D01*
X138161183Y-32911142D01*
X138118850Y-32862761D01*
X138076516Y-32766000D01*
X138076516Y-32524095D01*
X138118850Y-32378952D01*
X138076516Y-31459714D02*
X138076516Y-31943523D01*
X138499850Y-31991904D01*
X138457516Y-31943523D01*
X138415183Y-31846761D01*
X138415183Y-31604857D01*
X138457516Y-31508095D01*
X138499850Y-31459714D01*
X138584516Y-31411333D01*
X138796183Y-31411333D01*
X138880850Y-31459714D01*
X138923183Y-31508095D01*
X138965516Y-31604857D01*
X138965516Y-31846761D01*
X138923183Y-31943523D01*
X138880850Y-31991904D01*
X140502216Y-37120285D02*
X139613216Y-37120285D01*
X139613216Y-36733238D01*
X139655550Y-36636476D01*
X139697883Y-36588095D01*
X139782550Y-36539714D01*
X139909550Y-36539714D01*
X139994216Y-36588095D01*
X140036550Y-36636476D01*
X140078883Y-36733238D01*
X140078883Y-37120285D01*
X139613216Y-36201047D02*
X139613216Y-35572095D01*
X139951883Y-35910761D01*
X139951883Y-35765619D01*
X139994216Y-35668857D01*
X140036550Y-35620476D01*
X140121216Y-35572095D01*
X140332883Y-35572095D01*
X140417550Y-35620476D01*
X140459883Y-35668857D01*
X140502216Y-35765619D01*
X140502216Y-36055904D01*
X140459883Y-36152666D01*
X140417550Y-36201047D01*
X140502216Y-35088285D02*
X140502216Y-34894761D01*
X140459883Y-34798000D01*
X140417550Y-34749619D01*
X140290550Y-34652857D01*
X140121216Y-34604476D01*
X139782550Y-34604476D01*
X139697883Y-34652857D01*
X139655550Y-34701238D01*
X139613216Y-34798000D01*
X139613216Y-34991523D01*
X139655550Y-35088285D01*
X139697883Y-35136666D01*
X139782550Y-35185047D01*
X139994216Y-35185047D01*
X140078883Y-35136666D01*
X140121216Y-35088285D01*
X140163550Y-34991523D01*
X140163550Y-34798000D01*
X140121216Y-34701238D01*
X140078883Y-34652857D01*
X139994216Y-34604476D01*
X140163550Y-34169047D02*
X140163550Y-33394952D01*
X140459883Y-32959523D02*
X140502216Y-32814380D01*
X140502216Y-32572476D01*
X140459883Y-32475714D01*
X140417550Y-32427333D01*
X140332883Y-32378952D01*
X140248216Y-32378952D01*
X140163550Y-32427333D01*
X140121216Y-32475714D01*
X140078883Y-32572476D01*
X140036550Y-32766000D01*
X139994216Y-32862761D01*
X139951883Y-32911142D01*
X139867216Y-32959523D01*
X139782550Y-32959523D01*
X139697883Y-32911142D01*
X139655550Y-32862761D01*
X139613216Y-32766000D01*
X139613216Y-32524095D01*
X139655550Y-32378952D01*
X139613216Y-31508095D02*
X139613216Y-31701619D01*
X139655550Y-31798380D01*
X139697883Y-31846761D01*
X139824883Y-31943523D01*
X139994216Y-31991904D01*
X140332883Y-31991904D01*
X140417550Y-31943523D01*
X140459883Y-31895142D01*
X140502216Y-31798380D01*
X140502216Y-31604857D01*
X140459883Y-31508095D01*
X140417550Y-31459714D01*
X140332883Y-31411333D01*
X140121216Y-31411333D01*
X140036550Y-31459714D01*
X139994216Y-31508095D01*
X139951883Y-31604857D01*
X139951883Y-31798380D01*
X139994216Y-31895142D01*
X140036550Y-31943523D01*
X140121216Y-31991904D01*
X142038916Y-37120285D02*
X141149916Y-37120285D01*
X141149916Y-36733238D01*
X141192250Y-36636476D01*
X141234583Y-36588095D01*
X141319250Y-36539714D01*
X141446250Y-36539714D01*
X141530916Y-36588095D01*
X141573250Y-36636476D01*
X141615583Y-36733238D01*
X141615583Y-37120285D01*
X141149916Y-36201047D02*
X141149916Y-35572095D01*
X141488583Y-35910761D01*
X141488583Y-35765619D01*
X141530916Y-35668857D01*
X141573250Y-35620476D01*
X141657916Y-35572095D01*
X141869583Y-35572095D01*
X141954250Y-35620476D01*
X141996583Y-35668857D01*
X142038916Y-35765619D01*
X142038916Y-36055904D01*
X141996583Y-36152666D01*
X141954250Y-36201047D01*
X141530916Y-34991523D02*
X141488583Y-35088285D01*
X141446250Y-35136666D01*
X141361583Y-35185047D01*
X141319250Y-35185047D01*
X141234583Y-35136666D01*
X141192250Y-35088285D01*
X141149916Y-34991523D01*
X141149916Y-34798000D01*
X141192250Y-34701238D01*
X141234583Y-34652857D01*
X141319250Y-34604476D01*
X141361583Y-34604476D01*
X141446250Y-34652857D01*
X141488583Y-34701238D01*
X141530916Y-34798000D01*
X141530916Y-34991523D01*
X141573250Y-35088285D01*
X141615583Y-35136666D01*
X141700250Y-35185047D01*
X141869583Y-35185047D01*
X141954250Y-35136666D01*
X141996583Y-35088285D01*
X142038916Y-34991523D01*
X142038916Y-34798000D01*
X141996583Y-34701238D01*
X141954250Y-34652857D01*
X141869583Y-34604476D01*
X141700250Y-34604476D01*
X141615583Y-34652857D01*
X141573250Y-34701238D01*
X141530916Y-34798000D01*
X141700250Y-34169047D02*
X141700250Y-33394952D01*
X141996583Y-32959523D02*
X142038916Y-32814380D01*
X142038916Y-32572476D01*
X141996583Y-32475714D01*
X141954250Y-32427333D01*
X141869583Y-32378952D01*
X141784916Y-32378952D01*
X141700250Y-32427333D01*
X141657916Y-32475714D01*
X141615583Y-32572476D01*
X141573250Y-32766000D01*
X141530916Y-32862761D01*
X141488583Y-32911142D01*
X141403916Y-32959523D01*
X141319250Y-32959523D01*
X141234583Y-32911142D01*
X141192250Y-32862761D01*
X141149916Y-32766000D01*
X141149916Y-32524095D01*
X141192250Y-32378952D01*
X141149916Y-32040285D02*
X141149916Y-31362952D01*
X142038916Y-31798380D01*
X143575616Y-37120285D02*
X142686616Y-37120285D01*
X142686616Y-36733238D01*
X142728950Y-36636476D01*
X142771283Y-36588095D01*
X142855950Y-36539714D01*
X142982950Y-36539714D01*
X143067616Y-36588095D01*
X143109950Y-36636476D01*
X143152283Y-36733238D01*
X143152283Y-37120285D01*
X142686616Y-36201047D02*
X142686616Y-35572095D01*
X143025283Y-35910761D01*
X143025283Y-35765619D01*
X143067616Y-35668857D01*
X143109950Y-35620476D01*
X143194616Y-35572095D01*
X143406283Y-35572095D01*
X143490950Y-35620476D01*
X143533283Y-35668857D01*
X143575616Y-35765619D01*
X143575616Y-36055904D01*
X143533283Y-36152666D01*
X143490950Y-36201047D01*
X142686616Y-35233428D02*
X142686616Y-34556095D01*
X143575616Y-34991523D01*
X143236950Y-34169047D02*
X143236950Y-33394952D01*
X143533283Y-32959523D02*
X143575616Y-32814380D01*
X143575616Y-32572476D01*
X143533283Y-32475714D01*
X143490950Y-32427333D01*
X143406283Y-32378952D01*
X143321616Y-32378952D01*
X143236950Y-32427333D01*
X143194616Y-32475714D01*
X143152283Y-32572476D01*
X143109950Y-32766000D01*
X143067616Y-32862761D01*
X143025283Y-32911142D01*
X142940616Y-32959523D01*
X142855950Y-32959523D01*
X142771283Y-32911142D01*
X142728950Y-32862761D01*
X142686616Y-32766000D01*
X142686616Y-32524095D01*
X142728950Y-32378952D01*
X143067616Y-31798380D02*
X143025283Y-31895142D01*
X142982950Y-31943523D01*
X142898283Y-31991904D01*
X142855950Y-31991904D01*
X142771283Y-31943523D01*
X142728950Y-31895142D01*
X142686616Y-31798380D01*
X142686616Y-31604857D01*
X142728950Y-31508095D01*
X142771283Y-31459714D01*
X142855950Y-31411333D01*
X142898283Y-31411333D01*
X142982950Y-31459714D01*
X143025283Y-31508095D01*
X143067616Y-31604857D01*
X143067616Y-31798380D01*
X143109950Y-31895142D01*
X143152283Y-31943523D01*
X143236950Y-31991904D01*
X143406283Y-31991904D01*
X143490950Y-31943523D01*
X143533283Y-31895142D01*
X143575616Y-31798380D01*
X143575616Y-31604857D01*
X143533283Y-31508095D01*
X143490950Y-31459714D01*
X143406283Y-31411333D01*
X143236950Y-31411333D01*
X143152283Y-31459714D01*
X143109950Y-31508095D01*
X143067616Y-31604857D01*
D13*
X89535000Y-31750000D02*
G75*
G03*
X89535000Y-31750000I-635000J0D01*
G01*
D12*
X77470000Y-31750000D02*
X80010000Y-31750000D01*
X78740000Y-30480000D02*
X78740000Y-31750000D01*
X50800000Y-33655000D02*
X53340000Y-33655000D01*
X52070000Y-32385000D02*
X52070000Y-33655000D01*
X53086000Y-47625000D02*
X53086000Y-46482000D01*
D13*
X80645000Y-48260000D02*
G75*
G03*
X80645000Y-48260000I-635000J0D01*
G01*
D12*
X51435000Y-47625000D02*
X54610000Y-47625000D01*
X90170000Y-78105000D02*
X90170000Y-76835000D01*
X89535000Y-78105000D02*
X90805000Y-78105000D01*
D13*
X85725000Y-77470000D02*
G75*
G03*
X85725000Y-77470000I-635000J0D01*
G01*
D11*
X98249619Y-84418714D02*
X97233619Y-84418714D01*
X97233619Y-84031666D01*
X97282000Y-83934904D01*
X97330380Y-83886523D01*
X97427142Y-83838142D01*
X97572285Y-83838142D01*
X97669047Y-83886523D01*
X97717428Y-83934904D01*
X97765809Y-84031666D01*
X97765809Y-84418714D01*
X97330380Y-83451095D02*
X97282000Y-83402714D01*
X97233619Y-83305952D01*
X97233619Y-83064047D01*
X97282000Y-82967285D01*
X97330380Y-82918904D01*
X97427142Y-82870523D01*
X97523904Y-82870523D01*
X97669047Y-82918904D01*
X98249619Y-83499476D01*
X98249619Y-82870523D01*
X97572285Y-81999666D02*
X98249619Y-81999666D01*
X97185238Y-82241571D02*
X97910952Y-82483476D01*
X97910952Y-81854523D01*
X95709619Y-84418714D02*
X94693619Y-84418714D01*
X94693619Y-84031666D01*
X94742000Y-83934904D01*
X94790380Y-83886523D01*
X94887142Y-83838142D01*
X95032285Y-83838142D01*
X95129047Y-83886523D01*
X95177428Y-83934904D01*
X95225809Y-84031666D01*
X95225809Y-84418714D01*
X94790380Y-83451095D02*
X94742000Y-83402714D01*
X94693619Y-83305952D01*
X94693619Y-83064047D01*
X94742000Y-82967285D01*
X94790380Y-82918904D01*
X94887142Y-82870523D01*
X94983904Y-82870523D01*
X95129047Y-82918904D01*
X95709619Y-83499476D01*
X95709619Y-82870523D01*
X94693619Y-81951285D02*
X94693619Y-82435095D01*
X95177428Y-82483476D01*
X95129047Y-82435095D01*
X95080666Y-82338333D01*
X95080666Y-82096428D01*
X95129047Y-81999666D01*
X95177428Y-81951285D01*
X95274190Y-81902904D01*
X95516095Y-81902904D01*
X95612857Y-81951285D01*
X95661238Y-81999666D01*
X95709619Y-82096428D01*
X95709619Y-82338333D01*
X95661238Y-82435095D01*
X95612857Y-82483476D01*
X93169619Y-84418714D02*
X92153619Y-84418714D01*
X92153619Y-84031666D01*
X92202000Y-83934904D01*
X92250380Y-83886523D01*
X92347142Y-83838142D01*
X92492285Y-83838142D01*
X92589047Y-83886523D01*
X92637428Y-83934904D01*
X92685809Y-84031666D01*
X92685809Y-84418714D01*
X92250380Y-83451095D02*
X92202000Y-83402714D01*
X92153619Y-83305952D01*
X92153619Y-83064047D01*
X92202000Y-82967285D01*
X92250380Y-82918904D01*
X92347142Y-82870523D01*
X92443904Y-82870523D01*
X92589047Y-82918904D01*
X93169619Y-83499476D01*
X93169619Y-82870523D01*
X92250380Y-82483476D02*
X92202000Y-82435095D01*
X92153619Y-82338333D01*
X92153619Y-82096428D01*
X92202000Y-81999666D01*
X92250380Y-81951285D01*
X92347142Y-81902904D01*
X92443904Y-81902904D01*
X92589047Y-81951285D01*
X93169619Y-82531857D01*
X93169619Y-81902904D01*
X89662000Y-83959095D02*
X89613619Y-84055857D01*
X89613619Y-84201000D01*
X89662000Y-84346142D01*
X89758761Y-84442904D01*
X89855523Y-84491285D01*
X90049047Y-84539666D01*
X90194190Y-84539666D01*
X90387714Y-84491285D01*
X90484476Y-84442904D01*
X90581238Y-84346142D01*
X90629619Y-84201000D01*
X90629619Y-84104238D01*
X90581238Y-83959095D01*
X90532857Y-83910714D01*
X90194190Y-83910714D01*
X90194190Y-84104238D01*
X90629619Y-83475285D02*
X89613619Y-83475285D01*
X90629619Y-82894714D01*
X89613619Y-82894714D01*
X90629619Y-82410904D02*
X89613619Y-82410904D01*
X89613619Y-82169000D01*
X89662000Y-82023857D01*
X89758761Y-81927095D01*
X89855523Y-81878714D01*
X90049047Y-81830333D01*
X90194190Y-81830333D01*
X90387714Y-81878714D01*
X90484476Y-81927095D01*
X90581238Y-82023857D01*
X90629619Y-82169000D01*
X90629619Y-82410904D01*
X88089619Y-84418714D02*
X87073619Y-84418714D01*
X87073619Y-84031666D01*
X87122000Y-83934904D01*
X87170380Y-83886523D01*
X87267142Y-83838142D01*
X87412285Y-83838142D01*
X87509047Y-83886523D01*
X87557428Y-83934904D01*
X87605809Y-84031666D01*
X87605809Y-84418714D01*
X87170380Y-83451095D02*
X87122000Y-83402714D01*
X87073619Y-83305952D01*
X87073619Y-83064047D01*
X87122000Y-82967285D01*
X87170380Y-82918904D01*
X87267142Y-82870523D01*
X87363904Y-82870523D01*
X87509047Y-82918904D01*
X88089619Y-83499476D01*
X88089619Y-82870523D01*
X87073619Y-82241571D02*
X87073619Y-82144809D01*
X87122000Y-82048047D01*
X87170380Y-81999666D01*
X87267142Y-81951285D01*
X87460666Y-81902904D01*
X87702571Y-81902904D01*
X87896095Y-81951285D01*
X87992857Y-81999666D01*
X88041238Y-82048047D01*
X88089619Y-82144809D01*
X88089619Y-82241571D01*
X88041238Y-82338333D01*
X87992857Y-82386714D01*
X87896095Y-82435095D01*
X87702571Y-82483476D01*
X87460666Y-82483476D01*
X87267142Y-82435095D01*
X87170380Y-82386714D01*
X87122000Y-82338333D01*
X87073619Y-82241571D01*
X84533619Y-84684809D02*
X84533619Y-84055857D01*
X84920666Y-84394523D01*
X84920666Y-84249380D01*
X84969047Y-84152619D01*
X85017428Y-84104238D01*
X85114190Y-84055857D01*
X85356095Y-84055857D01*
X85452857Y-84104238D01*
X85501238Y-84152619D01*
X85549619Y-84249380D01*
X85549619Y-84539666D01*
X85501238Y-84636428D01*
X85452857Y-84684809D01*
X85452857Y-83620428D02*
X85501238Y-83572047D01*
X85549619Y-83620428D01*
X85501238Y-83668809D01*
X85452857Y-83620428D01*
X85549619Y-83620428D01*
X84533619Y-83233380D02*
X84533619Y-82604428D01*
X84920666Y-82943095D01*
X84920666Y-82797952D01*
X84969047Y-82701190D01*
X85017428Y-82652809D01*
X85114190Y-82604428D01*
X85356095Y-82604428D01*
X85452857Y-82652809D01*
X85501238Y-82701190D01*
X85549619Y-82797952D01*
X85549619Y-83088238D01*
X85501238Y-83185000D01*
X85452857Y-83233380D01*
X84533619Y-82314142D02*
X85549619Y-81975476D01*
X84533619Y-81636809D01*
X83009619Y-84418714D02*
X81993619Y-84418714D01*
X81993619Y-84031666D01*
X82042000Y-83934904D01*
X82090380Y-83886523D01*
X82187142Y-83838142D01*
X82332285Y-83838142D01*
X82429047Y-83886523D01*
X82477428Y-83934904D01*
X82525809Y-84031666D01*
X82525809Y-84418714D01*
X83009619Y-82870523D02*
X83009619Y-83451095D01*
X83009619Y-83160809D02*
X81993619Y-83160809D01*
X82138761Y-83257571D01*
X82235523Y-83354333D01*
X82283904Y-83451095D01*
X82429047Y-82289952D02*
X82380666Y-82386714D01*
X82332285Y-82435095D01*
X82235523Y-82483476D01*
X82187142Y-82483476D01*
X82090380Y-82435095D01*
X82042000Y-82386714D01*
X81993619Y-82289952D01*
X81993619Y-82096428D01*
X82042000Y-81999666D01*
X82090380Y-81951285D01*
X82187142Y-81902904D01*
X82235523Y-81902904D01*
X82332285Y-81951285D01*
X82380666Y-81999666D01*
X82429047Y-82096428D01*
X82429047Y-82289952D01*
X82477428Y-82386714D01*
X82525809Y-82435095D01*
X82622571Y-82483476D01*
X82816095Y-82483476D01*
X82912857Y-82435095D01*
X82961238Y-82386714D01*
X83009619Y-82289952D01*
X83009619Y-82096428D01*
X82961238Y-81999666D01*
X82912857Y-81951285D01*
X82816095Y-81902904D01*
X82622571Y-81902904D01*
X82525809Y-81951285D01*
X82477428Y-81999666D01*
X82429047Y-82096428D01*
X80469619Y-84418714D02*
X79453619Y-84418714D01*
X79453619Y-84031666D01*
X79502000Y-83934904D01*
X79550380Y-83886523D01*
X79647142Y-83838142D01*
X79792285Y-83838142D01*
X79889047Y-83886523D01*
X79937428Y-83934904D01*
X79985809Y-84031666D01*
X79985809Y-84418714D01*
X80469619Y-82870523D02*
X80469619Y-83451095D01*
X80469619Y-83160809D02*
X79453619Y-83160809D01*
X79598761Y-83257571D01*
X79695523Y-83354333D01*
X79743904Y-83451095D01*
X80469619Y-82386714D02*
X80469619Y-82193190D01*
X80421238Y-82096428D01*
X80372857Y-82048047D01*
X80227714Y-81951285D01*
X80034190Y-81902904D01*
X79647142Y-81902904D01*
X79550380Y-81951285D01*
X79502000Y-81999666D01*
X79453619Y-82096428D01*
X79453619Y-82289952D01*
X79502000Y-82386714D01*
X79550380Y-82435095D01*
X79647142Y-82483476D01*
X79889047Y-82483476D01*
X79985809Y-82435095D01*
X80034190Y-82386714D01*
X80082571Y-82289952D01*
X80082571Y-82096428D01*
X80034190Y-81999666D01*
X79985809Y-81951285D01*
X79889047Y-81902904D01*
X52565904Y-43307000D02*
X52469142Y-43258619D01*
X52324000Y-43258619D01*
X52178857Y-43307000D01*
X52082095Y-43403761D01*
X52033714Y-43500523D01*
X51985333Y-43694047D01*
X51985333Y-43839190D01*
X52033714Y-44032714D01*
X52082095Y-44129476D01*
X52178857Y-44226238D01*
X52324000Y-44274619D01*
X52420761Y-44274619D01*
X52565904Y-44226238D01*
X52614285Y-44177857D01*
X52614285Y-43839190D01*
X52420761Y-43839190D01*
X53049714Y-44274619D02*
X53049714Y-43258619D01*
X53630285Y-44274619D01*
X53630285Y-43258619D01*
X54114095Y-44274619D02*
X54114095Y-43258619D01*
X54356000Y-43258619D01*
X54501142Y-43307000D01*
X54597904Y-43403761D01*
X54646285Y-43500523D01*
X54694666Y-43694047D01*
X54694666Y-43839190D01*
X54646285Y-44032714D01*
X54597904Y-44129476D01*
X54501142Y-44226238D01*
X54356000Y-44274619D01*
X54114095Y-44274619D01*
D14*
X56206571Y-44159714D02*
X56206571Y-43397714D01*
X56496857Y-43397714D01*
X56569428Y-43434000D01*
X56605714Y-43470285D01*
X56642000Y-43542857D01*
X56642000Y-43651714D01*
X56605714Y-43724285D01*
X56569428Y-43760571D01*
X56496857Y-43796857D01*
X56206571Y-43796857D01*
X56968571Y-44159714D02*
X56968571Y-43397714D01*
X57150000Y-43397714D01*
X57258857Y-43434000D01*
X57331428Y-43506571D01*
X57367714Y-43579142D01*
X57404000Y-43724285D01*
X57404000Y-43833142D01*
X57367714Y-43978285D01*
X57331428Y-44050857D01*
X57258857Y-44123428D01*
X57150000Y-44159714D01*
X56968571Y-44159714D01*
X58057142Y-43397714D02*
X57912000Y-43397714D01*
X57839428Y-43434000D01*
X57803142Y-43470285D01*
X57730571Y-43579142D01*
X57694285Y-43724285D01*
X57694285Y-44014571D01*
X57730571Y-44087142D01*
X57766857Y-44123428D01*
X57839428Y-44159714D01*
X57984571Y-44159714D01*
X58057142Y-44123428D01*
X58093428Y-44087142D01*
X58129714Y-44014571D01*
X58129714Y-43833142D01*
X58093428Y-43760571D01*
X58057142Y-43724285D01*
X57984571Y-43688000D01*
X57839428Y-43688000D01*
X57766857Y-43724285D01*
X57730571Y-43760571D01*
X57694285Y-43833142D01*
D11*
X60784619Y-50152904D02*
X59768619Y-50152904D01*
X59768619Y-49765857D01*
X59817000Y-49669095D01*
X59865380Y-49620714D01*
X59962142Y-49572333D01*
X60107285Y-49572333D01*
X60204047Y-49620714D01*
X60252428Y-49669095D01*
X60300809Y-49765857D01*
X60300809Y-50152904D01*
X60252428Y-48798238D02*
X60300809Y-48653095D01*
X60349190Y-48604714D01*
X60445952Y-48556333D01*
X60591095Y-48556333D01*
X60687857Y-48604714D01*
X60736238Y-48653095D01*
X60784619Y-48749857D01*
X60784619Y-49136904D01*
X59768619Y-49136904D01*
X59768619Y-48798238D01*
X59817000Y-48701476D01*
X59865380Y-48653095D01*
X59962142Y-48604714D01*
X60058904Y-48604714D01*
X60155666Y-48653095D01*
X60204047Y-48701476D01*
X60252428Y-48798238D01*
X60252428Y-49136904D01*
X59768619Y-47927380D02*
X59768619Y-47830619D01*
X59817000Y-47733857D01*
X59865380Y-47685476D01*
X59962142Y-47637095D01*
X60155666Y-47588714D01*
X60397571Y-47588714D01*
X60591095Y-47637095D01*
X60687857Y-47685476D01*
X60736238Y-47733857D01*
X60784619Y-47830619D01*
X60784619Y-47927380D01*
X60736238Y-48024142D01*
X60687857Y-48072523D01*
X60591095Y-48120904D01*
X60397571Y-48169285D01*
X60155666Y-48169285D01*
X59962142Y-48120904D01*
X59865380Y-48072523D01*
X59817000Y-48024142D01*
X59768619Y-47927380D01*
X62689619Y-50152904D02*
X61673619Y-50152904D01*
X61673619Y-49765857D01*
X61722000Y-49669095D01*
X61770380Y-49620714D01*
X61867142Y-49572333D01*
X62012285Y-49572333D01*
X62109047Y-49620714D01*
X62157428Y-49669095D01*
X62205809Y-49765857D01*
X62205809Y-50152904D01*
X62157428Y-48798238D02*
X62205809Y-48653095D01*
X62254190Y-48604714D01*
X62350952Y-48556333D01*
X62496095Y-48556333D01*
X62592857Y-48604714D01*
X62641238Y-48653095D01*
X62689619Y-48749857D01*
X62689619Y-49136904D01*
X61673619Y-49136904D01*
X61673619Y-48798238D01*
X61722000Y-48701476D01*
X61770380Y-48653095D01*
X61867142Y-48604714D01*
X61963904Y-48604714D01*
X62060666Y-48653095D01*
X62109047Y-48701476D01*
X62157428Y-48798238D01*
X62157428Y-49136904D01*
X62689619Y-47588714D02*
X62689619Y-48169285D01*
X62689619Y-47879000D02*
X61673619Y-47879000D01*
X61818761Y-47975761D01*
X61915523Y-48072523D01*
X61963904Y-48169285D01*
X65229619Y-50152904D02*
X64213619Y-50152904D01*
X64213619Y-49765857D01*
X64262000Y-49669095D01*
X64310380Y-49620714D01*
X64407142Y-49572333D01*
X64552285Y-49572333D01*
X64649047Y-49620714D01*
X64697428Y-49669095D01*
X64745809Y-49765857D01*
X64745809Y-50152904D01*
X64697428Y-48798238D02*
X64745809Y-48653095D01*
X64794190Y-48604714D01*
X64890952Y-48556333D01*
X65036095Y-48556333D01*
X65132857Y-48604714D01*
X65181238Y-48653095D01*
X65229619Y-48749857D01*
X65229619Y-49136904D01*
X64213619Y-49136904D01*
X64213619Y-48798238D01*
X64262000Y-48701476D01*
X64310380Y-48653095D01*
X64407142Y-48604714D01*
X64503904Y-48604714D01*
X64600666Y-48653095D01*
X64649047Y-48701476D01*
X64697428Y-48798238D01*
X64697428Y-49136904D01*
X64310380Y-48169285D02*
X64262000Y-48120904D01*
X64213619Y-48024142D01*
X64213619Y-47782238D01*
X64262000Y-47685476D01*
X64310380Y-47637095D01*
X64407142Y-47588714D01*
X64503904Y-47588714D01*
X64649047Y-47637095D01*
X65229619Y-48217666D01*
X65229619Y-47588714D01*
X67769619Y-50152904D02*
X66753619Y-50152904D01*
X66753619Y-49765857D01*
X66802000Y-49669095D01*
X66850380Y-49620714D01*
X66947142Y-49572333D01*
X67092285Y-49572333D01*
X67189047Y-49620714D01*
X67237428Y-49669095D01*
X67285809Y-49765857D01*
X67285809Y-50152904D01*
X67237428Y-48798238D02*
X67285809Y-48653095D01*
X67334190Y-48604714D01*
X67430952Y-48556333D01*
X67576095Y-48556333D01*
X67672857Y-48604714D01*
X67721238Y-48653095D01*
X67769619Y-48749857D01*
X67769619Y-49136904D01*
X66753619Y-49136904D01*
X66753619Y-48798238D01*
X66802000Y-48701476D01*
X66850380Y-48653095D01*
X66947142Y-48604714D01*
X67043904Y-48604714D01*
X67140666Y-48653095D01*
X67189047Y-48701476D01*
X67237428Y-48798238D01*
X67237428Y-49136904D01*
X66753619Y-48217666D02*
X66753619Y-47588714D01*
X67140666Y-47927380D01*
X67140666Y-47782238D01*
X67189047Y-47685476D01*
X67237428Y-47637095D01*
X67334190Y-47588714D01*
X67576095Y-47588714D01*
X67672857Y-47637095D01*
X67721238Y-47685476D01*
X67769619Y-47782238D01*
X67769619Y-48072523D01*
X67721238Y-48169285D01*
X67672857Y-48217666D01*
D14*
X70194714Y-52795714D02*
X69432714Y-52795714D01*
X69432714Y-52505428D01*
X69469000Y-52432857D01*
X69505285Y-52396571D01*
X69577857Y-52360285D01*
X69686714Y-52360285D01*
X69759285Y-52396571D01*
X69795571Y-52432857D01*
X69831857Y-52505428D01*
X69831857Y-52795714D01*
X69795571Y-51779714D02*
X69831857Y-51670857D01*
X69868142Y-51634571D01*
X69940714Y-51598285D01*
X70049571Y-51598285D01*
X70122142Y-51634571D01*
X70158428Y-51670857D01*
X70194714Y-51743428D01*
X70194714Y-52033714D01*
X69432714Y-52033714D01*
X69432714Y-51779714D01*
X69469000Y-51707142D01*
X69505285Y-51670857D01*
X69577857Y-51634571D01*
X69650428Y-51634571D01*
X69723000Y-51670857D01*
X69759285Y-51707142D01*
X69795571Y-51779714D01*
X69795571Y-52033714D01*
X69686714Y-50945142D02*
X70194714Y-50945142D01*
X69396428Y-51126571D02*
X69940714Y-51308000D01*
X69940714Y-50836285D01*
X69904428Y-50546000D02*
X69904428Y-49965428D01*
X69686714Y-49602571D02*
X69904428Y-49022000D01*
X70122142Y-49602571D01*
X70194714Y-48659142D02*
X69432714Y-48659142D01*
X69432714Y-48368857D01*
X69469000Y-48296285D01*
X69505285Y-48260000D01*
X69577857Y-48223714D01*
X69686714Y-48223714D01*
X69759285Y-48260000D01*
X69795571Y-48296285D01*
X69831857Y-48368857D01*
X69831857Y-48659142D01*
X69432714Y-47969714D02*
X69432714Y-47461714D01*
X70194714Y-47788285D01*
X72734714Y-52795714D02*
X71972714Y-52795714D01*
X71972714Y-52505428D01*
X72009000Y-52432857D01*
X72045285Y-52396571D01*
X72117857Y-52360285D01*
X72226714Y-52360285D01*
X72299285Y-52396571D01*
X72335571Y-52432857D01*
X72371857Y-52505428D01*
X72371857Y-52795714D01*
X72335571Y-51779714D02*
X72371857Y-51670857D01*
X72408142Y-51634571D01*
X72480714Y-51598285D01*
X72589571Y-51598285D01*
X72662142Y-51634571D01*
X72698428Y-51670857D01*
X72734714Y-51743428D01*
X72734714Y-52033714D01*
X71972714Y-52033714D01*
X71972714Y-51779714D01*
X72009000Y-51707142D01*
X72045285Y-51670857D01*
X72117857Y-51634571D01*
X72190428Y-51634571D01*
X72263000Y-51670857D01*
X72299285Y-51707142D01*
X72335571Y-51779714D01*
X72335571Y-52033714D01*
X71972714Y-50908857D02*
X71972714Y-51271714D01*
X72335571Y-51308000D01*
X72299285Y-51271714D01*
X72263000Y-51199142D01*
X72263000Y-51017714D01*
X72299285Y-50945142D01*
X72335571Y-50908857D01*
X72408142Y-50872571D01*
X72589571Y-50872571D01*
X72662142Y-50908857D01*
X72698428Y-50945142D01*
X72734714Y-51017714D01*
X72734714Y-51199142D01*
X72698428Y-51271714D01*
X72662142Y-51308000D01*
X72444428Y-50546000D02*
X72444428Y-49965428D01*
X72226714Y-49602571D02*
X72444428Y-49022000D01*
X72662142Y-49602571D01*
X72734714Y-48659142D02*
X71972714Y-48659142D01*
X71972714Y-48368857D01*
X72009000Y-48296285D01*
X72045285Y-48260000D01*
X72117857Y-48223714D01*
X72226714Y-48223714D01*
X72299285Y-48260000D01*
X72335571Y-48296285D01*
X72371857Y-48368857D01*
X72371857Y-48659142D01*
X71972714Y-47570571D02*
X71972714Y-47715714D01*
X72009000Y-47788285D01*
X72045285Y-47824571D01*
X72154142Y-47897142D01*
X72299285Y-47933428D01*
X72589571Y-47933428D01*
X72662142Y-47897142D01*
X72698428Y-47860857D01*
X72734714Y-47788285D01*
X72734714Y-47643142D01*
X72698428Y-47570571D01*
X72662142Y-47534285D01*
X72589571Y-47498000D01*
X72408142Y-47498000D01*
X72335571Y-47534285D01*
X72299285Y-47570571D01*
X72263000Y-47643142D01*
X72263000Y-47788285D01*
X72299285Y-47860857D01*
X72335571Y-47897142D01*
X72408142Y-47933428D01*
X75274714Y-52795714D02*
X74512714Y-52795714D01*
X74512714Y-52505428D01*
X74549000Y-52432857D01*
X74585285Y-52396571D01*
X74657857Y-52360285D01*
X74766714Y-52360285D01*
X74839285Y-52396571D01*
X74875571Y-52432857D01*
X74911857Y-52505428D01*
X74911857Y-52795714D01*
X74875571Y-51779714D02*
X74911857Y-51670857D01*
X74948142Y-51634571D01*
X75020714Y-51598285D01*
X75129571Y-51598285D01*
X75202142Y-51634571D01*
X75238428Y-51670857D01*
X75274714Y-51743428D01*
X75274714Y-52033714D01*
X74512714Y-52033714D01*
X74512714Y-51779714D01*
X74549000Y-51707142D01*
X74585285Y-51670857D01*
X74657857Y-51634571D01*
X74730428Y-51634571D01*
X74803000Y-51670857D01*
X74839285Y-51707142D01*
X74875571Y-51779714D01*
X74875571Y-52033714D01*
X74512714Y-50945142D02*
X74512714Y-51090285D01*
X74549000Y-51162857D01*
X74585285Y-51199142D01*
X74694142Y-51271714D01*
X74839285Y-51308000D01*
X75129571Y-51308000D01*
X75202142Y-51271714D01*
X75238428Y-51235428D01*
X75274714Y-51162857D01*
X75274714Y-51017714D01*
X75238428Y-50945142D01*
X75202142Y-50908857D01*
X75129571Y-50872571D01*
X74948142Y-50872571D01*
X74875571Y-50908857D01*
X74839285Y-50945142D01*
X74803000Y-51017714D01*
X74803000Y-51162857D01*
X74839285Y-51235428D01*
X74875571Y-51271714D01*
X74948142Y-51308000D01*
X74984428Y-50546000D02*
X74984428Y-49965428D01*
X74766714Y-49602571D02*
X74984428Y-49022000D01*
X75202142Y-49602571D01*
X75274714Y-48659142D02*
X74512714Y-48659142D01*
X74512714Y-48368857D01*
X74549000Y-48296285D01*
X74585285Y-48260000D01*
X74657857Y-48223714D01*
X74766714Y-48223714D01*
X74839285Y-48260000D01*
X74875571Y-48296285D01*
X74911857Y-48368857D01*
X74911857Y-48659142D01*
X74766714Y-47570571D02*
X75274714Y-47570571D01*
X74476428Y-47752000D02*
X75020714Y-47933428D01*
X75020714Y-47461714D01*
X77814714Y-52795714D02*
X77052714Y-52795714D01*
X77052714Y-52505428D01*
X77089000Y-52432857D01*
X77125285Y-52396571D01*
X77197857Y-52360285D01*
X77306714Y-52360285D01*
X77379285Y-52396571D01*
X77415571Y-52432857D01*
X77451857Y-52505428D01*
X77451857Y-52795714D01*
X77415571Y-51779714D02*
X77451857Y-51670857D01*
X77488142Y-51634571D01*
X77560714Y-51598285D01*
X77669571Y-51598285D01*
X77742142Y-51634571D01*
X77778428Y-51670857D01*
X77814714Y-51743428D01*
X77814714Y-52033714D01*
X77052714Y-52033714D01*
X77052714Y-51779714D01*
X77089000Y-51707142D01*
X77125285Y-51670857D01*
X77197857Y-51634571D01*
X77270428Y-51634571D01*
X77343000Y-51670857D01*
X77379285Y-51707142D01*
X77415571Y-51779714D01*
X77415571Y-52033714D01*
X77052714Y-51344285D02*
X77052714Y-50836285D01*
X77814714Y-51162857D01*
X77524428Y-50546000D02*
X77524428Y-49965428D01*
X77306714Y-49602571D02*
X77524428Y-49022000D01*
X77742142Y-49602571D01*
X77814714Y-48659142D02*
X77052714Y-48659142D01*
X77052714Y-48368857D01*
X77089000Y-48296285D01*
X77125285Y-48260000D01*
X77197857Y-48223714D01*
X77306714Y-48223714D01*
X77379285Y-48260000D01*
X77415571Y-48296285D01*
X77451857Y-48368857D01*
X77451857Y-48659142D01*
X77052714Y-47534285D02*
X77052714Y-47897142D01*
X77415571Y-47933428D01*
X77379285Y-47897142D01*
X77343000Y-47824571D01*
X77343000Y-47643142D01*
X77379285Y-47570571D01*
X77415571Y-47534285D01*
X77488142Y-47498000D01*
X77669571Y-47498000D01*
X77742142Y-47534285D01*
X77778428Y-47570571D01*
X77814714Y-47643142D01*
X77814714Y-47824571D01*
X77778428Y-47897142D01*
X77742142Y-47933428D01*
D11*
X79453619Y-52299809D02*
X79453619Y-51670857D01*
X79840666Y-52009523D01*
X79840666Y-51864380D01*
X79889047Y-51767619D01*
X79937428Y-51719238D01*
X80034190Y-51670857D01*
X80276095Y-51670857D01*
X80372857Y-51719238D01*
X80421238Y-51767619D01*
X80469619Y-51864380D01*
X80469619Y-52154666D01*
X80421238Y-52251428D01*
X80372857Y-52299809D01*
X80372857Y-51235428D02*
X80421238Y-51187047D01*
X80469619Y-51235428D01*
X80421238Y-51283809D01*
X80372857Y-51235428D01*
X80469619Y-51235428D01*
X79453619Y-50848380D02*
X79453619Y-50219428D01*
X79840666Y-50558095D01*
X79840666Y-50412952D01*
X79889047Y-50316190D01*
X79937428Y-50267809D01*
X80034190Y-50219428D01*
X80276095Y-50219428D01*
X80372857Y-50267809D01*
X80421238Y-50316190D01*
X80469619Y-50412952D01*
X80469619Y-50703238D01*
X80421238Y-50800000D01*
X80372857Y-50848380D01*
X79453619Y-49929142D02*
X80469619Y-49590476D01*
X79453619Y-49251809D01*
X86819619Y-32941380D02*
X86335809Y-33280047D01*
X86819619Y-33521952D02*
X85803619Y-33521952D01*
X85803619Y-33134904D01*
X85852000Y-33038142D01*
X85900380Y-32989761D01*
X85997142Y-32941380D01*
X86142285Y-32941380D01*
X86239047Y-32989761D01*
X86287428Y-33038142D01*
X86335809Y-33134904D01*
X86335809Y-33521952D01*
X86771238Y-32554333D02*
X86819619Y-32409190D01*
X86819619Y-32167285D01*
X86771238Y-32070523D01*
X86722857Y-32022142D01*
X86626095Y-31973761D01*
X86529333Y-31973761D01*
X86432571Y-32022142D01*
X86384190Y-32070523D01*
X86335809Y-32167285D01*
X86287428Y-32360809D01*
X86239047Y-32457571D01*
X86190666Y-32505952D01*
X86093904Y-32554333D01*
X85997142Y-32554333D01*
X85900380Y-32505952D01*
X85852000Y-32457571D01*
X85803619Y-32360809D01*
X85803619Y-32118904D01*
X85852000Y-31973761D01*
X85803619Y-31683476D02*
X85803619Y-31102904D01*
X86819619Y-31393190D02*
X85803619Y-31393190D01*
X88343619Y-27534809D02*
X88343619Y-26905857D01*
X88730666Y-27244523D01*
X88730666Y-27099380D01*
X88779047Y-27002619D01*
X88827428Y-26954238D01*
X88924190Y-26905857D01*
X89166095Y-26905857D01*
X89262857Y-26954238D01*
X89311238Y-27002619D01*
X89359619Y-27099380D01*
X89359619Y-27389666D01*
X89311238Y-27486428D01*
X89262857Y-27534809D01*
X89262857Y-26470428D02*
X89311238Y-26422047D01*
X89359619Y-26470428D01*
X89311238Y-26518809D01*
X89262857Y-26470428D01*
X89359619Y-26470428D01*
X88343619Y-26083380D02*
X88343619Y-25454428D01*
X88730666Y-25793095D01*
X88730666Y-25647952D01*
X88779047Y-25551190D01*
X88827428Y-25502809D01*
X88924190Y-25454428D01*
X89166095Y-25454428D01*
X89262857Y-25502809D01*
X89311238Y-25551190D01*
X89359619Y-25647952D01*
X89359619Y-25938238D01*
X89311238Y-26035000D01*
X89262857Y-26083380D01*
X88343619Y-25164142D02*
X89359619Y-24825476D01*
X88343619Y-24486809D01*
X86819619Y-27565047D02*
X85803619Y-27565047D01*
X85803619Y-27178000D01*
X85852000Y-27081238D01*
X85900380Y-27032857D01*
X85997142Y-26984476D01*
X86142285Y-26984476D01*
X86239047Y-27032857D01*
X86287428Y-27081238D01*
X86335809Y-27178000D01*
X86335809Y-27565047D01*
X86529333Y-26597428D02*
X86529333Y-26113619D01*
X86819619Y-26694190D02*
X85803619Y-26355523D01*
X86819619Y-26016857D01*
X85900380Y-25726571D02*
X85852000Y-25678190D01*
X85803619Y-25581428D01*
X85803619Y-25339523D01*
X85852000Y-25242761D01*
X85900380Y-25194380D01*
X85997142Y-25146000D01*
X86093904Y-25146000D01*
X86239047Y-25194380D01*
X86819619Y-25774952D01*
X86819619Y-25146000D01*
X86432571Y-24710571D02*
X86432571Y-23936476D01*
X86142285Y-23452666D02*
X86432571Y-22678571D01*
X86722857Y-23452666D01*
X86819619Y-22194761D02*
X85803619Y-22194761D01*
X85803619Y-21807714D01*
X85852000Y-21710952D01*
X85900380Y-21662571D01*
X85997142Y-21614190D01*
X86142285Y-21614190D01*
X86239047Y-21662571D01*
X86287428Y-21710952D01*
X86335809Y-21807714D01*
X86335809Y-22194761D01*
X85900380Y-21227142D02*
X85852000Y-21178761D01*
X85803619Y-21082000D01*
X85803619Y-20840095D01*
X85852000Y-20743333D01*
X85900380Y-20694952D01*
X85997142Y-20646571D01*
X86093904Y-20646571D01*
X86239047Y-20694952D01*
X86819619Y-21275523D01*
X86819619Y-20646571D01*
X84279619Y-27292904D02*
X83263619Y-27292904D01*
X83263619Y-26905857D01*
X83312000Y-26809095D01*
X83360380Y-26760714D01*
X83457142Y-26712333D01*
X83602285Y-26712333D01*
X83699047Y-26760714D01*
X83747428Y-26809095D01*
X83795809Y-26905857D01*
X83795809Y-27292904D01*
X84279619Y-26276904D02*
X83263619Y-26276904D01*
X83263619Y-26035000D01*
X83312000Y-25889857D01*
X83408761Y-25793095D01*
X83505523Y-25744714D01*
X83699047Y-25696333D01*
X83844190Y-25696333D01*
X84037714Y-25744714D01*
X84134476Y-25793095D01*
X84231238Y-25889857D01*
X84279619Y-26035000D01*
X84279619Y-26276904D01*
X83263619Y-25067380D02*
X83263619Y-24970619D01*
X83312000Y-24873857D01*
X83360380Y-24825476D01*
X83457142Y-24777095D01*
X83650666Y-24728714D01*
X83892571Y-24728714D01*
X84086095Y-24777095D01*
X84182857Y-24825476D01*
X84231238Y-24873857D01*
X84279619Y-24970619D01*
X84279619Y-25067380D01*
X84231238Y-25164142D01*
X84182857Y-25212523D01*
X84086095Y-25260904D01*
X83892571Y-25309285D01*
X83650666Y-25309285D01*
X83457142Y-25260904D01*
X83360380Y-25212523D01*
X83312000Y-25164142D01*
X83263619Y-25067380D01*
X81739619Y-27292904D02*
X80723619Y-27292904D01*
X80723619Y-26905857D01*
X80772000Y-26809095D01*
X80820380Y-26760714D01*
X80917142Y-26712333D01*
X81062285Y-26712333D01*
X81159047Y-26760714D01*
X81207428Y-26809095D01*
X81255809Y-26905857D01*
X81255809Y-27292904D01*
X81739619Y-26276904D02*
X80723619Y-26276904D01*
X80723619Y-26035000D01*
X80772000Y-25889857D01*
X80868761Y-25793095D01*
X80965523Y-25744714D01*
X81159047Y-25696333D01*
X81304190Y-25696333D01*
X81497714Y-25744714D01*
X81594476Y-25793095D01*
X81691238Y-25889857D01*
X81739619Y-26035000D01*
X81739619Y-26276904D01*
X81739619Y-24728714D02*
X81739619Y-25309285D01*
X81739619Y-25019000D02*
X80723619Y-25019000D01*
X80868761Y-25115761D01*
X80965523Y-25212523D01*
X81013904Y-25309285D01*
X78232000Y-26809095D02*
X78183619Y-26905857D01*
X78183619Y-27051000D01*
X78232000Y-27196142D01*
X78328761Y-27292904D01*
X78425523Y-27341285D01*
X78619047Y-27389666D01*
X78764190Y-27389666D01*
X78957714Y-27341285D01*
X79054476Y-27292904D01*
X79151238Y-27196142D01*
X79199619Y-27051000D01*
X79199619Y-26954238D01*
X79151238Y-26809095D01*
X79102857Y-26760714D01*
X78764190Y-26760714D01*
X78764190Y-26954238D01*
X79199619Y-26325285D02*
X78183619Y-26325285D01*
X79199619Y-25744714D01*
X78183619Y-25744714D01*
X79199619Y-25260904D02*
X78183619Y-25260904D01*
X78183619Y-25019000D01*
X78232000Y-24873857D01*
X78328761Y-24777095D01*
X78425523Y-24728714D01*
X78619047Y-24680333D01*
X78764190Y-24680333D01*
X78957714Y-24728714D01*
X79054476Y-24777095D01*
X79151238Y-24873857D01*
X79199619Y-25019000D01*
X79199619Y-25260904D01*
X101805619Y-25176238D02*
X101950761Y-25224619D01*
X102192666Y-25224619D01*
X102289428Y-25176238D01*
X102337809Y-25127857D01*
X102386190Y-25031095D01*
X102386190Y-24934333D01*
X102337809Y-24837571D01*
X102289428Y-24789190D01*
X102192666Y-24740809D01*
X101999142Y-24692428D01*
X101902380Y-24644047D01*
X101854000Y-24595666D01*
X101805619Y-24498904D01*
X101805619Y-24402142D01*
X101854000Y-24305380D01*
X101902380Y-24257000D01*
X101999142Y-24208619D01*
X102241047Y-24208619D01*
X102386190Y-24257000D01*
X102724857Y-24208619D02*
X102966761Y-25224619D01*
X103160285Y-24498904D01*
X103353809Y-25224619D01*
X103595714Y-24208619D01*
X104514952Y-25224619D02*
X103934380Y-25224619D01*
X104224666Y-25224619D02*
X104224666Y-24208619D01*
X104127904Y-24353761D01*
X104031142Y-24450523D01*
X103934380Y-24498904D01*
X104950380Y-24837571D02*
X105724476Y-24837571D01*
X106208285Y-24547285D02*
X106982380Y-24837571D01*
X106208285Y-25127857D01*
X107466190Y-25224619D02*
X107466190Y-24208619D01*
X107853238Y-24208619D01*
X107950000Y-24257000D01*
X107998380Y-24305380D01*
X108046761Y-24402142D01*
X108046761Y-24547285D01*
X107998380Y-24644047D01*
X107950000Y-24692428D01*
X107853238Y-24740809D01*
X107466190Y-24740809D01*
X108385428Y-24208619D02*
X109014380Y-24208619D01*
X108675714Y-24595666D01*
X108820857Y-24595666D01*
X108917619Y-24644047D01*
X108966000Y-24692428D01*
X109014380Y-24789190D01*
X109014380Y-25031095D01*
X108966000Y-25127857D01*
X108917619Y-25176238D01*
X108820857Y-25224619D01*
X108530571Y-25224619D01*
X108433809Y-25176238D01*
X108385428Y-25127857D01*
D10*
X99749428Y-34544000D02*
X100475142Y-34544000D01*
X99604285Y-34979428D02*
X100112285Y-33455428D01*
X100620285Y-34979428D01*
X100910571Y-33455428D02*
X101781428Y-33455428D01*
X101346000Y-34979428D02*
X101346000Y-33455428D01*
X102289428Y-34979428D02*
X102289428Y-33455428D01*
X102797428Y-34544000D01*
X103305428Y-33455428D01*
X103305428Y-34979428D01*
X104031142Y-34181142D02*
X104539142Y-34181142D01*
X104756857Y-34979428D02*
X104031142Y-34979428D01*
X104031142Y-33455428D01*
X104756857Y-33455428D01*
X106135714Y-34979428D02*
X105410000Y-34979428D01*
X105410000Y-33455428D01*
X101092000Y-37084000D02*
X101817714Y-37084000D01*
X100946857Y-37519428D02*
X101454857Y-35995428D01*
X101962857Y-37519428D01*
X102253142Y-35995428D02*
X102761142Y-37519428D01*
X103269142Y-35995428D01*
X104648000Y-37519428D02*
X104140000Y-36793714D01*
X103777142Y-37519428D02*
X103777142Y-35995428D01*
X104357714Y-35995428D01*
X104502857Y-36068000D01*
X104575428Y-36140571D01*
X104648000Y-36285714D01*
X104648000Y-36503428D01*
X104575428Y-36648571D01*
X104502857Y-36721142D01*
X104357714Y-36793714D01*
X103777142Y-36793714D01*
X100148571Y-40059428D02*
X100148571Y-38535428D01*
X100729142Y-38535428D01*
X100874285Y-38608000D01*
X100946857Y-38680571D01*
X101019428Y-38825714D01*
X101019428Y-39043428D01*
X100946857Y-39188571D01*
X100874285Y-39261142D01*
X100729142Y-39333714D01*
X100148571Y-39333714D01*
X102543428Y-40059428D02*
X102035428Y-39333714D01*
X101672571Y-40059428D02*
X101672571Y-38535428D01*
X102253142Y-38535428D01*
X102398285Y-38608000D01*
X102470857Y-38680571D01*
X102543428Y-38825714D01*
X102543428Y-39043428D01*
X102470857Y-39188571D01*
X102398285Y-39261142D01*
X102253142Y-39333714D01*
X101672571Y-39333714D01*
X103486857Y-38535428D02*
X103777142Y-38535428D01*
X103922285Y-38608000D01*
X104067428Y-38753142D01*
X104140000Y-39043428D01*
X104140000Y-39551428D01*
X104067428Y-39841714D01*
X103922285Y-39986857D01*
X103777142Y-40059428D01*
X103486857Y-40059428D01*
X103341714Y-39986857D01*
X103196571Y-39841714D01*
X103124000Y-39551428D01*
X103124000Y-39043428D01*
X103196571Y-38753142D01*
X103341714Y-38608000D01*
X103486857Y-38535428D01*
X105591428Y-38608000D02*
X105446285Y-38535428D01*
X105228571Y-38535428D01*
X105010857Y-38608000D01*
X104865714Y-38753142D01*
X104793142Y-38898285D01*
X104720571Y-39188571D01*
X104720571Y-39406285D01*
X104793142Y-39696571D01*
X104865714Y-39841714D01*
X105010857Y-39986857D01*
X105228571Y-40059428D01*
X105373714Y-40059428D01*
X105591428Y-39986857D01*
X105664000Y-39914285D01*
X105664000Y-39406285D01*
X105373714Y-39406285D01*
D11*
X71791285Y-67769619D02*
X71791285Y-66753619D01*
X72178333Y-66753619D01*
X72275095Y-66802000D01*
X72323476Y-66850380D01*
X72371857Y-66947142D01*
X72371857Y-67092285D01*
X72323476Y-67189047D01*
X72275095Y-67237428D01*
X72178333Y-67285809D01*
X71791285Y-67285809D01*
X73339476Y-67769619D02*
X72758904Y-67769619D01*
X73049190Y-67769619D02*
X73049190Y-66753619D01*
X72952428Y-66898761D01*
X72855666Y-66995523D01*
X72758904Y-67043904D01*
X74210333Y-67092285D02*
X74210333Y-67769619D01*
X73968428Y-66705238D02*
X73726523Y-67430952D01*
X74355476Y-67430952D01*
X71791285Y-65229619D02*
X71791285Y-64213619D01*
X72178333Y-64213619D01*
X72275095Y-64262000D01*
X72323476Y-64310380D01*
X72371857Y-64407142D01*
X72371857Y-64552285D01*
X72323476Y-64649047D01*
X72275095Y-64697428D01*
X72178333Y-64745809D01*
X71791285Y-64745809D01*
X73339476Y-65229619D02*
X72758904Y-65229619D01*
X73049190Y-65229619D02*
X73049190Y-64213619D01*
X72952428Y-64358761D01*
X72855666Y-64455523D01*
X72758904Y-64503904D01*
X73678142Y-64213619D02*
X74307095Y-64213619D01*
X73968428Y-64600666D01*
X74113571Y-64600666D01*
X74210333Y-64649047D01*
X74258714Y-64697428D01*
X74307095Y-64794190D01*
X74307095Y-65036095D01*
X74258714Y-65132857D01*
X74210333Y-65181238D01*
X74113571Y-65229619D01*
X73823285Y-65229619D01*
X73726523Y-65181238D01*
X73678142Y-65132857D01*
X71791285Y-62689619D02*
X71791285Y-61673619D01*
X72178333Y-61673619D01*
X72275095Y-61722000D01*
X72323476Y-61770380D01*
X72371857Y-61867142D01*
X72371857Y-62012285D01*
X72323476Y-62109047D01*
X72275095Y-62157428D01*
X72178333Y-62205809D01*
X71791285Y-62205809D01*
X73339476Y-62689619D02*
X72758904Y-62689619D01*
X73049190Y-62689619D02*
X73049190Y-61673619D01*
X72952428Y-61818761D01*
X72855666Y-61915523D01*
X72758904Y-61963904D01*
X73726523Y-61770380D02*
X73774904Y-61722000D01*
X73871666Y-61673619D01*
X74113571Y-61673619D01*
X74210333Y-61722000D01*
X74258714Y-61770380D01*
X74307095Y-61867142D01*
X74307095Y-61963904D01*
X74258714Y-62109047D01*
X73678142Y-62689619D01*
X74307095Y-62689619D01*
X71791285Y-60149619D02*
X71791285Y-59133619D01*
X72178333Y-59133619D01*
X72275095Y-59182000D01*
X72323476Y-59230380D01*
X72371857Y-59327142D01*
X72371857Y-59472285D01*
X72323476Y-59569047D01*
X72275095Y-59617428D01*
X72178333Y-59665809D01*
X71791285Y-59665809D01*
X73339476Y-60149619D02*
X72758904Y-60149619D01*
X73049190Y-60149619D02*
X73049190Y-59133619D01*
X72952428Y-59278761D01*
X72855666Y-59375523D01*
X72758904Y-59423904D01*
X74307095Y-60149619D02*
X73726523Y-60149619D01*
X74016809Y-60149619D02*
X74016809Y-59133619D01*
X73920047Y-59278761D01*
X73823285Y-59375523D01*
X73726523Y-59423904D01*
X71640095Y-57609619D02*
X71640095Y-56593619D01*
X72027142Y-56593619D01*
X72123904Y-56642000D01*
X72172285Y-56690380D01*
X72220666Y-56787142D01*
X72220666Y-56932285D01*
X72172285Y-57029047D01*
X72123904Y-57077428D01*
X72027142Y-57125809D01*
X71640095Y-57125809D01*
X72704476Y-57609619D02*
X72898000Y-57609619D01*
X72994761Y-57561238D01*
X73043142Y-57512857D01*
X73139904Y-57367714D01*
X73188285Y-57174190D01*
X73188285Y-56787142D01*
X73139904Y-56690380D01*
X73091523Y-56642000D01*
X72994761Y-56593619D01*
X72801238Y-56593619D01*
X72704476Y-56642000D01*
X72656095Y-56690380D01*
X72607714Y-56787142D01*
X72607714Y-57029047D01*
X72656095Y-57125809D01*
X72704476Y-57174190D01*
X72801238Y-57222571D01*
X72994761Y-57222571D01*
X73091523Y-57174190D01*
X73139904Y-57125809D01*
X73188285Y-57029047D01*
X71640095Y-55069619D02*
X71640095Y-54053619D01*
X72027142Y-54053619D01*
X72123904Y-54102000D01*
X72172285Y-54150380D01*
X72220666Y-54247142D01*
X72220666Y-54392285D01*
X72172285Y-54489047D01*
X72123904Y-54537428D01*
X72027142Y-54585809D01*
X71640095Y-54585809D01*
X72801238Y-54489047D02*
X72704476Y-54440666D01*
X72656095Y-54392285D01*
X72607714Y-54295523D01*
X72607714Y-54247142D01*
X72656095Y-54150380D01*
X72704476Y-54102000D01*
X72801238Y-54053619D01*
X72994761Y-54053619D01*
X73091523Y-54102000D01*
X73139904Y-54150380D01*
X73188285Y-54247142D01*
X73188285Y-54295523D01*
X73139904Y-54392285D01*
X73091523Y-54440666D01*
X72994761Y-54489047D01*
X72801238Y-54489047D01*
X72704476Y-54537428D01*
X72656095Y-54585809D01*
X72607714Y-54682571D01*
X72607714Y-54876095D01*
X72656095Y-54972857D01*
X72704476Y-55021238D01*
X72801238Y-55069619D01*
X72994761Y-55069619D01*
X73091523Y-55021238D01*
X73139904Y-54972857D01*
X73188285Y-54876095D01*
X73188285Y-54682571D01*
X73139904Y-54585809D01*
X73091523Y-54537428D01*
X72994761Y-54489047D01*
D10*
X61395428Y-67110428D02*
X62411428Y-68634428D01*
X62411428Y-67110428D02*
X61395428Y-68634428D01*
X62992000Y-68634428D02*
X62992000Y-67110428D01*
X64443428Y-68634428D02*
X63717714Y-68634428D01*
X63717714Y-67110428D01*
X64951428Y-68634428D02*
X64951428Y-67110428D01*
X65677142Y-68634428D02*
X65677142Y-67110428D01*
X66548000Y-68634428D01*
X66548000Y-67110428D01*
X67128571Y-67110428D02*
X68144571Y-68634428D01*
X68144571Y-67110428D02*
X67128571Y-68634428D01*
X63100857Y-71029285D02*
X63028285Y-71101857D01*
X62810571Y-71174428D01*
X62665428Y-71174428D01*
X62447714Y-71101857D01*
X62302571Y-70956714D01*
X62230000Y-70811571D01*
X62157428Y-70521285D01*
X62157428Y-70303571D01*
X62230000Y-70013285D01*
X62302571Y-69868142D01*
X62447714Y-69723000D01*
X62665428Y-69650428D01*
X62810571Y-69650428D01*
X63028285Y-69723000D01*
X63100857Y-69795571D01*
X63754000Y-71174428D02*
X63754000Y-69650428D01*
X64334571Y-69650428D01*
X64479714Y-69723000D01*
X64552285Y-69795571D01*
X64624857Y-69940714D01*
X64624857Y-70158428D01*
X64552285Y-70303571D01*
X64479714Y-70376142D01*
X64334571Y-70448714D01*
X63754000Y-70448714D01*
X66003714Y-71174428D02*
X65278000Y-71174428D01*
X65278000Y-69650428D01*
X66511714Y-71174428D02*
X66511714Y-69650428D01*
X66874571Y-69650428D01*
X67092285Y-69723000D01*
X67237428Y-69868142D01*
X67310000Y-70013285D01*
X67382571Y-70303571D01*
X67382571Y-70521285D01*
X67310000Y-70811571D01*
X67237428Y-70956714D01*
X67092285Y-71101857D01*
X66874571Y-71174428D01*
X66511714Y-71174428D01*
X62992000Y-72190428D02*
X62992000Y-73279000D01*
X62919428Y-73496714D01*
X62774285Y-73641857D01*
X62556571Y-73714428D01*
X62411428Y-73714428D01*
X63500000Y-72190428D02*
X64370857Y-72190428D01*
X63935428Y-73714428D02*
X63935428Y-72190428D01*
X64806285Y-73279000D02*
X65532000Y-73279000D01*
X64661142Y-73714428D02*
X65169142Y-72190428D01*
X65677142Y-73714428D01*
X66983428Y-72263000D02*
X66838285Y-72190428D01*
X66620571Y-72190428D01*
X66402857Y-72263000D01*
X66257714Y-72408142D01*
X66185142Y-72553285D01*
X66112571Y-72843571D01*
X66112571Y-73061285D01*
X66185142Y-73351571D01*
X66257714Y-73496714D01*
X66402857Y-73641857D01*
X66620571Y-73714428D01*
X66765714Y-73714428D01*
X66983428Y-73641857D01*
X67056000Y-73569285D01*
X67056000Y-73061285D01*
X66765714Y-73061285D01*
X147229285Y-55680428D02*
X147374428Y-55680428D01*
X147519571Y-55753000D01*
X147592142Y-55825571D01*
X147664714Y-55970714D01*
X147737285Y-56261000D01*
X147737285Y-56623857D01*
X147664714Y-56914142D01*
X147592142Y-57059285D01*
X147519571Y-57131857D01*
X147374428Y-57204428D01*
X147229285Y-57204428D01*
X147084142Y-57131857D01*
X147011571Y-57059285D01*
X146939000Y-56914142D01*
X146866428Y-56623857D01*
X146866428Y-56261000D01*
X146939000Y-55970714D01*
X147011571Y-55825571D01*
X147084142Y-55753000D01*
X147229285Y-55680428D01*
X148172714Y-55680428D02*
X148680714Y-57204428D01*
X149188714Y-55680428D01*
X141732000Y-46463857D02*
X142893142Y-46463857D01*
X142312571Y-47044428D02*
X142312571Y-45883285D01*
X143473714Y-45520428D02*
X144417142Y-45520428D01*
X143909142Y-46101000D01*
X144126857Y-46101000D01*
X144272000Y-46173571D01*
X144344571Y-46246142D01*
X144417142Y-46391285D01*
X144417142Y-46754142D01*
X144344571Y-46899285D01*
X144272000Y-46971857D01*
X144126857Y-47044428D01*
X143691428Y-47044428D01*
X143546285Y-46971857D01*
X143473714Y-46899285D01*
X145070285Y-46899285D02*
X145142857Y-46971857D01*
X145070285Y-47044428D01*
X144997714Y-46971857D01*
X145070285Y-46899285D01*
X145070285Y-47044428D01*
X145650857Y-45520428D02*
X146594285Y-45520428D01*
X146086285Y-46101000D01*
X146304000Y-46101000D01*
X146449142Y-46173571D01*
X146521714Y-46246142D01*
X146594285Y-46391285D01*
X146594285Y-46754142D01*
X146521714Y-46899285D01*
X146449142Y-46971857D01*
X146304000Y-47044428D01*
X145868571Y-47044428D01*
X145723428Y-46971857D01*
X145650857Y-46899285D01*
X147029714Y-45520428D02*
X147537714Y-47044428D01*
X148045714Y-45520428D01*
D11*
X54053619Y-27698095D02*
X54053619Y-28181904D01*
X54537428Y-28230285D01*
X54489047Y-28181904D01*
X54440666Y-28085142D01*
X54440666Y-27843238D01*
X54489047Y-27746476D01*
X54537428Y-27698095D01*
X54634190Y-27649714D01*
X54876095Y-27649714D01*
X54972857Y-27698095D01*
X55021238Y-27746476D01*
X55069619Y-27843238D01*
X55069619Y-28085142D01*
X55021238Y-28181904D01*
X54972857Y-28230285D01*
X56932285Y-27746476D02*
X57609619Y-27746476D01*
X56545238Y-27988380D02*
X57270952Y-28230285D01*
X57270952Y-27601333D01*
X51562000Y-28079095D02*
X51513619Y-28175857D01*
X51513619Y-28321000D01*
X51562000Y-28466142D01*
X51658761Y-28562904D01*
X51755523Y-28611285D01*
X51949047Y-28659666D01*
X52094190Y-28659666D01*
X52287714Y-28611285D01*
X52384476Y-28562904D01*
X52481238Y-28466142D01*
X52529619Y-28321000D01*
X52529619Y-28224238D01*
X52481238Y-28079095D01*
X52432857Y-28030714D01*
X52094190Y-28030714D01*
X52094190Y-28224238D01*
X52529619Y-27595285D02*
X51513619Y-27595285D01*
X52529619Y-27014714D01*
X51513619Y-27014714D01*
X52529619Y-26530904D02*
X51513619Y-26530904D01*
X51513619Y-26289000D01*
X51562000Y-26143857D01*
X51658761Y-26047095D01*
X51755523Y-25998714D01*
X51949047Y-25950333D01*
X52094190Y-25950333D01*
X52287714Y-25998714D01*
X52384476Y-26047095D01*
X52481238Y-26143857D01*
X52529619Y-26289000D01*
X52529619Y-26530904D01*
X60149619Y-28562904D02*
X59133619Y-28562904D01*
X59133619Y-28175857D01*
X59182000Y-28079095D01*
X59230380Y-28030714D01*
X59327142Y-27982333D01*
X59472285Y-27982333D01*
X59569047Y-28030714D01*
X59617428Y-28079095D01*
X59665809Y-28175857D01*
X59665809Y-28562904D01*
X60149619Y-27546904D02*
X59133619Y-27546904D01*
X59133619Y-27305000D01*
X59182000Y-27159857D01*
X59278761Y-27063095D01*
X59375523Y-27014714D01*
X59569047Y-26966333D01*
X59714190Y-26966333D01*
X59907714Y-27014714D01*
X60004476Y-27063095D01*
X60101238Y-27159857D01*
X60149619Y-27305000D01*
X60149619Y-27546904D01*
X59133619Y-26627666D02*
X59133619Y-25998714D01*
X59520666Y-26337380D01*
X59520666Y-26192238D01*
X59569047Y-26095476D01*
X59617428Y-26047095D01*
X59714190Y-25998714D01*
X59956095Y-25998714D01*
X60052857Y-26047095D01*
X60101238Y-26095476D01*
X60149619Y-26192238D01*
X60149619Y-26482523D01*
X60101238Y-26579285D01*
X60052857Y-26627666D01*
X62689619Y-28562904D02*
X61673619Y-28562904D01*
X61673619Y-28175857D01*
X61722000Y-28079095D01*
X61770380Y-28030714D01*
X61867142Y-27982333D01*
X62012285Y-27982333D01*
X62109047Y-28030714D01*
X62157428Y-28079095D01*
X62205809Y-28175857D01*
X62205809Y-28562904D01*
X62689619Y-27546904D02*
X61673619Y-27546904D01*
X61673619Y-27305000D01*
X61722000Y-27159857D01*
X61818761Y-27063095D01*
X61915523Y-27014714D01*
X62109047Y-26966333D01*
X62254190Y-26966333D01*
X62447714Y-27014714D01*
X62544476Y-27063095D01*
X62641238Y-27159857D01*
X62689619Y-27305000D01*
X62689619Y-27546904D01*
X61770380Y-26579285D02*
X61722000Y-26530904D01*
X61673619Y-26434142D01*
X61673619Y-26192238D01*
X61722000Y-26095476D01*
X61770380Y-26047095D01*
X61867142Y-25998714D01*
X61963904Y-25998714D01*
X62109047Y-26047095D01*
X62689619Y-26627666D01*
X62689619Y-25998714D01*
X101636285Y-79199619D02*
X101636285Y-78183619D01*
X102023333Y-78183619D01*
X102120095Y-78232000D01*
X102168476Y-78280380D01*
X102216857Y-78377142D01*
X102216857Y-78522285D01*
X102168476Y-78619047D01*
X102120095Y-78667428D01*
X102023333Y-78715809D01*
X101636285Y-78715809D01*
X102603904Y-78280380D02*
X102652285Y-78232000D01*
X102749047Y-78183619D01*
X102990952Y-78183619D01*
X103087714Y-78232000D01*
X103136095Y-78280380D01*
X103184476Y-78377142D01*
X103184476Y-78473904D01*
X103136095Y-78619047D01*
X102555523Y-79199619D01*
X103184476Y-79199619D01*
X104055333Y-78183619D02*
X103861809Y-78183619D01*
X103765047Y-78232000D01*
X103716666Y-78280380D01*
X103619904Y-78425523D01*
X103571523Y-78619047D01*
X103571523Y-79006095D01*
X103619904Y-79102857D01*
X103668285Y-79151238D01*
X103765047Y-79199619D01*
X103958571Y-79199619D01*
X104055333Y-79151238D01*
X104103714Y-79102857D01*
X104152095Y-79006095D01*
X104152095Y-78764190D01*
X104103714Y-78667428D01*
X104055333Y-78619047D01*
X103958571Y-78570666D01*
X103765047Y-78570666D01*
X103668285Y-78619047D01*
X103619904Y-78667428D01*
X103571523Y-78764190D01*
X106716285Y-79199619D02*
X106716285Y-78183619D01*
X107103333Y-78183619D01*
X107200095Y-78232000D01*
X107248476Y-78280380D01*
X107296857Y-78377142D01*
X107296857Y-78522285D01*
X107248476Y-78619047D01*
X107200095Y-78667428D01*
X107103333Y-78715809D01*
X106716285Y-78715809D01*
X107683904Y-78280380D02*
X107732285Y-78232000D01*
X107829047Y-78183619D01*
X108070952Y-78183619D01*
X108167714Y-78232000D01*
X108216095Y-78280380D01*
X108264476Y-78377142D01*
X108264476Y-78473904D01*
X108216095Y-78619047D01*
X107635523Y-79199619D01*
X108264476Y-79199619D01*
X108603142Y-78183619D02*
X109280476Y-78183619D01*
X108845047Y-79199619D01*
X111796285Y-79199619D02*
X111796285Y-78183619D01*
X112183333Y-78183619D01*
X112280095Y-78232000D01*
X112328476Y-78280380D01*
X112376857Y-78377142D01*
X112376857Y-78522285D01*
X112328476Y-78619047D01*
X112280095Y-78667428D01*
X112183333Y-78715809D01*
X111796285Y-78715809D01*
X112763904Y-78280380D02*
X112812285Y-78232000D01*
X112909047Y-78183619D01*
X113150952Y-78183619D01*
X113247714Y-78232000D01*
X113296095Y-78280380D01*
X113344476Y-78377142D01*
X113344476Y-78473904D01*
X113296095Y-78619047D01*
X112715523Y-79199619D01*
X113344476Y-79199619D01*
X113925047Y-78619047D02*
X113828285Y-78570666D01*
X113779904Y-78522285D01*
X113731523Y-78425523D01*
X113731523Y-78377142D01*
X113779904Y-78280380D01*
X113828285Y-78232000D01*
X113925047Y-78183619D01*
X114118571Y-78183619D01*
X114215333Y-78232000D01*
X114263714Y-78280380D01*
X114312095Y-78377142D01*
X114312095Y-78425523D01*
X114263714Y-78522285D01*
X114215333Y-78570666D01*
X114118571Y-78619047D01*
X113925047Y-78619047D01*
X113828285Y-78667428D01*
X113779904Y-78715809D01*
X113731523Y-78812571D01*
X113731523Y-79006095D01*
X113779904Y-79102857D01*
X113828285Y-79151238D01*
X113925047Y-79199619D01*
X114118571Y-79199619D01*
X114215333Y-79151238D01*
X114263714Y-79102857D01*
X114312095Y-79006095D01*
X114312095Y-78812571D01*
X114263714Y-78715809D01*
X114215333Y-78667428D01*
X114118571Y-78619047D01*
X116876285Y-79199619D02*
X116876285Y-78183619D01*
X117263333Y-78183619D01*
X117360095Y-78232000D01*
X117408476Y-78280380D01*
X117456857Y-78377142D01*
X117456857Y-78522285D01*
X117408476Y-78619047D01*
X117360095Y-78667428D01*
X117263333Y-78715809D01*
X116876285Y-78715809D01*
X117843904Y-78280380D02*
X117892285Y-78232000D01*
X117989047Y-78183619D01*
X118230952Y-78183619D01*
X118327714Y-78232000D01*
X118376095Y-78280380D01*
X118424476Y-78377142D01*
X118424476Y-78473904D01*
X118376095Y-78619047D01*
X117795523Y-79199619D01*
X118424476Y-79199619D01*
X118908285Y-79199619D02*
X119101809Y-79199619D01*
X119198571Y-79151238D01*
X119246952Y-79102857D01*
X119343714Y-78957714D01*
X119392095Y-78764190D01*
X119392095Y-78377142D01*
X119343714Y-78280380D01*
X119295333Y-78232000D01*
X119198571Y-78183619D01*
X119005047Y-78183619D01*
X118908285Y-78232000D01*
X118859904Y-78280380D01*
X118811523Y-78377142D01*
X118811523Y-78619047D01*
X118859904Y-78715809D01*
X118908285Y-78764190D01*
X119005047Y-78812571D01*
X119198571Y-78812571D01*
X119295333Y-78764190D01*
X119343714Y-78715809D01*
X119392095Y-78619047D01*
X121956285Y-79199619D02*
X121956285Y-78183619D01*
X122343333Y-78183619D01*
X122440095Y-78232000D01*
X122488476Y-78280380D01*
X122536857Y-78377142D01*
X122536857Y-78522285D01*
X122488476Y-78619047D01*
X122440095Y-78667428D01*
X122343333Y-78715809D01*
X121956285Y-78715809D01*
X122875523Y-78183619D02*
X123504476Y-78183619D01*
X123165809Y-78570666D01*
X123310952Y-78570666D01*
X123407714Y-78619047D01*
X123456095Y-78667428D01*
X123504476Y-78764190D01*
X123504476Y-79006095D01*
X123456095Y-79102857D01*
X123407714Y-79151238D01*
X123310952Y-79199619D01*
X123020666Y-79199619D01*
X122923904Y-79151238D01*
X122875523Y-79102857D01*
X123843142Y-78183619D02*
X124472095Y-78183619D01*
X124133428Y-78570666D01*
X124278571Y-78570666D01*
X124375333Y-78619047D01*
X124423714Y-78667428D01*
X124472095Y-78764190D01*
X124472095Y-79006095D01*
X124423714Y-79102857D01*
X124375333Y-79151238D01*
X124278571Y-79199619D01*
X123988285Y-79199619D01*
X123891523Y-79151238D01*
X123843142Y-79102857D01*
X127036285Y-79199619D02*
X127036285Y-78183619D01*
X127423333Y-78183619D01*
X127520095Y-78232000D01*
X127568476Y-78280380D01*
X127616857Y-78377142D01*
X127616857Y-78522285D01*
X127568476Y-78619047D01*
X127520095Y-78667428D01*
X127423333Y-78715809D01*
X127036285Y-78715809D01*
X127955523Y-78183619D02*
X128584476Y-78183619D01*
X128245809Y-78570666D01*
X128390952Y-78570666D01*
X128487714Y-78619047D01*
X128536095Y-78667428D01*
X128584476Y-78764190D01*
X128584476Y-79006095D01*
X128536095Y-79102857D01*
X128487714Y-79151238D01*
X128390952Y-79199619D01*
X128100666Y-79199619D01*
X128003904Y-79151238D01*
X127955523Y-79102857D01*
X129455333Y-78522285D02*
X129455333Y-79199619D01*
X129213428Y-78135238D02*
X128971523Y-78860952D01*
X129600476Y-78860952D01*
X132116285Y-79199619D02*
X132116285Y-78183619D01*
X132503333Y-78183619D01*
X132600095Y-78232000D01*
X132648476Y-78280380D01*
X132696857Y-78377142D01*
X132696857Y-78522285D01*
X132648476Y-78619047D01*
X132600095Y-78667428D01*
X132503333Y-78715809D01*
X132116285Y-78715809D01*
X133035523Y-78183619D02*
X133664476Y-78183619D01*
X133325809Y-78570666D01*
X133470952Y-78570666D01*
X133567714Y-78619047D01*
X133616095Y-78667428D01*
X133664476Y-78764190D01*
X133664476Y-79006095D01*
X133616095Y-79102857D01*
X133567714Y-79151238D01*
X133470952Y-79199619D01*
X133180666Y-79199619D01*
X133083904Y-79151238D01*
X133035523Y-79102857D01*
X134583714Y-78183619D02*
X134099904Y-78183619D01*
X134051523Y-78667428D01*
X134099904Y-78619047D01*
X134196666Y-78570666D01*
X134438571Y-78570666D01*
X134535333Y-78619047D01*
X134583714Y-78667428D01*
X134632095Y-78764190D01*
X134632095Y-79006095D01*
X134583714Y-79102857D01*
X134535333Y-79151238D01*
X134438571Y-79199619D01*
X134196666Y-79199619D01*
X134099904Y-79151238D01*
X134051523Y-79102857D01*
X137196285Y-79199619D02*
X137196285Y-78183619D01*
X137583333Y-78183619D01*
X137680095Y-78232000D01*
X137728476Y-78280380D01*
X137776857Y-78377142D01*
X137776857Y-78522285D01*
X137728476Y-78619047D01*
X137680095Y-78667428D01*
X137583333Y-78715809D01*
X137196285Y-78715809D01*
X138115523Y-78183619D02*
X138744476Y-78183619D01*
X138405809Y-78570666D01*
X138550952Y-78570666D01*
X138647714Y-78619047D01*
X138696095Y-78667428D01*
X138744476Y-78764190D01*
X138744476Y-79006095D01*
X138696095Y-79102857D01*
X138647714Y-79151238D01*
X138550952Y-79199619D01*
X138260666Y-79199619D01*
X138163904Y-79151238D01*
X138115523Y-79102857D01*
X139615333Y-78183619D02*
X139421809Y-78183619D01*
X139325047Y-78232000D01*
X139276666Y-78280380D01*
X139179904Y-78425523D01*
X139131523Y-78619047D01*
X139131523Y-79006095D01*
X139179904Y-79102857D01*
X139228285Y-79151238D01*
X139325047Y-79199619D01*
X139518571Y-79199619D01*
X139615333Y-79151238D01*
X139663714Y-79102857D01*
X139712095Y-79006095D01*
X139712095Y-78764190D01*
X139663714Y-78667428D01*
X139615333Y-78619047D01*
X139518571Y-78570666D01*
X139325047Y-78570666D01*
X139228285Y-78619047D01*
X139179904Y-78667428D01*
X139131523Y-78764190D01*
D15*
%TO.C,P2*%
X138430000Y-48260000D02*
X138430000Y-58420000D01*
X146050000Y-48260000D02*
X138430000Y-48260000D01*
X146050000Y-58420000D02*
X146050000Y-48260000D01*
X138430000Y-58420000D02*
X146050000Y-58420000D01*
X139700000Y-58420000D02*
X139700000Y-48260000D01*
D16*
%TO.C,C4*%
X134623173Y-53340000D02*
G75*
G03*
X134623173Y-53340000I-2543173J0D01*
G01*
D15*
%TO.C,C5*%
X59436000Y-49403000D02*
X58928000Y-49911000D01*
X59436000Y-47879000D02*
X59436000Y-49911000D01*
X52324000Y-47879000D02*
X59436000Y-47879000D01*
X52324000Y-49911000D02*
X52324000Y-47879000D01*
X59436000Y-49911000D02*
X52324000Y-49911000D01*
%TO.C,C3*%
X112014000Y-65532000D02*
X112522000Y-65024000D01*
X112014000Y-67056000D02*
X112014000Y-65024000D01*
X119126000Y-67056000D02*
X112014000Y-67056000D01*
X119126000Y-65024000D02*
X119126000Y-67056000D01*
X112014000Y-65024000D02*
X119126000Y-65024000D01*
%TO.C,C2*%
X113538000Y-52324000D02*
X114046000Y-52832000D01*
X112014000Y-52324000D02*
X114046000Y-52324000D01*
X112014000Y-59436000D02*
X112014000Y-52324000D01*
X114046000Y-59436000D02*
X112014000Y-59436000D01*
X114046000Y-52324000D02*
X114046000Y-59436000D01*
%TO.C,C1*%
X91694000Y-74422000D02*
X92202000Y-73914000D01*
X91694000Y-75946000D02*
X91694000Y-73914000D01*
X98806000Y-75946000D02*
X91694000Y-75946000D01*
X98806000Y-73914000D02*
X98806000Y-75946000D01*
X91694000Y-73914000D02*
X98806000Y-73914000D01*
D10*
%TO.C,P1*%
X51308000Y-50800000D02*
X60452000Y-50800000D01*
X51308000Y-76200000D02*
X60452000Y-76200000D01*
X60452000Y-50800000D02*
X60452000Y-76200000D01*
X51308000Y-50800000D02*
X51308000Y-61214000D01*
X51308000Y-76200000D02*
X51308000Y-65786000D01*
X52578000Y-65786000D02*
X51308000Y-65786000D01*
X52578000Y-61214000D02*
X52578000Y-65786000D01*
X51308000Y-61214000D02*
X52578000Y-61214000D01*
D12*
%TO.C,U1*%
X109220000Y-49530000D02*
X90170000Y-49530000D01*
X109220000Y-72390000D02*
X109220000Y-49530000D01*
X86360000Y-72390000D02*
X109220000Y-72390000D01*
X86360000Y-53340000D02*
X86360000Y-72390000D01*
X90170000Y-49530000D02*
X86360000Y-53340000D01*
D15*
%TO.C,R1*%
X137922000Y-73152000D02*
X137414000Y-72644000D01*
X139446000Y-66548000D02*
X138430000Y-66548000D01*
X139446000Y-73152000D02*
X139446000Y-66548000D01*
X137414000Y-73152000D02*
X139446000Y-73152000D01*
X137414000Y-66548000D02*
X137414000Y-73152000D01*
X138430000Y-66548000D02*
X137414000Y-66548000D01*
X138430000Y-66040000D02*
X138430000Y-66548000D01*
X138430000Y-73660000D02*
X138430000Y-73152000D01*
%TO.C,R2*%
X135382000Y-73152000D02*
X134874000Y-72644000D01*
X136906000Y-66548000D02*
X135890000Y-66548000D01*
X136906000Y-73152000D02*
X136906000Y-66548000D01*
X134874000Y-73152000D02*
X136906000Y-73152000D01*
X134874000Y-66548000D02*
X134874000Y-73152000D01*
X135890000Y-66548000D02*
X134874000Y-66548000D01*
X135890000Y-66040000D02*
X135890000Y-66548000D01*
X135890000Y-73660000D02*
X135890000Y-73152000D01*
D12*
%TO.C,1PIN*%
X148285200Y-24000460D02*
G75*
G03*
X148285200Y-24000460I-2286000J0D01*
G01*
X147286980Y-81000600D02*
G75*
G03*
X147286980Y-81000600I-2286000J0D01*
G01*
X57287160Y-81000600D02*
G75*
G03*
X57287160Y-81000600I-2286000J0D01*
G01*
X57287160Y-25001220D02*
G75*
G03*
X57287160Y-25001220I-2286000J0D01*
G01*
D15*
%TO.C,C8*%
X68580000Y-24765000D02*
X67945000Y-25400000D01*
X68580000Y-22860000D02*
X68580000Y-25400000D01*
X63500000Y-22860000D02*
X68580000Y-22860000D01*
X63500000Y-25400000D02*
X63500000Y-22860000D01*
X68529200Y-25400000D02*
X63500000Y-25400000D01*
%TO.C,C7*%
X71120000Y-23495000D02*
X71755000Y-22860000D01*
X71120000Y-25400000D02*
X71120000Y-22860000D01*
X76200000Y-25400000D02*
X71120000Y-25400000D01*
X76200000Y-22860000D02*
X76200000Y-25400000D01*
X71170800Y-22860000D02*
X76200000Y-22860000D01*
%TO.C,C6*%
X85852000Y-41656000D02*
X85344000Y-41148000D01*
X87376000Y-41656000D02*
X85344000Y-41656000D01*
X87376000Y-34544000D02*
X87376000Y-41656000D01*
X85344000Y-34544000D02*
X87376000Y-34544000D01*
X85344000Y-41656000D02*
X85344000Y-34544000D01*
D11*
%TO.C,X1*%
X73139300Y-31709360D02*
X66639440Y-31709360D01*
X73139300Y-26710640D02*
X66639440Y-26710640D01*
X64140080Y-29210000D02*
G75*
G03*
X66639440Y-31709360I2499360J0D01*
G01*
X66639440Y-26710640D02*
G75*
G03*
X64140080Y-29210000I0J-2499360D01*
G01*
X73139300Y-31711900D02*
G75*
G03*
X75641200Y-29210000I0J2501900D01*
G01*
X75638660Y-29210000D02*
G75*
G03*
X73139300Y-26710640I-2499360J0D01*
G01*
%TO.C,P3*%
X97790000Y-41910000D02*
X92710000Y-41910000D01*
X92710000Y-34290000D02*
X97790000Y-34290000D01*
X92710000Y-41910000D02*
X92710000Y-34290000D01*
X97790000Y-34290000D02*
X97790000Y-41910000D01*
D15*
%TO.C,R3*%
X132842000Y-73152000D02*
X132334000Y-72644000D01*
X134366000Y-66548000D02*
X133350000Y-66548000D01*
X134366000Y-73152000D02*
X134366000Y-66548000D01*
X132334000Y-73152000D02*
X134366000Y-73152000D01*
X132334000Y-66548000D02*
X132334000Y-73152000D01*
X133350000Y-66548000D02*
X132334000Y-66548000D01*
X133350000Y-66040000D02*
X133350000Y-66548000D01*
X133350000Y-73660000D02*
X133350000Y-73152000D01*
D12*
%TO.C,IC1*%
X81280000Y-35560000D02*
X81280000Y-40640000D01*
X53340000Y-35560000D02*
X81280000Y-35560000D01*
X53340000Y-40640000D02*
X53340000Y-35560000D01*
X81280000Y-40640000D02*
X53340000Y-40640000D01*
X80010000Y-36830000D02*
X81280000Y-36830000D01*
X80010000Y-39370000D02*
X80010000Y-36830000D01*
X81280000Y-39370000D02*
X80010000Y-39370000D01*
D15*
%TO.C,R4*%
X130302000Y-73152000D02*
X129794000Y-72644000D01*
X131826000Y-66548000D02*
X130810000Y-66548000D01*
X131826000Y-73152000D02*
X131826000Y-66548000D01*
X129794000Y-73152000D02*
X131826000Y-73152000D01*
X129794000Y-66548000D02*
X129794000Y-73152000D01*
X130810000Y-66548000D02*
X129794000Y-66548000D01*
X130810000Y-66040000D02*
X130810000Y-66548000D01*
X130810000Y-73660000D02*
X130810000Y-73152000D01*
%TO.C,P6*%
X80010000Y-45720000D02*
X80010000Y-45720000D01*
X80010000Y-45720000D02*
X80010000Y-45720000D01*
X50800000Y-44450000D02*
X55880000Y-44450000D01*
X50800000Y-46990000D02*
X50800000Y-44450000D01*
X51435000Y-46990000D02*
X50800000Y-46990000D01*
X55880000Y-46990000D02*
X51435000Y-46990000D01*
X78740000Y-44450000D02*
X78740000Y-46990000D01*
X55880000Y-44450000D02*
X81280000Y-44450000D01*
X81280000Y-46990000D02*
X55880000Y-46990000D01*
X81280000Y-44450000D02*
X81280000Y-46990000D01*
X81280000Y-44450000D02*
X81280000Y-44450000D01*
%TO.C,P5*%
X60960000Y-29210000D02*
X60960000Y-31750000D01*
X50800000Y-29210000D02*
X63500000Y-29210000D01*
X50800000Y-31750000D02*
X50800000Y-29210000D01*
X63500000Y-31750000D02*
X50800000Y-31750000D01*
X63500000Y-29210000D02*
X63500000Y-31750000D01*
%TO.C,P4*%
X87630000Y-27940000D02*
X87630000Y-30480000D01*
X77470000Y-27940000D02*
X90170000Y-27940000D01*
X77470000Y-30480000D02*
X77470000Y-27940000D01*
X90170000Y-30480000D02*
X77470000Y-30480000D01*
X90170000Y-27940000D02*
X90170000Y-30480000D01*
%TO.C,R5*%
X118872000Y-69088000D02*
X118364000Y-69596000D01*
X112268000Y-67564000D02*
X112268000Y-68580000D01*
X118872000Y-67564000D02*
X112268000Y-67564000D01*
X118872000Y-69596000D02*
X118872000Y-67564000D01*
X112268000Y-69596000D02*
X118872000Y-69596000D01*
X112268000Y-68580000D02*
X112268000Y-69596000D01*
X111760000Y-68580000D02*
X112268000Y-68580000D01*
X119380000Y-68580000D02*
X118872000Y-68580000D01*
D12*
%TO.C,SW2*%
X114300000Y-29210000D02*
X114300000Y-24130000D01*
X137160000Y-29210000D02*
X114300000Y-29210000D01*
X137160000Y-24130000D02*
X137160000Y-29210000D01*
X114300000Y-24130000D02*
X137160000Y-24130000D01*
X115570000Y-27940000D02*
X114300000Y-27940000D01*
X115570000Y-25400000D02*
X115570000Y-27940000D01*
X114300000Y-25400000D02*
X115570000Y-25400000D01*
X114300000Y-25400000D02*
X114300000Y-25400000D01*
D10*
%TO.C,D8*%
X104140000Y-80721200D02*
X101600000Y-80721200D01*
D17*
X101894473Y-83466864D02*
G75*
G03*
X102870000Y-83820000I975527J1170864D01*
G01*
X102870469Y-83818111D02*
G75*
G03*
X103880920Y-83433920I-469J1522111D01*
G01*
X102869966Y-80773853D02*
G75*
G03*
X101879400Y-81140300I34J-1522147D01*
G01*
X103845527Y-81125136D02*
G75*
G03*
X102870000Y-80772000I-975527J-1170864D01*
G01*
X101982845Y-81056834D02*
G75*
G03*
X101346000Y-82296000I887155J-1239166D01*
G01*
X101346000Y-82296801D02*
G75*
G03*
X101955600Y-83515200I1524000J801D01*
G01*
X104392206Y-82295558D02*
G75*
G03*
X103804720Y-81094580I-1522206J-442D01*
G01*
X103806171Y-83498564D02*
G75*
G03*
X104394000Y-82296000I-936171J1202564D01*
G01*
X102235000Y-82296000D02*
G75*
G03*
X102870000Y-82931000I635000J0D01*
G01*
X101854000Y-82296000D02*
G75*
G03*
X102870000Y-83312000I1016000J0D01*
G01*
X103505000Y-82296000D02*
G75*
G03*
X102870000Y-81661000I-635000J0D01*
G01*
X103886000Y-82296000D02*
G75*
G03*
X102870000Y-81280000I-1016000J0D01*
G01*
D10*
X101566574Y-80737120D02*
G75*
G03*
X100838000Y-82296000I1303426J-1558880D01*
G01*
X100840540Y-82296975D02*
G75*
G03*
X101914960Y-84086700I2029460J975D01*
G01*
X104899386Y-82293448D02*
G75*
G03*
X104180640Y-80746600I-2029386J-2552D01*
G01*
X103879851Y-84059299D02*
G75*
G03*
X104902000Y-82296000I-1009851J1763299D01*
G01*
X101906653Y-84085130D02*
G75*
G03*
X102870000Y-84328000I963347J1789130D01*
G01*
X102870100Y-84326923D02*
G75*
G03*
X103934260Y-84025740I-100J2030923D01*
G01*
%TO.C,D7*%
X109220000Y-80721200D02*
X106680000Y-80721200D01*
D17*
X106974473Y-83466864D02*
G75*
G03*
X107950000Y-83820000I975527J1170864D01*
G01*
X107950469Y-83818111D02*
G75*
G03*
X108960920Y-83433920I-469J1522111D01*
G01*
X107949966Y-80773853D02*
G75*
G03*
X106959400Y-81140300I34J-1522147D01*
G01*
X108925527Y-81125136D02*
G75*
G03*
X107950000Y-80772000I-975527J-1170864D01*
G01*
X107062845Y-81056834D02*
G75*
G03*
X106426000Y-82296000I887155J-1239166D01*
G01*
X106426000Y-82296801D02*
G75*
G03*
X107035600Y-83515200I1524000J801D01*
G01*
X109472206Y-82295558D02*
G75*
G03*
X108884720Y-81094580I-1522206J-442D01*
G01*
X108886171Y-83498564D02*
G75*
G03*
X109474000Y-82296000I-936171J1202564D01*
G01*
X107315000Y-82296000D02*
G75*
G03*
X107950000Y-82931000I635000J0D01*
G01*
X106934000Y-82296000D02*
G75*
G03*
X107950000Y-83312000I1016000J0D01*
G01*
X108585000Y-82296000D02*
G75*
G03*
X107950000Y-81661000I-635000J0D01*
G01*
X108966000Y-82296000D02*
G75*
G03*
X107950000Y-81280000I-1016000J0D01*
G01*
D10*
X106646574Y-80737120D02*
G75*
G03*
X105918000Y-82296000I1303426J-1558880D01*
G01*
X105920540Y-82296975D02*
G75*
G03*
X106994960Y-84086700I2029460J975D01*
G01*
X109979386Y-82293448D02*
G75*
G03*
X109260640Y-80746600I-2029386J-2552D01*
G01*
X108959851Y-84059299D02*
G75*
G03*
X109982000Y-82296000I-1009851J1763299D01*
G01*
X106986653Y-84085130D02*
G75*
G03*
X107950000Y-84328000I963347J1789130D01*
G01*
X107950100Y-84326923D02*
G75*
G03*
X109014260Y-84025740I-100J2030923D01*
G01*
%TO.C,D6*%
X114300000Y-80721200D02*
X111760000Y-80721200D01*
D17*
X112054473Y-83466864D02*
G75*
G03*
X113030000Y-83820000I975527J1170864D01*
G01*
X113030469Y-83818111D02*
G75*
G03*
X114040920Y-83433920I-469J1522111D01*
G01*
X113029966Y-80773853D02*
G75*
G03*
X112039400Y-81140300I34J-1522147D01*
G01*
X114005527Y-81125136D02*
G75*
G03*
X113030000Y-80772000I-975527J-1170864D01*
G01*
X112142845Y-81056834D02*
G75*
G03*
X111506000Y-82296000I887155J-1239166D01*
G01*
X111506000Y-82296801D02*
G75*
G03*
X112115600Y-83515200I1524000J801D01*
G01*
X114552206Y-82295558D02*
G75*
G03*
X113964720Y-81094580I-1522206J-442D01*
G01*
X113966171Y-83498564D02*
G75*
G03*
X114554000Y-82296000I-936171J1202564D01*
G01*
X112395000Y-82296000D02*
G75*
G03*
X113030000Y-82931000I635000J0D01*
G01*
X112014000Y-82296000D02*
G75*
G03*
X113030000Y-83312000I1016000J0D01*
G01*
X113665000Y-82296000D02*
G75*
G03*
X113030000Y-81661000I-635000J0D01*
G01*
X114046000Y-82296000D02*
G75*
G03*
X113030000Y-81280000I-1016000J0D01*
G01*
D10*
X111726574Y-80737120D02*
G75*
G03*
X110998000Y-82296000I1303426J-1558880D01*
G01*
X111000540Y-82296975D02*
G75*
G03*
X112074960Y-84086700I2029460J975D01*
G01*
X115059386Y-82293448D02*
G75*
G03*
X114340640Y-80746600I-2029386J-2552D01*
G01*
X114039851Y-84059299D02*
G75*
G03*
X115062000Y-82296000I-1009851J1763299D01*
G01*
X112066653Y-84085130D02*
G75*
G03*
X113030000Y-84328000I963347J1789130D01*
G01*
X113030100Y-84326923D02*
G75*
G03*
X114094260Y-84025740I-100J2030923D01*
G01*
%TO.C,D5*%
X119380000Y-80721200D02*
X116840000Y-80721200D01*
D17*
X117134473Y-83466864D02*
G75*
G03*
X118110000Y-83820000I975527J1170864D01*
G01*
X118110469Y-83818111D02*
G75*
G03*
X119120920Y-83433920I-469J1522111D01*
G01*
X118109966Y-80773853D02*
G75*
G03*
X117119400Y-81140300I34J-1522147D01*
G01*
X119085527Y-81125136D02*
G75*
G03*
X118110000Y-80772000I-975527J-1170864D01*
G01*
X117222845Y-81056834D02*
G75*
G03*
X116586000Y-82296000I887155J-1239166D01*
G01*
X116586000Y-82296801D02*
G75*
G03*
X117195600Y-83515200I1524000J801D01*
G01*
X119632206Y-82295558D02*
G75*
G03*
X119044720Y-81094580I-1522206J-442D01*
G01*
X119046171Y-83498564D02*
G75*
G03*
X119634000Y-82296000I-936171J1202564D01*
G01*
X117475000Y-82296000D02*
G75*
G03*
X118110000Y-82931000I635000J0D01*
G01*
X117094000Y-82296000D02*
G75*
G03*
X118110000Y-83312000I1016000J0D01*
G01*
X118745000Y-82296000D02*
G75*
G03*
X118110000Y-81661000I-635000J0D01*
G01*
X119126000Y-82296000D02*
G75*
G03*
X118110000Y-81280000I-1016000J0D01*
G01*
D10*
X116806574Y-80737120D02*
G75*
G03*
X116078000Y-82296000I1303426J-1558880D01*
G01*
X116080540Y-82296975D02*
G75*
G03*
X117154960Y-84086700I2029460J975D01*
G01*
X120139386Y-82293448D02*
G75*
G03*
X119420640Y-80746600I-2029386J-2552D01*
G01*
X119119851Y-84059299D02*
G75*
G03*
X120142000Y-82296000I-1009851J1763299D01*
G01*
X117146653Y-84085130D02*
G75*
G03*
X118110000Y-84328000I963347J1789130D01*
G01*
X118110100Y-84326923D02*
G75*
G03*
X119174260Y-84025740I-100J2030923D01*
G01*
%TO.C,D4*%
X124460000Y-80721200D02*
X121920000Y-80721200D01*
D17*
X122214473Y-83466864D02*
G75*
G03*
X123190000Y-83820000I975527J1170864D01*
G01*
X123190469Y-83818111D02*
G75*
G03*
X124200920Y-83433920I-469J1522111D01*
G01*
X123189966Y-80773853D02*
G75*
G03*
X122199400Y-81140300I34J-1522147D01*
G01*
X124165527Y-81125136D02*
G75*
G03*
X123190000Y-80772000I-975527J-1170864D01*
G01*
X122302845Y-81056834D02*
G75*
G03*
X121666000Y-82296000I887155J-1239166D01*
G01*
X121666000Y-82296801D02*
G75*
G03*
X122275600Y-83515200I1524000J801D01*
G01*
X124712206Y-82295558D02*
G75*
G03*
X124124720Y-81094580I-1522206J-442D01*
G01*
X124126171Y-83498564D02*
G75*
G03*
X124714000Y-82296000I-936171J1202564D01*
G01*
X122555000Y-82296000D02*
G75*
G03*
X123190000Y-82931000I635000J0D01*
G01*
X122174000Y-82296000D02*
G75*
G03*
X123190000Y-83312000I1016000J0D01*
G01*
X123825000Y-82296000D02*
G75*
G03*
X123190000Y-81661000I-635000J0D01*
G01*
X124206000Y-82296000D02*
G75*
G03*
X123190000Y-81280000I-1016000J0D01*
G01*
D10*
X121886574Y-80737120D02*
G75*
G03*
X121158000Y-82296000I1303426J-1558880D01*
G01*
X121160540Y-82296975D02*
G75*
G03*
X122234960Y-84086700I2029460J975D01*
G01*
X125219386Y-82293448D02*
G75*
G03*
X124500640Y-80746600I-2029386J-2552D01*
G01*
X124199851Y-84059299D02*
G75*
G03*
X125222000Y-82296000I-1009851J1763299D01*
G01*
X122226653Y-84085130D02*
G75*
G03*
X123190000Y-84328000I963347J1789130D01*
G01*
X123190100Y-84326923D02*
G75*
G03*
X124254260Y-84025740I-100J2030923D01*
G01*
%TO.C,D3*%
X129540000Y-80721200D02*
X127000000Y-80721200D01*
D17*
X127294473Y-83466864D02*
G75*
G03*
X128270000Y-83820000I975527J1170864D01*
G01*
X128270469Y-83818111D02*
G75*
G03*
X129280920Y-83433920I-469J1522111D01*
G01*
X128269966Y-80773853D02*
G75*
G03*
X127279400Y-81140300I34J-1522147D01*
G01*
X129245527Y-81125136D02*
G75*
G03*
X128270000Y-80772000I-975527J-1170864D01*
G01*
X127382845Y-81056834D02*
G75*
G03*
X126746000Y-82296000I887155J-1239166D01*
G01*
X126746000Y-82296801D02*
G75*
G03*
X127355600Y-83515200I1524000J801D01*
G01*
X129792206Y-82295558D02*
G75*
G03*
X129204720Y-81094580I-1522206J-442D01*
G01*
X129206171Y-83498564D02*
G75*
G03*
X129794000Y-82296000I-936171J1202564D01*
G01*
X127635000Y-82296000D02*
G75*
G03*
X128270000Y-82931000I635000J0D01*
G01*
X127254000Y-82296000D02*
G75*
G03*
X128270000Y-83312000I1016000J0D01*
G01*
X128905000Y-82296000D02*
G75*
G03*
X128270000Y-81661000I-635000J0D01*
G01*
X129286000Y-82296000D02*
G75*
G03*
X128270000Y-81280000I-1016000J0D01*
G01*
D10*
X126966574Y-80737120D02*
G75*
G03*
X126238000Y-82296000I1303426J-1558880D01*
G01*
X126240540Y-82296975D02*
G75*
G03*
X127314960Y-84086700I2029460J975D01*
G01*
X130299386Y-82293448D02*
G75*
G03*
X129580640Y-80746600I-2029386J-2552D01*
G01*
X129279851Y-84059299D02*
G75*
G03*
X130302000Y-82296000I-1009851J1763299D01*
G01*
X127306653Y-84085130D02*
G75*
G03*
X128270000Y-84328000I963347J1789130D01*
G01*
X128270100Y-84326923D02*
G75*
G03*
X129334260Y-84025740I-100J2030923D01*
G01*
%TO.C,D2*%
X134620000Y-80721200D02*
X132080000Y-80721200D01*
D17*
X132374473Y-83466864D02*
G75*
G03*
X133350000Y-83820000I975527J1170864D01*
G01*
X133350469Y-83818111D02*
G75*
G03*
X134360920Y-83433920I-469J1522111D01*
G01*
X133349966Y-80773853D02*
G75*
G03*
X132359400Y-81140300I34J-1522147D01*
G01*
X134325527Y-81125136D02*
G75*
G03*
X133350000Y-80772000I-975527J-1170864D01*
G01*
X132462845Y-81056834D02*
G75*
G03*
X131826000Y-82296000I887155J-1239166D01*
G01*
X131826000Y-82296801D02*
G75*
G03*
X132435600Y-83515200I1524000J801D01*
G01*
X134872206Y-82295558D02*
G75*
G03*
X134284720Y-81094580I-1522206J-442D01*
G01*
X134286171Y-83498564D02*
G75*
G03*
X134874000Y-82296000I-936171J1202564D01*
G01*
X132715000Y-82296000D02*
G75*
G03*
X133350000Y-82931000I635000J0D01*
G01*
X132334000Y-82296000D02*
G75*
G03*
X133350000Y-83312000I1016000J0D01*
G01*
X133985000Y-82296000D02*
G75*
G03*
X133350000Y-81661000I-635000J0D01*
G01*
X134366000Y-82296000D02*
G75*
G03*
X133350000Y-81280000I-1016000J0D01*
G01*
D10*
X132046574Y-80737120D02*
G75*
G03*
X131318000Y-82296000I1303426J-1558880D01*
G01*
X131320540Y-82296975D02*
G75*
G03*
X132394960Y-84086700I2029460J975D01*
G01*
X135379386Y-82293448D02*
G75*
G03*
X134660640Y-80746600I-2029386J-2552D01*
G01*
X134359851Y-84059299D02*
G75*
G03*
X135382000Y-82296000I-1009851J1763299D01*
G01*
X132386653Y-84085130D02*
G75*
G03*
X133350000Y-84328000I963347J1789130D01*
G01*
X133350100Y-84326923D02*
G75*
G03*
X134414260Y-84025740I-100J2030923D01*
G01*
%TO.C,D1*%
X139700000Y-80721200D02*
X137160000Y-80721200D01*
D17*
X137454473Y-83466864D02*
G75*
G03*
X138430000Y-83820000I975527J1170864D01*
G01*
X138430469Y-83818111D02*
G75*
G03*
X139440920Y-83433920I-469J1522111D01*
G01*
X138429966Y-80773853D02*
G75*
G03*
X137439400Y-81140300I34J-1522147D01*
G01*
X139405527Y-81125136D02*
G75*
G03*
X138430000Y-80772000I-975527J-1170864D01*
G01*
X137542845Y-81056834D02*
G75*
G03*
X136906000Y-82296000I887155J-1239166D01*
G01*
X136906000Y-82296801D02*
G75*
G03*
X137515600Y-83515200I1524000J801D01*
G01*
X139952206Y-82295558D02*
G75*
G03*
X139364720Y-81094580I-1522206J-442D01*
G01*
X139366171Y-83498564D02*
G75*
G03*
X139954000Y-82296000I-936171J1202564D01*
G01*
X137795000Y-82296000D02*
G75*
G03*
X138430000Y-82931000I635000J0D01*
G01*
X137414000Y-82296000D02*
G75*
G03*
X138430000Y-83312000I1016000J0D01*
G01*
X139065000Y-82296000D02*
G75*
G03*
X138430000Y-81661000I-635000J0D01*
G01*
X139446000Y-82296000D02*
G75*
G03*
X138430000Y-81280000I-1016000J0D01*
G01*
D10*
X137126574Y-80737120D02*
G75*
G03*
X136398000Y-82296000I1303426J-1558880D01*
G01*
X136400540Y-82296975D02*
G75*
G03*
X137474960Y-84086700I2029460J975D01*
G01*
X140459386Y-82293448D02*
G75*
G03*
X139740640Y-80746600I-2029386J-2552D01*
G01*
X139439851Y-84059299D02*
G75*
G03*
X140462000Y-82296000I-1009851J1763299D01*
G01*
X137466653Y-84085130D02*
G75*
G03*
X138430000Y-84328000I963347J1789130D01*
G01*
X138430100Y-84326923D02*
G75*
G03*
X139494260Y-84025740I-100J2030923D01*
G01*
D15*
%TO.C,R23*%
X135128000Y-37338000D02*
X135636000Y-37846000D01*
X133604000Y-43942000D02*
X134620000Y-43942000D01*
X133604000Y-37338000D02*
X133604000Y-43942000D01*
X135636000Y-37338000D02*
X133604000Y-37338000D01*
X135636000Y-43942000D02*
X135636000Y-37338000D01*
X134620000Y-43942000D02*
X135636000Y-43942000D01*
X134620000Y-44450000D02*
X134620000Y-43942000D01*
X134620000Y-36830000D02*
X134620000Y-37338000D01*
%TO.C,R22*%
X132588000Y-37338000D02*
X133096000Y-37846000D01*
X131064000Y-43942000D02*
X132080000Y-43942000D01*
X131064000Y-37338000D02*
X131064000Y-43942000D01*
X133096000Y-37338000D02*
X131064000Y-37338000D01*
X133096000Y-43942000D02*
X133096000Y-37338000D01*
X132080000Y-43942000D02*
X133096000Y-43942000D01*
X132080000Y-44450000D02*
X132080000Y-43942000D01*
X132080000Y-36830000D02*
X132080000Y-37338000D01*
%TO.C,R21*%
X130048000Y-37338000D02*
X130556000Y-37846000D01*
X128524000Y-43942000D02*
X129540000Y-43942000D01*
X128524000Y-37338000D02*
X128524000Y-43942000D01*
X130556000Y-37338000D02*
X128524000Y-37338000D01*
X130556000Y-43942000D02*
X130556000Y-37338000D01*
X129540000Y-43942000D02*
X130556000Y-43942000D01*
X129540000Y-44450000D02*
X129540000Y-43942000D01*
X129540000Y-36830000D02*
X129540000Y-37338000D01*
%TO.C,R20*%
X124968000Y-37338000D02*
X125476000Y-37846000D01*
X123444000Y-43942000D02*
X124460000Y-43942000D01*
X123444000Y-37338000D02*
X123444000Y-43942000D01*
X125476000Y-37338000D02*
X123444000Y-37338000D01*
X125476000Y-43942000D02*
X125476000Y-37338000D01*
X124460000Y-43942000D02*
X125476000Y-43942000D01*
X124460000Y-44450000D02*
X124460000Y-43942000D01*
X124460000Y-36830000D02*
X124460000Y-37338000D01*
%TO.C,R19*%
X122428000Y-37338000D02*
X122936000Y-37846000D01*
X120904000Y-43942000D02*
X121920000Y-43942000D01*
X120904000Y-37338000D02*
X120904000Y-43942000D01*
X122936000Y-37338000D02*
X120904000Y-37338000D01*
X122936000Y-43942000D02*
X122936000Y-37338000D01*
X121920000Y-43942000D02*
X122936000Y-43942000D01*
X121920000Y-44450000D02*
X121920000Y-43942000D01*
X121920000Y-36830000D02*
X121920000Y-37338000D01*
%TO.C,R18*%
X119888000Y-37338000D02*
X120396000Y-37846000D01*
X118364000Y-43942000D02*
X119380000Y-43942000D01*
X118364000Y-37338000D02*
X118364000Y-43942000D01*
X120396000Y-37338000D02*
X118364000Y-37338000D01*
X120396000Y-43942000D02*
X120396000Y-37338000D01*
X119380000Y-43942000D02*
X120396000Y-43942000D01*
X119380000Y-44450000D02*
X119380000Y-43942000D01*
X119380000Y-36830000D02*
X119380000Y-37338000D01*
%TO.C,R17*%
X117348000Y-37338000D02*
X117856000Y-37846000D01*
X115824000Y-43942000D02*
X116840000Y-43942000D01*
X115824000Y-37338000D02*
X115824000Y-43942000D01*
X117856000Y-37338000D02*
X115824000Y-37338000D01*
X117856000Y-43942000D02*
X117856000Y-37338000D01*
X116840000Y-43942000D02*
X117856000Y-43942000D01*
X116840000Y-44450000D02*
X116840000Y-43942000D01*
X116840000Y-36830000D02*
X116840000Y-37338000D01*
%TO.C,R16*%
X114808000Y-37338000D02*
X115316000Y-37846000D01*
X113284000Y-43942000D02*
X114300000Y-43942000D01*
X113284000Y-37338000D02*
X113284000Y-43942000D01*
X115316000Y-37338000D02*
X113284000Y-37338000D01*
X115316000Y-43942000D02*
X115316000Y-37338000D01*
X114300000Y-43942000D02*
X115316000Y-43942000D01*
X114300000Y-44450000D02*
X114300000Y-43942000D01*
X114300000Y-36830000D02*
X114300000Y-37338000D01*
%TO.C,R15*%
X109728000Y-37338000D02*
X110236000Y-37846000D01*
X108204000Y-43942000D02*
X109220000Y-43942000D01*
X108204000Y-37338000D02*
X108204000Y-43942000D01*
X110236000Y-37338000D02*
X108204000Y-37338000D01*
X110236000Y-43942000D02*
X110236000Y-37338000D01*
X109220000Y-43942000D02*
X110236000Y-43942000D01*
X109220000Y-44450000D02*
X109220000Y-43942000D01*
X109220000Y-36830000D02*
X109220000Y-37338000D01*
%TO.C,R14*%
X94742000Y-28702000D02*
X94234000Y-28194000D01*
X96266000Y-22098000D02*
X95250000Y-22098000D01*
X96266000Y-28702000D02*
X96266000Y-22098000D01*
X94234000Y-28702000D02*
X96266000Y-28702000D01*
X94234000Y-22098000D02*
X94234000Y-28702000D01*
X95250000Y-22098000D02*
X94234000Y-22098000D01*
X95250000Y-21590000D02*
X95250000Y-22098000D01*
X95250000Y-29210000D02*
X95250000Y-28702000D01*
%TO.C,R13*%
X62738000Y-59563000D02*
X63246000Y-60071000D01*
X61214000Y-66167000D02*
X62230000Y-66167000D01*
X61214000Y-59563000D02*
X61214000Y-66167000D01*
X63246000Y-59563000D02*
X61214000Y-59563000D01*
X63246000Y-66167000D02*
X63246000Y-59563000D01*
X62230000Y-66167000D02*
X63246000Y-66167000D01*
X62230000Y-66675000D02*
X62230000Y-66167000D01*
X62230000Y-59055000D02*
X62230000Y-59563000D01*
%TO.C,R12*%
X71882000Y-82042000D02*
X71374000Y-81534000D01*
X73406000Y-75438000D02*
X72390000Y-75438000D01*
X73406000Y-82042000D02*
X73406000Y-75438000D01*
X71374000Y-82042000D02*
X73406000Y-82042000D01*
X71374000Y-75438000D02*
X71374000Y-82042000D01*
X72390000Y-75438000D02*
X71374000Y-75438000D01*
X72390000Y-74930000D02*
X72390000Y-75438000D01*
X72390000Y-82550000D02*
X72390000Y-82042000D01*
%TO.C,R11*%
X83312000Y-52832000D02*
X82804000Y-52324000D01*
X84836000Y-46228000D02*
X83820000Y-46228000D01*
X84836000Y-52832000D02*
X84836000Y-46228000D01*
X82804000Y-52832000D02*
X84836000Y-52832000D01*
X82804000Y-46228000D02*
X82804000Y-52832000D01*
X83820000Y-46228000D02*
X82804000Y-46228000D01*
X83820000Y-45720000D02*
X83820000Y-46228000D01*
X83820000Y-53340000D02*
X83820000Y-52832000D01*
%TO.C,R10*%
X90678000Y-34798000D02*
X91186000Y-35306000D01*
X89154000Y-41402000D02*
X90170000Y-41402000D01*
X89154000Y-34798000D02*
X89154000Y-41402000D01*
X91186000Y-34798000D02*
X89154000Y-34798000D01*
X91186000Y-41402000D02*
X91186000Y-34798000D01*
X90170000Y-41402000D02*
X91186000Y-41402000D01*
X90170000Y-41910000D02*
X90170000Y-41402000D01*
X90170000Y-34290000D02*
X90170000Y-34798000D01*
%TO.C,R9*%
X83312000Y-41402000D02*
X82804000Y-40894000D01*
X84836000Y-34798000D02*
X83820000Y-34798000D01*
X84836000Y-41402000D02*
X84836000Y-34798000D01*
X82804000Y-41402000D02*
X84836000Y-41402000D01*
X82804000Y-34798000D02*
X82804000Y-41402000D01*
X83820000Y-34798000D02*
X82804000Y-34798000D01*
X83820000Y-34290000D02*
X83820000Y-34798000D01*
X83820000Y-41910000D02*
X83820000Y-41402000D01*
%TO.C,R8*%
X118872000Y-76708000D02*
X118364000Y-77216000D01*
X112268000Y-75184000D02*
X112268000Y-76200000D01*
X118872000Y-75184000D02*
X112268000Y-75184000D01*
X118872000Y-77216000D02*
X118872000Y-75184000D01*
X112268000Y-77216000D02*
X118872000Y-77216000D01*
X112268000Y-76200000D02*
X112268000Y-77216000D01*
X111760000Y-76200000D02*
X112268000Y-76200000D01*
X119380000Y-76200000D02*
X118872000Y-76200000D01*
%TO.C,R7*%
X118872000Y-74168000D02*
X118364000Y-74676000D01*
X112268000Y-72644000D02*
X112268000Y-73660000D01*
X118872000Y-72644000D02*
X112268000Y-72644000D01*
X118872000Y-74676000D02*
X118872000Y-72644000D01*
X112268000Y-74676000D02*
X118872000Y-74676000D01*
X112268000Y-73660000D02*
X112268000Y-74676000D01*
X111760000Y-73660000D02*
X112268000Y-73660000D01*
X119380000Y-73660000D02*
X118872000Y-73660000D01*
%TO.C,R6*%
X118872000Y-71628000D02*
X118364000Y-72136000D01*
X112268000Y-70104000D02*
X112268000Y-71120000D01*
X118872000Y-70104000D02*
X112268000Y-70104000D01*
X118872000Y-72136000D02*
X118872000Y-70104000D01*
X112268000Y-72136000D02*
X118872000Y-72136000D01*
X112268000Y-71120000D02*
X112268000Y-72136000D01*
X111760000Y-71120000D02*
X112268000Y-71120000D01*
X119380000Y-71120000D02*
X118872000Y-71120000D01*
%TO.C,RR1*%
X115570000Y-33020000D02*
X115570000Y-35560000D01*
X135890000Y-33020000D02*
X113030000Y-33020000D01*
X113030000Y-35560000D02*
X113030000Y-33020000D01*
X135890000Y-35560000D02*
X113030000Y-35560000D01*
X135890000Y-33020000D02*
X135890000Y-35560000D01*
D16*
%TO.C,SW1*%
X101600000Y-26670000D02*
X101600000Y-34290000D01*
X109220000Y-34290000D02*
X101600000Y-34290000D01*
X109220000Y-26670000D02*
X109220000Y-34290000D01*
X101600000Y-26670000D02*
X109220000Y-26670000D01*
X107950000Y-30480000D02*
G75*
G03*
X107950000Y-30480000I-2540000J0D01*
G01*
D15*
%TO.C,P7*%
X74930000Y-55880000D02*
X77470000Y-55880000D01*
X74930000Y-68580000D02*
X74930000Y-53340000D01*
X77470000Y-68580000D02*
X74930000Y-68580000D01*
X77470000Y-53340000D02*
X77470000Y-68580000D01*
X74930000Y-53340000D02*
X77470000Y-53340000D01*
%TO.C,P8*%
X81280000Y-81280000D02*
X81280000Y-78740000D01*
X78740000Y-81280000D02*
X78740000Y-78740000D01*
X99060000Y-81280000D02*
X78740000Y-81280000D01*
X99060000Y-78740000D02*
X99060000Y-81280000D01*
X78740000Y-78740000D02*
X99060000Y-78740000D01*
%TO.C,R24*%
X145288000Y-66548000D02*
X145796000Y-67056000D01*
X143764000Y-73152000D02*
X144780000Y-73152000D01*
X143764000Y-66548000D02*
X143764000Y-73152000D01*
X145796000Y-66548000D02*
X143764000Y-66548000D01*
X145796000Y-73152000D02*
X145796000Y-66548000D01*
X144780000Y-73152000D02*
X145796000Y-73152000D01*
X144780000Y-73660000D02*
X144780000Y-73152000D01*
X144780000Y-66040000D02*
X144780000Y-66548000D01*
%TO.C,P2*%
X137214428Y-54464857D02*
X135690428Y-54464857D01*
X135690428Y-53884285D01*
X135763000Y-53739142D01*
X135835571Y-53666571D01*
X135980714Y-53594000D01*
X136198428Y-53594000D01*
X136343571Y-53666571D01*
X136416142Y-53739142D01*
X136488714Y-53884285D01*
X136488714Y-54464857D01*
X135835571Y-53013428D02*
X135763000Y-52940857D01*
X135690428Y-52795714D01*
X135690428Y-52432857D01*
X135763000Y-52287714D01*
X135835571Y-52215142D01*
X135980714Y-52142571D01*
X136125857Y-52142571D01*
X136343571Y-52215142D01*
X137214428Y-53086000D01*
X137214428Y-52142571D01*
%TO.C,C4*%
D11*
X131868333Y-57603571D02*
X131807857Y-57664047D01*
X131626428Y-57724523D01*
X131505476Y-57724523D01*
X131324047Y-57664047D01*
X131203095Y-57543095D01*
X131142619Y-57422142D01*
X131082142Y-57180238D01*
X131082142Y-56998809D01*
X131142619Y-56756904D01*
X131203095Y-56635952D01*
X131324047Y-56515000D01*
X131505476Y-56454523D01*
X131626428Y-56454523D01*
X131807857Y-56515000D01*
X131868333Y-56575476D01*
X132956904Y-56877857D02*
X132956904Y-57724523D01*
X132654523Y-56394047D02*
X132352142Y-57301190D01*
X133138333Y-57301190D01*
D14*
X132134428Y-51344285D02*
X132134428Y-50763714D01*
X132424714Y-51054000D02*
X131844142Y-51054000D01*
%TO.C,C5*%
D11*
X51797857Y-49064333D02*
X51846238Y-49112714D01*
X51894619Y-49257857D01*
X51894619Y-49354619D01*
X51846238Y-49499761D01*
X51749476Y-49596523D01*
X51652714Y-49644904D01*
X51459190Y-49693285D01*
X51314047Y-49693285D01*
X51120523Y-49644904D01*
X51023761Y-49596523D01*
X50927000Y-49499761D01*
X50878619Y-49354619D01*
X50878619Y-49257857D01*
X50927000Y-49112714D01*
X50975380Y-49064333D01*
X50878619Y-48145095D02*
X50878619Y-48628904D01*
X51362428Y-48677285D01*
X51314047Y-48628904D01*
X51265666Y-48532142D01*
X51265666Y-48290238D01*
X51314047Y-48193476D01*
X51362428Y-48145095D01*
X51459190Y-48096714D01*
X51701095Y-48096714D01*
X51797857Y-48145095D01*
X51846238Y-48193476D01*
X51894619Y-48290238D01*
X51894619Y-48532142D01*
X51846238Y-48628904D01*
X51797857Y-48677285D01*
%TO.C,C3*%
X115400666Y-64497857D02*
X115352285Y-64546238D01*
X115207142Y-64594619D01*
X115110380Y-64594619D01*
X114965238Y-64546238D01*
X114868476Y-64449476D01*
X114820095Y-64352714D01*
X114771714Y-64159190D01*
X114771714Y-64014047D01*
X114820095Y-63820523D01*
X114868476Y-63723761D01*
X114965238Y-63627000D01*
X115110380Y-63578619D01*
X115207142Y-63578619D01*
X115352285Y-63627000D01*
X115400666Y-63675380D01*
X115739333Y-63578619D02*
X116368285Y-63578619D01*
X116029619Y-63965666D01*
X116174761Y-63965666D01*
X116271523Y-64014047D01*
X116319904Y-64062428D01*
X116368285Y-64159190D01*
X116368285Y-64401095D01*
X116319904Y-64497857D01*
X116271523Y-64546238D01*
X116174761Y-64594619D01*
X115884476Y-64594619D01*
X115787714Y-64546238D01*
X115739333Y-64497857D01*
%TO.C,C2*%
X112860666Y-61322857D02*
X112812285Y-61371238D01*
X112667142Y-61419619D01*
X112570380Y-61419619D01*
X112425238Y-61371238D01*
X112328476Y-61274476D01*
X112280095Y-61177714D01*
X112231714Y-60984190D01*
X112231714Y-60839047D01*
X112280095Y-60645523D01*
X112328476Y-60548761D01*
X112425238Y-60452000D01*
X112570380Y-60403619D01*
X112667142Y-60403619D01*
X112812285Y-60452000D01*
X112860666Y-60500380D01*
X113247714Y-60500380D02*
X113296095Y-60452000D01*
X113392857Y-60403619D01*
X113634761Y-60403619D01*
X113731523Y-60452000D01*
X113779904Y-60500380D01*
X113828285Y-60597142D01*
X113828285Y-60693904D01*
X113779904Y-60839047D01*
X113199333Y-61419619D01*
X113828285Y-61419619D01*
%TO.C,C1*%
X100160666Y-75292857D02*
X100112285Y-75341238D01*
X99967142Y-75389619D01*
X99870380Y-75389619D01*
X99725238Y-75341238D01*
X99628476Y-75244476D01*
X99580095Y-75147714D01*
X99531714Y-74954190D01*
X99531714Y-74809047D01*
X99580095Y-74615523D01*
X99628476Y-74518761D01*
X99725238Y-74422000D01*
X99870380Y-74373619D01*
X99967142Y-74373619D01*
X100112285Y-74422000D01*
X100160666Y-74470380D01*
X101128285Y-75389619D02*
X100547714Y-75389619D01*
X100838000Y-75389619D02*
X100838000Y-74373619D01*
X100741238Y-74518761D01*
X100644476Y-74615523D01*
X100547714Y-74663904D01*
%TO.C,P1*%
X58752619Y-78679523D02*
X58752619Y-77409523D01*
X59236428Y-77409523D01*
X59357380Y-77470000D01*
X59417857Y-77530476D01*
X59478333Y-77651428D01*
X59478333Y-77832857D01*
X59417857Y-77953809D01*
X59357380Y-78014285D01*
X59236428Y-78074761D01*
X58752619Y-78074761D01*
X60687857Y-78679523D02*
X59962142Y-78679523D01*
X60325000Y-78679523D02*
X60325000Y-77409523D01*
X60204047Y-77590952D01*
X60083095Y-77711904D01*
X59962142Y-77772380D01*
%TO.C,U1*%
D15*
X90085333Y-46651333D02*
X90085333Y-48090666D01*
X90170000Y-48260000D01*
X90254666Y-48344666D01*
X90424000Y-48429333D01*
X90762666Y-48429333D01*
X90932000Y-48344666D01*
X91016666Y-48260000D01*
X91101333Y-48090666D01*
X91101333Y-46651333D01*
X92879333Y-48429333D02*
X91863333Y-48429333D01*
X92371333Y-48429333D02*
X92371333Y-46651333D01*
X92202000Y-46905333D01*
X92032666Y-47074666D01*
X91863333Y-47159333D01*
%TO.C,R1*%
D11*
X139061976Y-63076666D02*
X138396738Y-63500000D01*
X139061976Y-63802380D02*
X137664976Y-63802380D01*
X137664976Y-63318571D01*
X137731500Y-63197619D01*
X137798023Y-63137142D01*
X137931071Y-63076666D01*
X138130642Y-63076666D01*
X138263690Y-63137142D01*
X138330214Y-63197619D01*
X138396738Y-63318571D01*
X138396738Y-63802380D01*
X139061976Y-61867142D02*
X139061976Y-62592857D01*
X139061976Y-62230000D02*
X137664976Y-62230000D01*
X137864547Y-62350952D01*
X137997595Y-62471904D01*
X138064119Y-62592857D01*
%TO.C,R2*%
X136521976Y-63076666D02*
X135856738Y-63500000D01*
X136521976Y-63802380D02*
X135124976Y-63802380D01*
X135124976Y-63318571D01*
X135191500Y-63197619D01*
X135258023Y-63137142D01*
X135391071Y-63076666D01*
X135590642Y-63076666D01*
X135723690Y-63137142D01*
X135790214Y-63197619D01*
X135856738Y-63318571D01*
X135856738Y-63802380D01*
X135258023Y-62592857D02*
X135191500Y-62532380D01*
X135124976Y-62411428D01*
X135124976Y-62109047D01*
X135191500Y-61988095D01*
X135258023Y-61927619D01*
X135391071Y-61867142D01*
X135524119Y-61867142D01*
X135723690Y-61927619D01*
X136521976Y-62653333D01*
X136521976Y-61867142D01*
%TO.C,C8*%
X65870666Y-21952857D02*
X65822285Y-22001238D01*
X65677142Y-22049619D01*
X65580380Y-22049619D01*
X65435238Y-22001238D01*
X65338476Y-21904476D01*
X65290095Y-21807714D01*
X65241714Y-21614190D01*
X65241714Y-21469047D01*
X65290095Y-21275523D01*
X65338476Y-21178761D01*
X65435238Y-21082000D01*
X65580380Y-21033619D01*
X65677142Y-21033619D01*
X65822285Y-21082000D01*
X65870666Y-21130380D01*
X66451238Y-21469047D02*
X66354476Y-21420666D01*
X66306095Y-21372285D01*
X66257714Y-21275523D01*
X66257714Y-21227142D01*
X66306095Y-21130380D01*
X66354476Y-21082000D01*
X66451238Y-21033619D01*
X66644761Y-21033619D01*
X66741523Y-21082000D01*
X66789904Y-21130380D01*
X66838285Y-21227142D01*
X66838285Y-21275523D01*
X66789904Y-21372285D01*
X66741523Y-21420666D01*
X66644761Y-21469047D01*
X66451238Y-21469047D01*
X66354476Y-21517428D01*
X66306095Y-21565809D01*
X66257714Y-21662571D01*
X66257714Y-21856095D01*
X66306095Y-21952857D01*
X66354476Y-22001238D01*
X66451238Y-22049619D01*
X66644761Y-22049619D01*
X66741523Y-22001238D01*
X66789904Y-21952857D01*
X66838285Y-21856095D01*
X66838285Y-21662571D01*
X66789904Y-21565809D01*
X66741523Y-21517428D01*
X66644761Y-21469047D01*
%TO.C,C7*%
X73744666Y-22206857D02*
X73696285Y-22255238D01*
X73551142Y-22303619D01*
X73454380Y-22303619D01*
X73309238Y-22255238D01*
X73212476Y-22158476D01*
X73164095Y-22061714D01*
X73115714Y-21868190D01*
X73115714Y-21723047D01*
X73164095Y-21529523D01*
X73212476Y-21432761D01*
X73309238Y-21336000D01*
X73454380Y-21287619D01*
X73551142Y-21287619D01*
X73696285Y-21336000D01*
X73744666Y-21384380D01*
X74083333Y-21287619D02*
X74760666Y-21287619D01*
X74325238Y-22303619D01*
%TO.C,C6*%
X86190666Y-43542857D02*
X86142285Y-43591238D01*
X85997142Y-43639619D01*
X85900380Y-43639619D01*
X85755238Y-43591238D01*
X85658476Y-43494476D01*
X85610095Y-43397714D01*
X85561714Y-43204190D01*
X85561714Y-43059047D01*
X85610095Y-42865523D01*
X85658476Y-42768761D01*
X85755238Y-42672000D01*
X85900380Y-42623619D01*
X85997142Y-42623619D01*
X86142285Y-42672000D01*
X86190666Y-42720380D01*
X87061523Y-42623619D02*
X86868000Y-42623619D01*
X86771238Y-42672000D01*
X86722857Y-42720380D01*
X86626095Y-42865523D01*
X86577714Y-43059047D01*
X86577714Y-43446095D01*
X86626095Y-43542857D01*
X86674476Y-43591238D01*
X86771238Y-43639619D01*
X86964761Y-43639619D01*
X87061523Y-43591238D01*
X87109904Y-43542857D01*
X87158285Y-43446095D01*
X87158285Y-43204190D01*
X87109904Y-43107428D01*
X87061523Y-43059047D01*
X86964761Y-43010666D01*
X86771238Y-43010666D01*
X86674476Y-43059047D01*
X86626095Y-43107428D01*
X86577714Y-43204190D01*
%TO.C,X1*%
X75806904Y-25974523D02*
X76653571Y-27244523D01*
X76653571Y-25974523D02*
X75806904Y-27244523D01*
X77802619Y-27244523D02*
X77076904Y-27244523D01*
X77439761Y-27244523D02*
X77439761Y-25974523D01*
X77318809Y-26155952D01*
X77197857Y-26276904D01*
X77076904Y-26337380D01*
%TO.C,P3*%
X94500095Y-33479619D02*
X94500095Y-32463619D01*
X94887142Y-32463619D01*
X94983904Y-32512000D01*
X95032285Y-32560380D01*
X95080666Y-32657142D01*
X95080666Y-32802285D01*
X95032285Y-32899047D01*
X94983904Y-32947428D01*
X94887142Y-32995809D01*
X94500095Y-32995809D01*
X95419333Y-32463619D02*
X96048285Y-32463619D01*
X95709619Y-32850666D01*
X95854761Y-32850666D01*
X95951523Y-32899047D01*
X95999904Y-32947428D01*
X96048285Y-33044190D01*
X96048285Y-33286095D01*
X95999904Y-33382857D01*
X95951523Y-33431238D01*
X95854761Y-33479619D01*
X95564476Y-33479619D01*
X95467714Y-33431238D01*
X95419333Y-33382857D01*
%TO.C,R3*%
X133981976Y-63076666D02*
X133316738Y-63500000D01*
X133981976Y-63802380D02*
X132584976Y-63802380D01*
X132584976Y-63318571D01*
X132651500Y-63197619D01*
X132718023Y-63137142D01*
X132851071Y-63076666D01*
X133050642Y-63076666D01*
X133183690Y-63137142D01*
X133250214Y-63197619D01*
X133316738Y-63318571D01*
X133316738Y-63802380D01*
X132584976Y-62653333D02*
X132584976Y-61867142D01*
X133117166Y-62290476D01*
X133117166Y-62109047D01*
X133183690Y-61988095D01*
X133250214Y-61927619D01*
X133383261Y-61867142D01*
X133715880Y-61867142D01*
X133848928Y-61927619D01*
X133915452Y-61988095D01*
X133981976Y-62109047D01*
X133981976Y-62471904D01*
X133915452Y-62592857D01*
X133848928Y-62653333D01*
%TO.C,IC1*%
D18*
X52874333Y-39215785D02*
X51096333Y-39215785D01*
X52705000Y-38018357D02*
X52789666Y-38072785D01*
X52874333Y-38236071D01*
X52874333Y-38344928D01*
X52789666Y-38508214D01*
X52620333Y-38617071D01*
X52451000Y-38671500D01*
X52112333Y-38725928D01*
X51858333Y-38725928D01*
X51519666Y-38671500D01*
X51350333Y-38617071D01*
X51181000Y-38508214D01*
X51096333Y-38344928D01*
X51096333Y-38236071D01*
X51181000Y-38072785D01*
X51265666Y-38018357D01*
X52874333Y-36929785D02*
X52874333Y-37582928D01*
X52874333Y-37256357D02*
X51096333Y-37256357D01*
X51350333Y-37365214D01*
X51519666Y-37474071D01*
X51604333Y-37582928D01*
D19*
%TO.C,R4*%
D11*
X131441976Y-63076666D02*
X130776738Y-63500000D01*
X131441976Y-63802380D02*
X130044976Y-63802380D01*
X130044976Y-63318571D01*
X130111500Y-63197619D01*
X130178023Y-63137142D01*
X130311071Y-63076666D01*
X130510642Y-63076666D01*
X130643690Y-63137142D01*
X130710214Y-63197619D01*
X130776738Y-63318571D01*
X130776738Y-63802380D01*
X130510642Y-61988095D02*
X131441976Y-61988095D01*
X129978452Y-62290476D02*
X130976309Y-62592857D01*
X130976309Y-61806666D01*
%TO.C,P6*%
X81165095Y-44274619D02*
X81165095Y-43258619D01*
X81552142Y-43258619D01*
X81648904Y-43307000D01*
X81697285Y-43355380D01*
X81745666Y-43452142D01*
X81745666Y-43597285D01*
X81697285Y-43694047D01*
X81648904Y-43742428D01*
X81552142Y-43790809D01*
X81165095Y-43790809D01*
X82616523Y-43258619D02*
X82423000Y-43258619D01*
X82326238Y-43307000D01*
X82277857Y-43355380D01*
X82181095Y-43500523D01*
X82132714Y-43694047D01*
X82132714Y-44081095D01*
X82181095Y-44177857D01*
X82229476Y-44226238D01*
X82326238Y-44274619D01*
X82519761Y-44274619D01*
X82616523Y-44226238D01*
X82664904Y-44177857D01*
X82713285Y-44081095D01*
X82713285Y-43839190D01*
X82664904Y-43742428D01*
X82616523Y-43694047D01*
X82519761Y-43645666D01*
X82326238Y-43645666D01*
X82229476Y-43694047D01*
X82181095Y-43742428D01*
X82132714Y-43839190D01*
%TO.C,P5*%
X58940095Y-25224619D02*
X58940095Y-24208619D01*
X59327142Y-24208619D01*
X59423904Y-24257000D01*
X59472285Y-24305380D01*
X59520666Y-24402142D01*
X59520666Y-24547285D01*
X59472285Y-24644047D01*
X59423904Y-24692428D01*
X59327142Y-24740809D01*
X58940095Y-24740809D01*
X60439904Y-24208619D02*
X59956095Y-24208619D01*
X59907714Y-24692428D01*
X59956095Y-24644047D01*
X60052857Y-24595666D01*
X60294761Y-24595666D01*
X60391523Y-24644047D01*
X60439904Y-24692428D01*
X60488285Y-24789190D01*
X60488285Y-25031095D01*
X60439904Y-25127857D01*
X60391523Y-25176238D01*
X60294761Y-25224619D01*
X60052857Y-25224619D01*
X59956095Y-25176238D01*
X59907714Y-25127857D01*
%TO.C,P4*%
D20*
X90637601Y-32532501D02*
X90637601Y-30802761D01*
X91051742Y-30802761D01*
X91155278Y-30885130D01*
X91207045Y-30967498D01*
X91258813Y-31132235D01*
X91258813Y-31379341D01*
X91207045Y-31544078D01*
X91155278Y-31626447D01*
X91051742Y-31708815D01*
X90637601Y-31708815D01*
X92190630Y-31379341D02*
X92190630Y-32532501D01*
X91931792Y-30720392D02*
X91672954Y-31955921D01*
X92345933Y-31955921D01*
%TO.C,R5*%
D11*
X122343333Y-69211976D02*
X121920000Y-68546738D01*
X121617619Y-69211976D02*
X121617619Y-67814976D01*
X122101428Y-67814976D01*
X122222380Y-67881500D01*
X122282857Y-67948023D01*
X122343333Y-68081071D01*
X122343333Y-68280642D01*
X122282857Y-68413690D01*
X122222380Y-68480214D01*
X122101428Y-68546738D01*
X121617619Y-68546738D01*
X123492380Y-67814976D02*
X122887619Y-67814976D01*
X122827142Y-68480214D01*
X122887619Y-68413690D01*
X123008571Y-68347166D01*
X123310952Y-68347166D01*
X123431904Y-68413690D01*
X123492380Y-68480214D01*
X123552857Y-68613261D01*
X123552857Y-68945880D01*
X123492380Y-69078928D01*
X123431904Y-69145452D01*
X123310952Y-69211976D01*
X123008571Y-69211976D01*
X122887619Y-69145452D01*
X122827142Y-69078928D01*
%TO.C,SW2*%
D18*
X138176000Y-27286857D02*
X138339285Y-27359428D01*
X138611428Y-27359428D01*
X138720285Y-27286857D01*
X138774714Y-27214285D01*
X138829142Y-27069142D01*
X138829142Y-26924000D01*
X138774714Y-26778857D01*
X138720285Y-26706285D01*
X138611428Y-26633714D01*
X138393714Y-26561142D01*
X138284857Y-26488571D01*
X138230428Y-26416000D01*
X138176000Y-26270857D01*
X138176000Y-26125714D01*
X138230428Y-25980571D01*
X138284857Y-25908000D01*
X138393714Y-25835428D01*
X138665857Y-25835428D01*
X138829142Y-25908000D01*
X139210142Y-25835428D02*
X139482285Y-27359428D01*
X139700000Y-26270857D01*
X139917714Y-27359428D01*
X140189857Y-25835428D01*
X140570857Y-25980571D02*
X140625285Y-25908000D01*
X140734142Y-25835428D01*
X141006285Y-25835428D01*
X141115142Y-25908000D01*
X141169571Y-25980571D01*
X141224000Y-26125714D01*
X141224000Y-26270857D01*
X141169571Y-26488571D01*
X140516428Y-27359428D01*
X141224000Y-27359428D01*
D19*
%TO.C,D8*%
D11*
X104660095Y-84914619D02*
X104660095Y-83898619D01*
X104902000Y-83898619D01*
X105047142Y-83947000D01*
X105143904Y-84043761D01*
X105192285Y-84140523D01*
X105240666Y-84334047D01*
X105240666Y-84479190D01*
X105192285Y-84672714D01*
X105143904Y-84769476D01*
X105047142Y-84866238D01*
X104902000Y-84914619D01*
X104660095Y-84914619D01*
X105821238Y-84334047D02*
X105724476Y-84285666D01*
X105676095Y-84237285D01*
X105627714Y-84140523D01*
X105627714Y-84092142D01*
X105676095Y-83995380D01*
X105724476Y-83947000D01*
X105821238Y-83898619D01*
X106014761Y-83898619D01*
X106111523Y-83947000D01*
X106159904Y-83995380D01*
X106208285Y-84092142D01*
X106208285Y-84140523D01*
X106159904Y-84237285D01*
X106111523Y-84285666D01*
X106014761Y-84334047D01*
X105821238Y-84334047D01*
X105724476Y-84382428D01*
X105676095Y-84430809D01*
X105627714Y-84527571D01*
X105627714Y-84721095D01*
X105676095Y-84817857D01*
X105724476Y-84866238D01*
X105821238Y-84914619D01*
X106014761Y-84914619D01*
X106111523Y-84866238D01*
X106159904Y-84817857D01*
X106208285Y-84721095D01*
X106208285Y-84527571D01*
X106159904Y-84430809D01*
X106111523Y-84382428D01*
X106014761Y-84334047D01*
%TO.C,D7*%
X109740095Y-84914619D02*
X109740095Y-83898619D01*
X109982000Y-83898619D01*
X110127142Y-83947000D01*
X110223904Y-84043761D01*
X110272285Y-84140523D01*
X110320666Y-84334047D01*
X110320666Y-84479190D01*
X110272285Y-84672714D01*
X110223904Y-84769476D01*
X110127142Y-84866238D01*
X109982000Y-84914619D01*
X109740095Y-84914619D01*
X110659333Y-83898619D02*
X111336666Y-83898619D01*
X110901238Y-84914619D01*
%TO.C,D6*%
X114820095Y-84914619D02*
X114820095Y-83898619D01*
X115062000Y-83898619D01*
X115207142Y-83947000D01*
X115303904Y-84043761D01*
X115352285Y-84140523D01*
X115400666Y-84334047D01*
X115400666Y-84479190D01*
X115352285Y-84672714D01*
X115303904Y-84769476D01*
X115207142Y-84866238D01*
X115062000Y-84914619D01*
X114820095Y-84914619D01*
X116271523Y-83898619D02*
X116078000Y-83898619D01*
X115981238Y-83947000D01*
X115932857Y-83995380D01*
X115836095Y-84140523D01*
X115787714Y-84334047D01*
X115787714Y-84721095D01*
X115836095Y-84817857D01*
X115884476Y-84866238D01*
X115981238Y-84914619D01*
X116174761Y-84914619D01*
X116271523Y-84866238D01*
X116319904Y-84817857D01*
X116368285Y-84721095D01*
X116368285Y-84479190D01*
X116319904Y-84382428D01*
X116271523Y-84334047D01*
X116174761Y-84285666D01*
X115981238Y-84285666D01*
X115884476Y-84334047D01*
X115836095Y-84382428D01*
X115787714Y-84479190D01*
%TO.C,D5*%
X119900095Y-84914619D02*
X119900095Y-83898619D01*
X120142000Y-83898619D01*
X120287142Y-83947000D01*
X120383904Y-84043761D01*
X120432285Y-84140523D01*
X120480666Y-84334047D01*
X120480666Y-84479190D01*
X120432285Y-84672714D01*
X120383904Y-84769476D01*
X120287142Y-84866238D01*
X120142000Y-84914619D01*
X119900095Y-84914619D01*
X121399904Y-83898619D02*
X120916095Y-83898619D01*
X120867714Y-84382428D01*
X120916095Y-84334047D01*
X121012857Y-84285666D01*
X121254761Y-84285666D01*
X121351523Y-84334047D01*
X121399904Y-84382428D01*
X121448285Y-84479190D01*
X121448285Y-84721095D01*
X121399904Y-84817857D01*
X121351523Y-84866238D01*
X121254761Y-84914619D01*
X121012857Y-84914619D01*
X120916095Y-84866238D01*
X120867714Y-84817857D01*
%TO.C,D4*%
X124980095Y-84914619D02*
X124980095Y-83898619D01*
X125222000Y-83898619D01*
X125367142Y-83947000D01*
X125463904Y-84043761D01*
X125512285Y-84140523D01*
X125560666Y-84334047D01*
X125560666Y-84479190D01*
X125512285Y-84672714D01*
X125463904Y-84769476D01*
X125367142Y-84866238D01*
X125222000Y-84914619D01*
X124980095Y-84914619D01*
X126431523Y-84237285D02*
X126431523Y-84914619D01*
X126189619Y-83850238D02*
X125947714Y-84575952D01*
X126576666Y-84575952D01*
%TO.C,D3*%
X130060095Y-84914619D02*
X130060095Y-83898619D01*
X130302000Y-83898619D01*
X130447142Y-83947000D01*
X130543904Y-84043761D01*
X130592285Y-84140523D01*
X130640666Y-84334047D01*
X130640666Y-84479190D01*
X130592285Y-84672714D01*
X130543904Y-84769476D01*
X130447142Y-84866238D01*
X130302000Y-84914619D01*
X130060095Y-84914619D01*
X130979333Y-83898619D02*
X131608285Y-83898619D01*
X131269619Y-84285666D01*
X131414761Y-84285666D01*
X131511523Y-84334047D01*
X131559904Y-84382428D01*
X131608285Y-84479190D01*
X131608285Y-84721095D01*
X131559904Y-84817857D01*
X131511523Y-84866238D01*
X131414761Y-84914619D01*
X131124476Y-84914619D01*
X131027714Y-84866238D01*
X130979333Y-84817857D01*
%TO.C,D2*%
X135140095Y-84914619D02*
X135140095Y-83898619D01*
X135382000Y-83898619D01*
X135527142Y-83947000D01*
X135623904Y-84043761D01*
X135672285Y-84140523D01*
X135720666Y-84334047D01*
X135720666Y-84479190D01*
X135672285Y-84672714D01*
X135623904Y-84769476D01*
X135527142Y-84866238D01*
X135382000Y-84914619D01*
X135140095Y-84914619D01*
X136107714Y-83995380D02*
X136156095Y-83947000D01*
X136252857Y-83898619D01*
X136494761Y-83898619D01*
X136591523Y-83947000D01*
X136639904Y-83995380D01*
X136688285Y-84092142D01*
X136688285Y-84188904D01*
X136639904Y-84334047D01*
X136059333Y-84914619D01*
X136688285Y-84914619D01*
%TO.C,D1*%
X140220095Y-84914619D02*
X140220095Y-83898619D01*
X140462000Y-83898619D01*
X140607142Y-83947000D01*
X140703904Y-84043761D01*
X140752285Y-84140523D01*
X140800666Y-84334047D01*
X140800666Y-84479190D01*
X140752285Y-84672714D01*
X140703904Y-84769476D01*
X140607142Y-84866238D01*
X140462000Y-84914619D01*
X140220095Y-84914619D01*
X141768285Y-84914619D02*
X141187714Y-84914619D01*
X141478000Y-84914619D02*
X141478000Y-83898619D01*
X141381238Y-84043761D01*
X141284476Y-84140523D01*
X141187714Y-84188904D01*
%TO.C,R23*%
X135251976Y-48441428D02*
X134586738Y-48864761D01*
X135251976Y-49167142D02*
X133854976Y-49167142D01*
X133854976Y-48683333D01*
X133921500Y-48562380D01*
X133988023Y-48501904D01*
X134121071Y-48441428D01*
X134320642Y-48441428D01*
X134453690Y-48501904D01*
X134520214Y-48562380D01*
X134586738Y-48683333D01*
X134586738Y-49167142D01*
X133988023Y-47957619D02*
X133921500Y-47897142D01*
X133854976Y-47776190D01*
X133854976Y-47473809D01*
X133921500Y-47352857D01*
X133988023Y-47292380D01*
X134121071Y-47231904D01*
X134254119Y-47231904D01*
X134453690Y-47292380D01*
X135251976Y-48018095D01*
X135251976Y-47231904D01*
X133854976Y-46808571D02*
X133854976Y-46022380D01*
X134387166Y-46445714D01*
X134387166Y-46264285D01*
X134453690Y-46143333D01*
X134520214Y-46082857D01*
X134653261Y-46022380D01*
X134985880Y-46022380D01*
X135118928Y-46082857D01*
X135185452Y-46143333D01*
X135251976Y-46264285D01*
X135251976Y-46627142D01*
X135185452Y-46748095D01*
X135118928Y-46808571D01*
%TO.C,R22*%
X132711976Y-48441428D02*
X132046738Y-48864761D01*
X132711976Y-49167142D02*
X131314976Y-49167142D01*
X131314976Y-48683333D01*
X131381500Y-48562380D01*
X131448023Y-48501904D01*
X131581071Y-48441428D01*
X131780642Y-48441428D01*
X131913690Y-48501904D01*
X131980214Y-48562380D01*
X132046738Y-48683333D01*
X132046738Y-49167142D01*
X131448023Y-47957619D02*
X131381500Y-47897142D01*
X131314976Y-47776190D01*
X131314976Y-47473809D01*
X131381500Y-47352857D01*
X131448023Y-47292380D01*
X131581071Y-47231904D01*
X131714119Y-47231904D01*
X131913690Y-47292380D01*
X132711976Y-48018095D01*
X132711976Y-47231904D01*
X131448023Y-46748095D02*
X131381500Y-46687619D01*
X131314976Y-46566666D01*
X131314976Y-46264285D01*
X131381500Y-46143333D01*
X131448023Y-46082857D01*
X131581071Y-46022380D01*
X131714119Y-46022380D01*
X131913690Y-46082857D01*
X132711976Y-46808571D01*
X132711976Y-46022380D01*
%TO.C,R21*%
X130171976Y-48441428D02*
X129506738Y-48864761D01*
X130171976Y-49167142D02*
X128774976Y-49167142D01*
X128774976Y-48683333D01*
X128841500Y-48562380D01*
X128908023Y-48501904D01*
X129041071Y-48441428D01*
X129240642Y-48441428D01*
X129373690Y-48501904D01*
X129440214Y-48562380D01*
X129506738Y-48683333D01*
X129506738Y-49167142D01*
X128908023Y-47957619D02*
X128841500Y-47897142D01*
X128774976Y-47776190D01*
X128774976Y-47473809D01*
X128841500Y-47352857D01*
X128908023Y-47292380D01*
X129041071Y-47231904D01*
X129174119Y-47231904D01*
X129373690Y-47292380D01*
X130171976Y-48018095D01*
X130171976Y-47231904D01*
X130171976Y-46022380D02*
X130171976Y-46748095D01*
X130171976Y-46385238D02*
X128774976Y-46385238D01*
X128974547Y-46506190D01*
X129107595Y-46627142D01*
X129174119Y-46748095D01*
%TO.C,R20*%
X125726976Y-48441428D02*
X125061738Y-48864761D01*
X125726976Y-49167142D02*
X124329976Y-49167142D01*
X124329976Y-48683333D01*
X124396500Y-48562380D01*
X124463023Y-48501904D01*
X124596071Y-48441428D01*
X124795642Y-48441428D01*
X124928690Y-48501904D01*
X124995214Y-48562380D01*
X125061738Y-48683333D01*
X125061738Y-49167142D01*
X124463023Y-47957619D02*
X124396500Y-47897142D01*
X124329976Y-47776190D01*
X124329976Y-47473809D01*
X124396500Y-47352857D01*
X124463023Y-47292380D01*
X124596071Y-47231904D01*
X124729119Y-47231904D01*
X124928690Y-47292380D01*
X125726976Y-48018095D01*
X125726976Y-47231904D01*
X124329976Y-46445714D02*
X124329976Y-46324761D01*
X124396500Y-46203809D01*
X124463023Y-46143333D01*
X124596071Y-46082857D01*
X124862166Y-46022380D01*
X125194785Y-46022380D01*
X125460880Y-46082857D01*
X125593928Y-46143333D01*
X125660452Y-46203809D01*
X125726976Y-46324761D01*
X125726976Y-46445714D01*
X125660452Y-46566666D01*
X125593928Y-46627142D01*
X125460880Y-46687619D01*
X125194785Y-46748095D01*
X124862166Y-46748095D01*
X124596071Y-46687619D01*
X124463023Y-46627142D01*
X124396500Y-46566666D01*
X124329976Y-46445714D01*
%TO.C,R19*%
X123186976Y-48441428D02*
X122521738Y-48864761D01*
X123186976Y-49167142D02*
X121789976Y-49167142D01*
X121789976Y-48683333D01*
X121856500Y-48562380D01*
X121923023Y-48501904D01*
X122056071Y-48441428D01*
X122255642Y-48441428D01*
X122388690Y-48501904D01*
X122455214Y-48562380D01*
X122521738Y-48683333D01*
X122521738Y-49167142D01*
X123186976Y-47231904D02*
X123186976Y-47957619D01*
X123186976Y-47594761D02*
X121789976Y-47594761D01*
X121989547Y-47715714D01*
X122122595Y-47836666D01*
X122189119Y-47957619D01*
X123186976Y-46627142D02*
X123186976Y-46385238D01*
X123120452Y-46264285D01*
X123053928Y-46203809D01*
X122854357Y-46082857D01*
X122588261Y-46022380D01*
X122056071Y-46022380D01*
X121923023Y-46082857D01*
X121856500Y-46143333D01*
X121789976Y-46264285D01*
X121789976Y-46506190D01*
X121856500Y-46627142D01*
X121923023Y-46687619D01*
X122056071Y-46748095D01*
X122388690Y-46748095D01*
X122521738Y-46687619D01*
X122588261Y-46627142D01*
X122654785Y-46506190D01*
X122654785Y-46264285D01*
X122588261Y-46143333D01*
X122521738Y-46082857D01*
X122388690Y-46022380D01*
%TO.C,R18*%
X120011976Y-48441428D02*
X119346738Y-48864761D01*
X120011976Y-49167142D02*
X118614976Y-49167142D01*
X118614976Y-48683333D01*
X118681500Y-48562380D01*
X118748023Y-48501904D01*
X118881071Y-48441428D01*
X119080642Y-48441428D01*
X119213690Y-48501904D01*
X119280214Y-48562380D01*
X119346738Y-48683333D01*
X119346738Y-49167142D01*
X120011976Y-47231904D02*
X120011976Y-47957619D01*
X120011976Y-47594761D02*
X118614976Y-47594761D01*
X118814547Y-47715714D01*
X118947595Y-47836666D01*
X119014119Y-47957619D01*
X119213690Y-46506190D02*
X119147166Y-46627142D01*
X119080642Y-46687619D01*
X118947595Y-46748095D01*
X118881071Y-46748095D01*
X118748023Y-46687619D01*
X118681500Y-46627142D01*
X118614976Y-46506190D01*
X118614976Y-46264285D01*
X118681500Y-46143333D01*
X118748023Y-46082857D01*
X118881071Y-46022380D01*
X118947595Y-46022380D01*
X119080642Y-46082857D01*
X119147166Y-46143333D01*
X119213690Y-46264285D01*
X119213690Y-46506190D01*
X119280214Y-46627142D01*
X119346738Y-46687619D01*
X119479785Y-46748095D01*
X119745880Y-46748095D01*
X119878928Y-46687619D01*
X119945452Y-46627142D01*
X120011976Y-46506190D01*
X120011976Y-46264285D01*
X119945452Y-46143333D01*
X119878928Y-46082857D01*
X119745880Y-46022380D01*
X119479785Y-46022380D01*
X119346738Y-46082857D01*
X119280214Y-46143333D01*
X119213690Y-46264285D01*
%TO.C,R17*%
X117471976Y-48441428D02*
X116806738Y-48864761D01*
X117471976Y-49167142D02*
X116074976Y-49167142D01*
X116074976Y-48683333D01*
X116141500Y-48562380D01*
X116208023Y-48501904D01*
X116341071Y-48441428D01*
X116540642Y-48441428D01*
X116673690Y-48501904D01*
X116740214Y-48562380D01*
X116806738Y-48683333D01*
X116806738Y-49167142D01*
X117471976Y-47231904D02*
X117471976Y-47957619D01*
X117471976Y-47594761D02*
X116074976Y-47594761D01*
X116274547Y-47715714D01*
X116407595Y-47836666D01*
X116474119Y-47957619D01*
X116074976Y-46808571D02*
X116074976Y-45961904D01*
X117471976Y-46506190D01*
%TO.C,R16*%
X114931976Y-48441428D02*
X114266738Y-48864761D01*
X114931976Y-49167142D02*
X113534976Y-49167142D01*
X113534976Y-48683333D01*
X113601500Y-48562380D01*
X113668023Y-48501904D01*
X113801071Y-48441428D01*
X114000642Y-48441428D01*
X114133690Y-48501904D01*
X114200214Y-48562380D01*
X114266738Y-48683333D01*
X114266738Y-49167142D01*
X114931976Y-47231904D02*
X114931976Y-47957619D01*
X114931976Y-47594761D02*
X113534976Y-47594761D01*
X113734547Y-47715714D01*
X113867595Y-47836666D01*
X113934119Y-47957619D01*
X113534976Y-46143333D02*
X113534976Y-46385238D01*
X113601500Y-46506190D01*
X113668023Y-46566666D01*
X113867595Y-46687619D01*
X114133690Y-46748095D01*
X114665880Y-46748095D01*
X114798928Y-46687619D01*
X114865452Y-46627142D01*
X114931976Y-46506190D01*
X114931976Y-46264285D01*
X114865452Y-46143333D01*
X114798928Y-46082857D01*
X114665880Y-46022380D01*
X114333261Y-46022380D01*
X114200214Y-46082857D01*
X114133690Y-46143333D01*
X114067166Y-46264285D01*
X114067166Y-46506190D01*
X114133690Y-46627142D01*
X114200214Y-46687619D01*
X114333261Y-46748095D01*
%TO.C,R15*%
X109851976Y-48441428D02*
X109186738Y-48864761D01*
X109851976Y-49167142D02*
X108454976Y-49167142D01*
X108454976Y-48683333D01*
X108521500Y-48562380D01*
X108588023Y-48501904D01*
X108721071Y-48441428D01*
X108920642Y-48441428D01*
X109053690Y-48501904D01*
X109120214Y-48562380D01*
X109186738Y-48683333D01*
X109186738Y-49167142D01*
X109851976Y-47231904D02*
X109851976Y-47957619D01*
X109851976Y-47594761D02*
X108454976Y-47594761D01*
X108654547Y-47715714D01*
X108787595Y-47836666D01*
X108854119Y-47957619D01*
X108454976Y-46082857D02*
X108454976Y-46687619D01*
X109120214Y-46748095D01*
X109053690Y-46687619D01*
X108987166Y-46566666D01*
X108987166Y-46264285D01*
X109053690Y-46143333D01*
X109120214Y-46082857D01*
X109253261Y-46022380D01*
X109585880Y-46022380D01*
X109718928Y-46082857D01*
X109785452Y-46143333D01*
X109851976Y-46264285D01*
X109851976Y-46566666D01*
X109785452Y-46687619D01*
X109718928Y-46748095D01*
%TO.C,R14*%
X93341976Y-26216428D02*
X92676738Y-26639761D01*
X93341976Y-26942142D02*
X91944976Y-26942142D01*
X91944976Y-26458333D01*
X92011500Y-26337380D01*
X92078023Y-26276904D01*
X92211071Y-26216428D01*
X92410642Y-26216428D01*
X92543690Y-26276904D01*
X92610214Y-26337380D01*
X92676738Y-26458333D01*
X92676738Y-26942142D01*
X93341976Y-25006904D02*
X93341976Y-25732619D01*
X93341976Y-25369761D02*
X91944976Y-25369761D01*
X92144547Y-25490714D01*
X92277595Y-25611666D01*
X92344119Y-25732619D01*
X92410642Y-23918333D02*
X93341976Y-23918333D01*
X91878452Y-24220714D02*
X92876309Y-24523095D01*
X92876309Y-23736904D01*
%TO.C,R13*%
X65401976Y-63681428D02*
X64736738Y-64104761D01*
X65401976Y-64407142D02*
X64004976Y-64407142D01*
X64004976Y-63923333D01*
X64071500Y-63802380D01*
X64138023Y-63741904D01*
X64271071Y-63681428D01*
X64470642Y-63681428D01*
X64603690Y-63741904D01*
X64670214Y-63802380D01*
X64736738Y-63923333D01*
X64736738Y-64407142D01*
X65401976Y-62471904D02*
X65401976Y-63197619D01*
X65401976Y-62834761D02*
X64004976Y-62834761D01*
X64204547Y-62955714D01*
X64337595Y-63076666D01*
X64404119Y-63197619D01*
X64004976Y-62048571D02*
X64004976Y-61262380D01*
X64537166Y-61685714D01*
X64537166Y-61504285D01*
X64603690Y-61383333D01*
X64670214Y-61322857D01*
X64803261Y-61262380D01*
X65135880Y-61262380D01*
X65268928Y-61322857D01*
X65335452Y-61383333D01*
X65401976Y-61504285D01*
X65401976Y-61867142D01*
X65335452Y-61988095D01*
X65268928Y-62048571D01*
%TO.C,R12*%
X70481976Y-79556428D02*
X69816738Y-79979761D01*
X70481976Y-80282142D02*
X69084976Y-80282142D01*
X69084976Y-79798333D01*
X69151500Y-79677380D01*
X69218023Y-79616904D01*
X69351071Y-79556428D01*
X69550642Y-79556428D01*
X69683690Y-79616904D01*
X69750214Y-79677380D01*
X69816738Y-79798333D01*
X69816738Y-80282142D01*
X70481976Y-78346904D02*
X70481976Y-79072619D01*
X70481976Y-78709761D02*
X69084976Y-78709761D01*
X69284547Y-78830714D01*
X69417595Y-78951666D01*
X69484119Y-79072619D01*
X69218023Y-77863095D02*
X69151500Y-77802619D01*
X69084976Y-77681666D01*
X69084976Y-77379285D01*
X69151500Y-77258333D01*
X69218023Y-77197857D01*
X69351071Y-77137380D01*
X69484119Y-77137380D01*
X69683690Y-77197857D01*
X70481976Y-77923571D01*
X70481976Y-77137380D01*
%TO.C,R11*%
X86991976Y-50346428D02*
X86326738Y-50769761D01*
X86991976Y-51072142D02*
X85594976Y-51072142D01*
X85594976Y-50588333D01*
X85661500Y-50467380D01*
X85728023Y-50406904D01*
X85861071Y-50346428D01*
X86060642Y-50346428D01*
X86193690Y-50406904D01*
X86260214Y-50467380D01*
X86326738Y-50588333D01*
X86326738Y-51072142D01*
X86991976Y-49136904D02*
X86991976Y-49862619D01*
X86991976Y-49499761D02*
X85594976Y-49499761D01*
X85794547Y-49620714D01*
X85927595Y-49741666D01*
X85994119Y-49862619D01*
X86991976Y-47927380D02*
X86991976Y-48653095D01*
X86991976Y-48290238D02*
X85594976Y-48290238D01*
X85794547Y-48411190D01*
X85927595Y-48532142D01*
X85994119Y-48653095D01*
%TO.C,R10*%
X90623571Y-45081976D02*
X90200238Y-44416738D01*
X89897857Y-45081976D02*
X89897857Y-43684976D01*
X90381666Y-43684976D01*
X90502619Y-43751500D01*
X90563095Y-43818023D01*
X90623571Y-43951071D01*
X90623571Y-44150642D01*
X90563095Y-44283690D01*
X90502619Y-44350214D01*
X90381666Y-44416738D01*
X89897857Y-44416738D01*
X91833095Y-45081976D02*
X91107380Y-45081976D01*
X91470238Y-45081976D02*
X91470238Y-43684976D01*
X91349285Y-43884547D01*
X91228333Y-44017595D01*
X91107380Y-44084119D01*
X92619285Y-43684976D02*
X92740238Y-43684976D01*
X92861190Y-43751500D01*
X92921666Y-43818023D01*
X92982142Y-43951071D01*
X93042619Y-44217166D01*
X93042619Y-44549785D01*
X92982142Y-44815880D01*
X92921666Y-44948928D01*
X92861190Y-45015452D01*
X92740238Y-45081976D01*
X92619285Y-45081976D01*
X92498333Y-45015452D01*
X92437857Y-44948928D01*
X92377380Y-44815880D01*
X92316904Y-44549785D01*
X92316904Y-44217166D01*
X92377380Y-43951071D01*
X92437857Y-43818023D01*
X92498333Y-43751500D01*
X92619285Y-43684976D01*
%TO.C,R9*%
X82973333Y-33016976D02*
X82550000Y-32351738D01*
X82247619Y-33016976D02*
X82247619Y-31619976D01*
X82731428Y-31619976D01*
X82852380Y-31686500D01*
X82912857Y-31753023D01*
X82973333Y-31886071D01*
X82973333Y-32085642D01*
X82912857Y-32218690D01*
X82852380Y-32285214D01*
X82731428Y-32351738D01*
X82247619Y-32351738D01*
X83578095Y-33016976D02*
X83820000Y-33016976D01*
X83940952Y-32950452D01*
X84001428Y-32883928D01*
X84122380Y-32684357D01*
X84182857Y-32418261D01*
X84182857Y-31886071D01*
X84122380Y-31753023D01*
X84061904Y-31686500D01*
X83940952Y-31619976D01*
X83699047Y-31619976D01*
X83578095Y-31686500D01*
X83517619Y-31753023D01*
X83457142Y-31886071D01*
X83457142Y-32218690D01*
X83517619Y-32351738D01*
X83578095Y-32418261D01*
X83699047Y-32484785D01*
X83940952Y-32484785D01*
X84061904Y-32418261D01*
X84122380Y-32351738D01*
X84182857Y-32218690D01*
%TO.C,R8*%
X122343333Y-76831976D02*
X121920000Y-76166738D01*
X121617619Y-76831976D02*
X121617619Y-75434976D01*
X122101428Y-75434976D01*
X122222380Y-75501500D01*
X122282857Y-75568023D01*
X122343333Y-75701071D01*
X122343333Y-75900642D01*
X122282857Y-76033690D01*
X122222380Y-76100214D01*
X122101428Y-76166738D01*
X121617619Y-76166738D01*
X123069047Y-76033690D02*
X122948095Y-75967166D01*
X122887619Y-75900642D01*
X122827142Y-75767595D01*
X122827142Y-75701071D01*
X122887619Y-75568023D01*
X122948095Y-75501500D01*
X123069047Y-75434976D01*
X123310952Y-75434976D01*
X123431904Y-75501500D01*
X123492380Y-75568023D01*
X123552857Y-75701071D01*
X123552857Y-75767595D01*
X123492380Y-75900642D01*
X123431904Y-75967166D01*
X123310952Y-76033690D01*
X123069047Y-76033690D01*
X122948095Y-76100214D01*
X122887619Y-76166738D01*
X122827142Y-76299785D01*
X122827142Y-76565880D01*
X122887619Y-76698928D01*
X122948095Y-76765452D01*
X123069047Y-76831976D01*
X123310952Y-76831976D01*
X123431904Y-76765452D01*
X123492380Y-76698928D01*
X123552857Y-76565880D01*
X123552857Y-76299785D01*
X123492380Y-76166738D01*
X123431904Y-76100214D01*
X123310952Y-76033690D01*
%TO.C,R7*%
X122343333Y-74291976D02*
X121920000Y-73626738D01*
X121617619Y-74291976D02*
X121617619Y-72894976D01*
X122101428Y-72894976D01*
X122222380Y-72961500D01*
X122282857Y-73028023D01*
X122343333Y-73161071D01*
X122343333Y-73360642D01*
X122282857Y-73493690D01*
X122222380Y-73560214D01*
X122101428Y-73626738D01*
X121617619Y-73626738D01*
X122766666Y-72894976D02*
X123613333Y-72894976D01*
X123069047Y-74291976D01*
%TO.C,R6*%
X122343333Y-71751976D02*
X121920000Y-71086738D01*
X121617619Y-71751976D02*
X121617619Y-70354976D01*
X122101428Y-70354976D01*
X122222380Y-70421500D01*
X122282857Y-70488023D01*
X122343333Y-70621071D01*
X122343333Y-70820642D01*
X122282857Y-70953690D01*
X122222380Y-71020214D01*
X122101428Y-71086738D01*
X121617619Y-71086738D01*
X123431904Y-70354976D02*
X123190000Y-70354976D01*
X123069047Y-70421500D01*
X123008571Y-70488023D01*
X122887619Y-70687595D01*
X122827142Y-70953690D01*
X122827142Y-71485880D01*
X122887619Y-71618928D01*
X122948095Y-71685452D01*
X123069047Y-71751976D01*
X123310952Y-71751976D01*
X123431904Y-71685452D01*
X123492380Y-71618928D01*
X123552857Y-71485880D01*
X123552857Y-71153261D01*
X123492380Y-71020214D01*
X123431904Y-70953690D01*
X123310952Y-70887166D01*
X123069047Y-70887166D01*
X122948095Y-70953690D01*
X122887619Y-71020214D01*
X122827142Y-71153261D01*
%TO.C,RR1*%
X112334523Y-35136666D02*
X111729761Y-35560000D01*
X112334523Y-35862380D02*
X111064523Y-35862380D01*
X111064523Y-35378571D01*
X111125000Y-35257619D01*
X111185476Y-35197142D01*
X111306428Y-35136666D01*
X111487857Y-35136666D01*
X111608809Y-35197142D01*
X111669285Y-35257619D01*
X111729761Y-35378571D01*
X111729761Y-35862380D01*
X112334523Y-33866666D02*
X111729761Y-34290000D01*
X112334523Y-34592380D02*
X111064523Y-34592380D01*
X111064523Y-34108571D01*
X111125000Y-33987619D01*
X111185476Y-33927142D01*
X111306428Y-33866666D01*
X111487857Y-33866666D01*
X111608809Y-33927142D01*
X111669285Y-33987619D01*
X111729761Y-34108571D01*
X111729761Y-34592380D01*
X112334523Y-32657142D02*
X112334523Y-33382857D01*
X112334523Y-33020000D02*
X111064523Y-33020000D01*
X111245952Y-33140952D01*
X111366904Y-33261904D01*
X111427380Y-33382857D01*
%TO.C,SW1*%
X97705333Y-30891238D02*
X97850476Y-30939619D01*
X98092380Y-30939619D01*
X98189142Y-30891238D01*
X98237523Y-30842857D01*
X98285904Y-30746095D01*
X98285904Y-30649333D01*
X98237523Y-30552571D01*
X98189142Y-30504190D01*
X98092380Y-30455809D01*
X97898857Y-30407428D01*
X97802095Y-30359047D01*
X97753714Y-30310666D01*
X97705333Y-30213904D01*
X97705333Y-30117142D01*
X97753714Y-30020380D01*
X97802095Y-29972000D01*
X97898857Y-29923619D01*
X98140761Y-29923619D01*
X98285904Y-29972000D01*
X98624571Y-29923619D02*
X98866476Y-30939619D01*
X99060000Y-30213904D01*
X99253523Y-30939619D01*
X99495428Y-29923619D01*
X100414666Y-30939619D02*
X99834095Y-30939619D01*
X100124380Y-30939619D02*
X100124380Y-29923619D01*
X100027619Y-30068761D01*
X99930857Y-30165523D01*
X99834095Y-30213904D01*
%TO.C,P7*%
D20*
X75397601Y-71267501D02*
X75397601Y-69537761D01*
X75811742Y-69537761D01*
X75915278Y-69620130D01*
X75967045Y-69702498D01*
X76018813Y-69867235D01*
X76018813Y-70114341D01*
X75967045Y-70279078D01*
X75915278Y-70361447D01*
X75811742Y-70443815D01*
X75397601Y-70443815D01*
X76381186Y-69537761D02*
X77105933Y-69537761D01*
X76640024Y-71267501D01*
%TO.C,P8*%
X76032601Y-80792501D02*
X76032601Y-79062761D01*
X76446742Y-79062761D01*
X76550278Y-79145130D01*
X76602045Y-79227498D01*
X76653813Y-79392235D01*
X76653813Y-79639341D01*
X76602045Y-79804078D01*
X76550278Y-79886447D01*
X76446742Y-79968815D01*
X76032601Y-79968815D01*
X77275024Y-79804078D02*
X77171489Y-79721710D01*
X77119721Y-79639341D01*
X77067954Y-79474604D01*
X77067954Y-79392235D01*
X77119721Y-79227498D01*
X77171489Y-79145130D01*
X77275024Y-79062761D01*
X77482095Y-79062761D01*
X77585630Y-79145130D01*
X77637398Y-79227498D01*
X77689165Y-79392235D01*
X77689165Y-79474604D01*
X77637398Y-79639341D01*
X77585630Y-79721710D01*
X77482095Y-79804078D01*
X77275024Y-79804078D01*
X77171489Y-79886447D01*
X77119721Y-79968815D01*
X77067954Y-80133552D01*
X77067954Y-80463027D01*
X77119721Y-80627764D01*
X77171489Y-80710132D01*
X77275024Y-80792501D01*
X77482095Y-80792501D01*
X77585630Y-80710132D01*
X77637398Y-80627764D01*
X77689165Y-80463027D01*
X77689165Y-80133552D01*
X77637398Y-79968815D01*
X77585630Y-79886447D01*
X77482095Y-79804078D01*
%TO.C,R24*%
D11*
X145411976Y-63681428D02*
X144746738Y-64104761D01*
X145411976Y-64407142D02*
X144014976Y-64407142D01*
X144014976Y-63923333D01*
X144081500Y-63802380D01*
X144148023Y-63741904D01*
X144281071Y-63681428D01*
X144480642Y-63681428D01*
X144613690Y-63741904D01*
X144680214Y-63802380D01*
X144746738Y-63923333D01*
X144746738Y-64407142D01*
X144148023Y-63197619D02*
X144081500Y-63137142D01*
X144014976Y-63016190D01*
X144014976Y-62713809D01*
X144081500Y-62592857D01*
X144148023Y-62532380D01*
X144281071Y-62471904D01*
X144414119Y-62471904D01*
X144613690Y-62532380D01*
X145411976Y-63258095D01*
X145411976Y-62471904D01*
X144480642Y-61383333D02*
X145411976Y-61383333D01*
X143948452Y-61685714D02*
X144946309Y-61988095D01*
X144946309Y-61201904D01*
%TD*%
D10*
X148463000Y-52398394D02*
X146864606Y-50800000D01*
X148463000Y-49201606D01*
X148463000Y-52398394D01*
D21*
G36*
X148463000Y-52398394D02*
G01*
X146864606Y-50800000D01*
X148463000Y-49201606D01*
X148463000Y-52398394D01*
G37*
D10*
X99568000Y-41603394D02*
X98604606Y-40640000D01*
X99568000Y-39676606D01*
X99568000Y-41603394D01*
D21*
G36*
X99568000Y-41603394D02*
G01*
X98604606Y-40640000D01*
X99568000Y-39676606D01*
X99568000Y-41603394D01*
G37*
D10*
X80010000Y-43635394D02*
X79681606Y-43307000D01*
X80338394Y-43307000D01*
X80010000Y-43635394D01*
D21*
G36*
X80010000Y-43635394D02*
G01*
X79681606Y-43307000D01*
X80338394Y-43307000D01*
X80010000Y-43635394D01*
G37*
D10*
X114300000Y-32205394D02*
X113971606Y-31877000D01*
X114628394Y-31877000D01*
X114300000Y-32205394D01*
D21*
G36*
X114300000Y-32205394D02*
G01*
X113971606Y-31877000D01*
X114628394Y-31877000D01*
X114300000Y-32205394D01*
G37*
D10*
X62558394Y-32893000D02*
X61901606Y-32893000D01*
X62230000Y-32564606D01*
X62558394Y-32893000D01*
D21*
G36*
X62558394Y-32893000D02*
G01*
X61901606Y-32893000D01*
X62230000Y-32564606D01*
X62558394Y-32893000D01*
G37*
D10*
X80010000Y-77925394D02*
X79681606Y-77597000D01*
X80338394Y-77597000D01*
X80010000Y-77925394D01*
D21*
G36*
X80010000Y-77925394D02*
G01*
X79681606Y-77597000D01*
X80338394Y-77597000D01*
X80010000Y-77925394D01*
G37*
D10*
X91313000Y-29538394D02*
X90984606Y-29210000D01*
X91313000Y-28881606D01*
X91313000Y-29538394D01*
D21*
G36*
X91313000Y-29538394D02*
G01*
X90984606Y-29210000D01*
X91313000Y-28881606D01*
X91313000Y-29538394D01*
G37*
M02*
